<?xml version="1.0" encoding="UTF-8" standalone="no"?>
<!-- Generator: Adobe Illustrator 23.0.3, SVG Export Plug-In . SVG Version: 6.00 Build 0)  -->

<svg
   xmlns:dc="http://purl.org/dc/elements/1.1/"
   xmlns:cc="http://creativecommons.org/ns#"
   xmlns:rdf="http://www.w3.org/1999/02/22-rdf-syntax-ns#"
   xmlns:svg="http://www.w3.org/2000/svg"
   xmlns="http://www.w3.org/2000/svg"
   xmlns:sodipodi="http://sodipodi.sourceforge.net/DTD/sodipodi-0.dtd"
   xmlns:inkscape="http://www.inkscape.org/namespaces/inkscape"
   version="1.1"
   id="Layer_1"
   x="0px"
   y="0px"
   viewBox="0 0 619.20001 630.05963"
   xml:space="preserve"
   sodipodi:docname="drawing-05.svg"
   width="619.20001"
   height="630.05963"
   inkscape:version="0.92.5 (2060ec1f9f, 2020-04-08)"><metadata
   id="metadata1602"><rdf:RDF><cc:Work
       rdf:about=""><dc:format>image/svg+xml</dc:format><dc:type
         rdf:resource="http://purl.org/dc/dcmitype/StillImage" /></cc:Work></rdf:RDF></metadata><defs
   id="defs1600" /><sodipodi:namedview
   pagecolor="#ffffff"
   bordercolor="#666666"
   borderopacity="1"
   objecttolerance="10"
   gridtolerance="10"
   guidetolerance="10"
   inkscape:pageopacity="0"
   inkscape:pageshadow="2"
   inkscape:window-width="1862"
   inkscape:window-height="1043"
   id="namedview1598"
   showgrid="false"
   inkscape:zoom="0.72971549"
   inkscape:cx="601.79032"
   inkscape:cy="277.10695"
   inkscape:window-x="2618"
   inkscape:window-y="360"
   inkscape:window-maximized="1"
   inkscape:current-layer="Layer_1" />
<style
   type="text/css"
   id="style1389">
	.st0{fill:none;stroke:#999999;stroke-width:1.3;}
	.st1{enable-background:new    ;}
	.st2{fill:none;stroke:#000000;stroke-width:1.3;}
	.st3{fill:#FFFFFF;stroke:#000000;stroke-width:1.3;}
	.st4{fill:#808080;}
</style>
<g
   id="g1413"
   transform="translate(-304.6,-26.040381)">
	<rect
   x="434.5"
   y="165.3"
   class="st0"
   width="488.10001"
   height="488.10001"
   id="rect1391"
   style="fill:none;stroke:#999999;stroke-width:1.29999995" />
	<line
   class="st0"
   x1="434.5"
   y1="572.29999"
   x2="922.70001"
   y2="572.29999"
   id="line1393"
   style="fill:none;stroke:#999999;stroke-width:1.29999995" />
	<line
   class="st0"
   x1="434.5"
   y1="490.70001"
   x2="922.70001"
   y2="490.70001"
   id="line1395"
   style="fill:none;stroke:#999999;stroke-width:1.29999995" />
	<line
   class="st0"
   x1="434.5"
   y1="409.5"
   x2="922.70001"
   y2="409.5"
   id="line1397"
   style="fill:none;stroke:#999999;stroke-width:1.29999995" />
	<line
   class="st0"
   x1="434.5"
   y1="328.29999"
   x2="922.70001"
   y2="328.29999"
   id="line1399"
   style="fill:none;stroke:#999999;stroke-width:1.29999995" />
	<line
   class="st0"
   x1="434.5"
   y1="246.60001"
   x2="922.70001"
   y2="246.60001"
   id="line1401"
   style="fill:none;stroke:#999999;stroke-width:1.29999995" />
	<line
   class="st0"
   x1="841.09998"
   y1="165.3"
   x2="841.09998"
   y2="653.59998"
   id="line1403"
   style="fill:none;stroke:#999999;stroke-width:1.29999995" />
	<line
   class="st0"
   x1="760"
   y1="165.3"
   x2="760"
   y2="653.59998"
   id="line1405"
   style="fill:none;stroke:#999999;stroke-width:1.29999995" />
	<line
   class="st0"
   x1="678.70001"
   y1="165.3"
   x2="678.70001"
   y2="653.59998"
   id="line1407"
   style="fill:none;stroke:#999999;stroke-width:1.29999995" />
	<line
   class="st0"
   x1="597.20001"
   y1="165.3"
   x2="597.20001"
   y2="653.59998"
   id="line1409"
   style="fill:none;stroke:#999999;stroke-width:1.29999995" />
	<line
   class="st0"
   x1="515.90002"
   y1="165.3"
   x2="515.90002"
   y2="653.59998"
   id="line1411"
   style="fill:none;stroke:#999999;stroke-width:1.29999995" />
</g>
<g
   class="st1"
   id="g1417"
   style="enable-background:new"
   transform="translate(-304.6,-26.040381)">
	<path
   d="m 444.2,48 -4.4,-7.4 -4.3,7.4 h -5.9 v -2.2 c 1.2,-0.2 2.4,-0.5 3.4,-0.5 l 4.9,-7.1 -4.5,-7.1 c -1,0 -2.2,-0.3 -3.4,-0.5 v -2.2 h 6.1 l 4.2,7.2 4.2,-7.2 h 5.7 v 2.2 c -1.2,0.2 -2.4,0.5 -3.4,0.5 l -4.4,6.9 4.7,7.2 c 1,0 2.2,0.3 3.4,0.5 V 48 Z"
   id="path1415"
   inkscape:connector-curvature="0" />
</g>
<g
   class="st1"
   id="g1421"
   style="enable-background:new"
   transform="translate(-304.6,-26.040381)">
	<path
   d="m 323.9,154.2 -6.9,19 c -2.2,6.1 -4.2,7.9 -8.6,7.9 -0.7,0 -1.9,0 -2.7,-0.2 l 0.3,-3.2 c 0.8,0.3 1.7,0.5 2.5,0.5 2.2,0 3.4,-1 4.7,-4.9 l 0.8,-2.2 h -0.8 l -6.1,-17 c -0.8,0 -1.9,-0.2 -2.5,-0.5 v -2.2 h 8.9 v 2.2 c -0.7,0.2 -1.7,0.3 -2.5,0.5 l 3,8.4 c 0.7,1.9 1,3.2 1.5,4.9 v 0 c 0.3,-1.3 1,-3.5 1.9,-5.9 l 2.7,-7.6 c -1,0 -1.9,-0.2 -2.5,-0.5 v -2.2 h 8.8 v 2.2 c -0.8,0.7 -1.7,0.8 -2.5,0.8 z"
   id="path1419"
   inkscape:connector-curvature="0" />
</g>
<g
   class="st1"
   id="g1425"
   style="enable-background:new"
   transform="translate(-304.6,-26.040381)">
	<path
   d="m 441.7,115.5 c -5.2,0 -9.8,-3 -9.8,-12.1 0,-7.9 4.7,-12.3 10.3,-12.3 5,0 9.8,3 9.8,12.1 0,7.9 -4.7,12.3 -10.3,12.3 z M 442,94 c -3.2,0 -6.2,2.9 -6.2,9.1 0,6.6 2.5,9.4 6.2,9.4 3.2,0 6.2,-2.7 6.2,-9.1 0.1,-6.6 -2.5,-9.4 -6.2,-9.4 z"
   id="path1423"
   inkscape:connector-curvature="0" />
</g>
<g
   class="st1"
   id="g1429"
   style="enable-background:new"
   transform="translate(-304.6,-26.040381)">
	<path
   d="m 513.1,115 v -3.2 h 7.2 V 95.1 l -6.7,4.4 -1.2,-3 8.8,-5.4 h 3 v 20.5 h 5.9 v 3.2 h -17 z"
   id="path1427"
   inkscape:connector-curvature="0" />
</g>
<g
   class="st1"
   id="g1433"
   style="enable-background:new"
   transform="translate(-304.6,-26.040381)">
	<path
   d="m 591,115 v -2.9 l 5.6,-5 c 5,-4.2 6.2,-5.9 6.2,-8.6 0,-2.5 -1.5,-4.4 -4.9,-4.4 -2.4,0 -4.4,1 -5.7,2 l -0.8,-3.2 c 2,-1.2 4.4,-2 7.2,-2 5.2,0 8.1,3 8.1,7.1 0,3.4 -1.7,5.9 -6.1,9.6 l -4.7,4 h -0.2 c 1.9,-0.2 6.2,-0.2 12,-0.2 v 3.4 H 591 Z"
   id="path1431"
   inkscape:connector-curvature="0" />
</g>
<g
   class="st1"
   id="g1437"
   style="enable-background:new"
   transform="translate(-304.6,-26.040381)">
	<path
   d="m 675.2,118.7 c -1.7,0 -3.5,-0.2 -4.9,-0.7 l 0.7,-3.2 c 1.3,0.5 3,0.8 4.7,0.8 4.2,0 6.9,-2.4 6.9,-5.2 0,-3 -2.4,-4.9 -6.6,-4.9 -1.3,0 -2.4,0 -3.5,0.2 v -3 h 0.8 c 5.6,0 8.4,-1.7 8.4,-4.9 0,-2.5 -1.9,-3.9 -4.9,-3.9 -2.2,0 -4,0.7 -5.6,1.5 l -0.7,-3 c 2,-0.8 4.2,-1.3 6.7,-1.3 5.2,0 7.9,2.5 7.9,6.2 0,3 -1.9,5.2 -4.9,6.2 v 0 c 3.2,0.3 5.7,3.2 5.7,6.4 0.4,5.1 -4.2,8.8 -10.7,8.8 z"
   id="path1435"
   inkscape:connector-curvature="0" />
</g>
<g
   class="st1"
   id="g1441"
   style="enable-background:new"
   transform="translate(-304.6,-26.040381)">
	<path
   d="m 762.7,111.8 v 6.6 h -3.5 v -6.6 h -12.1 l -0.3,-2.9 10.8,-17.3 h 5 v 17.2 h 4.5 v 3.2 h -4.5 v -0.2 z m -3.6,-17.2 v 0 l -8.9,14 c 2.4,0 7.2,0 8.9,0 z"
   id="path1439"
   inkscape:connector-curvature="0" />
</g>
<g
   class="st1"
   id="g1445"
   style="enable-background:new"
   transform="translate(-304.6,-26.040381)">
	<path
   d="m 832.5,118.7 c -1.2,0 -3,-0.2 -4.4,-0.3 l 0.3,-3 c 1.3,0.3 3,0.5 4.4,0.5 4.7,0 7.4,-2.7 7.4,-5.9 0,-3.4 -2.7,-5.2 -7.1,-5.2 -1.5,0 -3,0.2 -4,0.3 V 91.6 h 13.8 V 95 h -10.6 v 6.9 c 0.7,0 1.3,0 1.9,0 6.6,0 9.8,3.4 9.8,7.6 0.1,5.2 -4.6,9.2 -11.5,9.2 z"
   id="path1443"
   inkscape:connector-curvature="0" />
</g>
<g
   class="st1"
   id="g1449"
   style="enable-background:new"
   transform="translate(-304.6,-26.040381)">
	<path
   d="m 914.8,115.5 c -5.6,0 -8.9,-4.2 -8.9,-11.3 0,-11.3 5.6,-16 13.1,-16 0.8,0 1.7,0 2.4,0.2 v 3.2 c -0.8,-0.2 -1.7,-0.2 -2.7,-0.2 -5,0 -7.9,3 -8.9,8.4 -0.2,0.5 -0.2,1.2 -0.3,2 v 0 c 1.3,-2.2 3.7,-3.4 6.2,-3.4 5.2,0 8.1,3.4 8.1,7.7 -0.1,5.5 -3.6,9.4 -9,9.4 z m 0.2,-14.3 c -3.2,0 -5.2,2.9 -5.2,5 0,3.2 1.9,6.1 5.4,6.1 3.2,0 5,-2.4 5,-5.9 0,-3 -1.8,-5.2 -5.2,-5.2 z"
   id="path1447"
   inkscape:connector-curvature="0" />
</g>

<g
   class="st1"
   id="g1455"
   style="enable-background:new"
   transform="translate(-304.6,-26.040381)">
	<path
   d="m 380.4,183.3 c -5.2,0 -9.8,-3 -9.8,-12.1 0,-7.9 4.7,-12.3 10.3,-12.3 5,0 9.8,3 9.8,12.1 0,8 -4.7,12.3 -10.3,12.3 z m 0.2,-21.5 c -3.2,0 -6.2,2.9 -6.2,9.1 0,6.6 2.5,9.4 6.2,9.4 3.2,0 6.2,-2.7 6.2,-9.1 0.2,-6.5 -2.3,-9.4 -6.2,-9.4 z"
   id="path1453"
   inkscape:connector-curvature="0" />
</g>
<g
   class="st1"
   id="g1459"
   style="enable-background:new"
   transform="translate(-304.6,-26.040381)">
	<path
   d="m 373,261.8 v -3.2 h 7.2 v -16.7 l -6.7,4.4 -1.2,-3 8.8,-5.4 h 3 v 20.5 h 6.2 v 3.2 H 373 Z"
   id="path1457"
   inkscape:connector-curvature="0" />
</g>
<g
   class="st1"
   id="g1463"
   style="enable-background:new"
   transform="translate(-304.6,-26.040381)">
	<path
   d="m 372.2,340.5 v -2.9 l 5.6,-5 c 5,-4.2 6.2,-5.9 6.2,-8.6 0,-2.5 -1.5,-4.4 -4.9,-4.4 -2.4,0 -4.4,1 -5.7,2 l -0.8,-3.2 c 2,-1.2 4.4,-2 7.2,-2 5.2,0 8.1,3 8.1,7.1 0,3.4 -1.7,5.9 -6.1,9.6 l -4.7,4 h -0.2 c 1.9,-0.2 6.2,-0.2 12,-0.2 v 3.4 h -16.7 z"
   id="path1461"
   inkscape:connector-curvature="0" />
</g>
<g
   class="st1"
   id="g1467"
   style="enable-background:new"
   transform="translate(-304.6,-26.040381)">
	<path
   d="m 377.4,423 c -1.7,0 -3.5,-0.2 -4.9,-0.7 l 0.7,-3.2 c 1.3,0.5 3,0.8 4.7,0.8 4.2,0 6.9,-2.4 6.9,-5.2 0,-3 -2.4,-4.9 -6.6,-4.9 -1.3,0 -2.4,0 -3.5,0.2 v -3 h 0.9 c 5.6,0 8.4,-1.7 8.4,-4.9 0,-2.5 -1.9,-3.9 -4.9,-3.9 -2.2,0 -4,0.7 -5.6,1.5 l -0.7,-3 c 2,-0.8 4.2,-1.3 6.7,-1.3 5.2,0 7.9,2.5 7.9,6.2 0,3 -1.9,5.2 -4.9,6.2 v 0 c 3.2,0.3 5.7,3.2 5.7,6.4 0.5,5.1 -4.2,8.8 -10.8,8.8 z"
   id="path1465"
   inkscape:connector-curvature="0" />
</g>
<g
   class="st1"
   id="g1471"
   style="enable-background:new"
   transform="translate(-304.6,-26.040381)">
	<path
   d="m 386.2,494.7 v 6.6 h -3.6 v -6.6 h -12.1 l -0.3,-2.9 10.9,-17.3 h 5 v 17.2 h 4.5 v 3.2 h -4.5 v -0.2 z m -3.4,-17 v 0 l -8.9,14 c 2.4,0 7.2,0 8.9,0 z"
   id="path1469"
   inkscape:connector-curvature="0" />
</g>
<g
   class="st1"
   id="g1475"
   style="enable-background:new"
   transform="translate(-304.6,-26.040381)">
	<path
   d="m 377.2,580.6 c -1.2,0 -3,-0.2 -4.4,-0.3 l 0.3,-3 c 1.3,0.3 3,0.5 4.4,0.5 4.7,0 7.4,-2.7 7.4,-5.9 0,-3.4 -2.7,-5.2 -7.1,-5.2 -1.5,0 -3,0.2 -4,0.3 v -13.5 h 13.8 v 3.4 h -10.5 v 6.9 c 0.7,0 1.3,0 1.9,0 6.6,0 9.8,3.4 9.8,7.6 0.1,5.1 -4.7,9.2 -11.6,9.2 z"
   id="path1473"
   inkscape:connector-curvature="0" />
</g>
<g
   class="st1"
   id="g1479"
   style="enable-background:new"
   transform="translate(-304.6,-26.040381)">
	<path
   d="m 380.8,656.1 c -5.6,0 -8.9,-4.2 -8.9,-11.3 0,-11.3 5.6,-16 13.1,-16 0.8,0 1.7,0 2.4,0.2 v 3.2 c -0.8,-0.2 -1.7,-0.2 -2.7,-0.2 -5,0 -7.9,3 -8.9,8.4 -0.2,0.5 -0.2,1.2 -0.3,2 v 0 c 1.3,-2.2 3.7,-3.4 6.2,-3.4 5.2,0 8.1,3.4 8.1,7.7 -0.1,5.7 -3.8,9.4 -9,9.4 z m 0.1,-14.1 c -3.2,0 -5.2,2.9 -5.2,5 0,3.2 1.9,6.1 5.4,6.1 3.2,0 5,-2.4 5,-5.9 -0.1,-3 -1.8,-5.2 -5.2,-5.2 z"
   id="path1477"
   inkscape:connector-curvature="0" />
</g>
<line
   class="st2"
   x1="131.89999"
   y1="139.25963"
   x2="116.4"
   y2="139.25963"
   id="line1481"
   style="fill:none;stroke:#000000;stroke-width:1.29999995" />
<line
   class="st2"
   x1="131.89999"
   y1="220.95963"
   x2="116.4"
   y2="220.95963"
   id="line1483"
   style="fill:none;stroke:#000000;stroke-width:1.29999995" />
<line
   class="st2"
   x1="131.89999"
   y1="302.05963"
   x2="116.4"
   y2="302.05963"
   id="line1485"
   style="fill:none;stroke:#000000;stroke-width:1.29999995" />
<line
   class="st2"
   x1="131.89999"
   y1="383.15964"
   x2="116.4"
   y2="383.15964"
   id="line1487"
   style="fill:none;stroke:#000000;stroke-width:1.29999995" />
<line
   class="st2"
   x1="131.89999"
   y1="464.75961"
   x2="116.4"
   y2="464.75961"
   id="line1489"
   style="fill:none;stroke:#000000;stroke-width:1.29999995" />
<line
   class="st2"
   x1="131.89999"
   y1="547.25958"
   x2="116.4"
   y2="547.25958"
   id="line1491"
   style="fill:none;stroke:#000000;stroke-width:1.29999995" />
<line
   class="st2"
   x1="131.89999"
   y1="626.85962"
   x2="116.4"
   y2="626.85962"
   id="line1493"
   style="fill:none;stroke:#000000;stroke-width:1.29999995" />
<line
   class="st2"
   x1="617.5"
   y1="139.15962"
   x2="617.5"
   y2="123.65961"
   id="line1495"
   style="fill:none;stroke:#000000;stroke-width:1.29999995" />
<line
   class="st2"
   x1="535.5"
   y1="139.15962"
   x2="535.5"
   y2="123.65961"
   id="line1497"
   style="fill:none;stroke:#000000;stroke-width:1.29999995" />
<line
   class="st2"
   x1="454.69998"
   y1="139.15962"
   x2="454.69998"
   y2="123.65961"
   id="line1499"
   style="fill:none;stroke:#000000;stroke-width:1.29999995" />
<line
   class="st2"
   x1="373.19998"
   y1="139.15962"
   x2="373.19998"
   y2="123.65961"
   id="line1501"
   style="fill:none;stroke:#000000;stroke-width:1.29999995" />
<line
   class="st2"
   x1="291.99997"
   y1="139.15962"
   x2="291.99997"
   y2="123.65961"
   id="line1503"
   style="fill:none;stroke:#000000;stroke-width:1.29999995" />
<line
   class="st2"
   x1="209.49997"
   y1="139.15962"
   x2="209.49997"
   y2="123.65961"
   id="line1505"
   style="fill:none;stroke:#000000;stroke-width:1.29999995" />
<line
   class="st2"
   x1="130.69998"
   y1="139.15962"
   x2="130.69998"
   y2="123.65961"
   id="line1507"
   style="fill:none;stroke:#000000;stroke-width:1.29999995" />
<polyline
   class="st3"
   points="324.6,314.5 315,324 305.4,314.5 "
   id="polyline1509"
   style="fill:#ffffff;stroke:#000000;stroke-width:1.29999995"
   transform="translate(-304.6,-26.040381)" />
<line
   class="st2"
   x1="10.4"
   y1="297.95963"
   x2="10.4"
   y2="183.85962"
   id="line1511"
   style="fill:none;stroke:#000000;stroke-width:1.29999995" />
<polyline
   class="st3"
   points="583.9,26.5 593.5,36.1 583.9,45.7 "
   id="polyline1513"
   style="fill:#ffffff;stroke:#000000;stroke-width:1.29999995"
   transform="translate(-304.6,-26.040381)" />
<line
   class="st2"
   x1="291.10001"
   y1="10.059618"
   x2="176.79999"
   y2="10.059618"
   id="line1515"
   style="fill:none;stroke:#000000;stroke-width:1.29999995" />










</svg>