<?xml version="1.0" encoding="utf-8" standalone="no"?>
<!DOCTYPE svg PUBLIC "-//W3C//DTD SVG 1.1//EN"
  "http://www.w3.org/Graphics/SVG/1.1/DTD/svg11.dtd">
<!-- Created with matplotlib (https://matplotlib.org/) -->
<svg height="345.6pt" version="1.1" viewBox="0 0 460.8 345.6" width="460.8pt" xmlns="http://www.w3.org/2000/svg" xmlns:xlink="http://www.w3.org/1999/xlink">
 <metadata>
  <rdf:RDF xmlns:cc="http://creativecommons.org/ns#" xmlns:dc="http://purl.org/dc/elements/1.1/" xmlns:rdf="http://www.w3.org/1999/02/22-rdf-syntax-ns#">
   <cc:Work>
    <dc:type rdf:resource="http://purl.org/dc/dcmitype/StillImage"/>
    <dc:date>2021-01-24T11:54:36.065545</dc:date>
    <dc:format>image/svg+xml</dc:format>
    <dc:creator>
     <cc:Agent>
      <dc:title>Matplotlib v3.3.2, https://matplotlib.org/</dc:title>
     </cc:Agent>
    </dc:creator>
   </cc:Work>
  </rdf:RDF>
 </metadata>
 <defs>
  <style type="text/css">*{stroke-linecap:butt;stroke-linejoin:round;}</style>
 </defs>
 <g id="figure_1">
  <g id="patch_1">
   <path d="M 0 345.6 
L 460.8 345.6 
L 460.8 0 
L 0 0 
z
" style="fill:#ffffff;"/>
  </g>
  <g id="axes_1">
   <g id="patch_2">
    <path d="M 57.6 307.584 
L 219.927273 307.584 
L 219.927273 41.472 
L 57.6 41.472 
z
" style="fill:#ffffff;"/>
   </g>
   <g id="matplotlib.axis_1">
    <g id="xtick_1">
     <g id="line2d_1">
      <defs>
       <path d="M 0 0 
L 0 3.5 
" id="m735022546b" style="stroke:#000000;stroke-width:0.8;"/>
      </defs>
      <g>
       <use style="stroke:#000000;stroke-width:0.8;" x="64.236953" xlink:href="#m735022546b" y="307.584"/>
      </g>
     </g>
     <g id="text_1">
      <!-- 0.0 -->
      <g transform="translate(56.285391 322.182437)scale(0.1 -0.1)">
       <defs>
        <path d="M 31.78125 66.40625 
Q 24.171875 66.40625 20.328125 58.90625 
Q 16.5 51.421875 16.5 36.375 
Q 16.5 21.390625 20.328125 13.890625 
Q 24.171875 6.390625 31.78125 6.390625 
Q 39.453125 6.390625 43.28125 13.890625 
Q 47.125 21.390625 47.125 36.375 
Q 47.125 51.421875 43.28125 58.90625 
Q 39.453125 66.40625 31.78125 66.40625 
z
M 31.78125 74.21875 
Q 44.046875 74.21875 50.515625 64.515625 
Q 56.984375 54.828125 56.984375 36.375 
Q 56.984375 17.96875 50.515625 8.265625 
Q 44.046875 -1.421875 31.78125 -1.421875 
Q 19.53125 -1.421875 13.0625 8.265625 
Q 6.59375 17.96875 6.59375 36.375 
Q 6.59375 54.828125 13.0625 64.515625 
Q 19.53125 74.21875 31.78125 74.21875 
z
" id="DejaVuSans-48"/>
        <path d="M 10.6875 12.40625 
L 21 12.40625 
L 21 0 
L 10.6875 0 
z
" id="DejaVuSans-46"/>
       </defs>
       <use xlink:href="#DejaVuSans-48"/>
       <use x="63.623047" xlink:href="#DejaVuSans-46"/>
       <use x="95.410156" xlink:href="#DejaVuSans-48"/>
      </g>
     </g>
    </g>
    <g id="xtick_2">
     <g id="line2d_2">
      <g>
       <use style="stroke:#000000;stroke-width:0.8;" x="101.314905" xlink:href="#m735022546b" y="307.584"/>
      </g>
     </g>
     <g id="text_2">
      <!-- 0.5 -->
      <g transform="translate(93.363343 322.182437)scale(0.1 -0.1)">
       <defs>
        <path d="M 10.796875 72.90625 
L 49.515625 72.90625 
L 49.515625 64.59375 
L 19.828125 64.59375 
L 19.828125 46.734375 
Q 21.96875 47.46875 24.109375 47.828125 
Q 26.265625 48.1875 28.421875 48.1875 
Q 40.625 48.1875 47.75 41.5 
Q 54.890625 34.8125 54.890625 23.390625 
Q 54.890625 11.625 47.5625 5.09375 
Q 40.234375 -1.421875 26.90625 -1.421875 
Q 22.3125 -1.421875 17.546875 -0.640625 
Q 12.796875 0.140625 7.71875 1.703125 
L 7.71875 11.625 
Q 12.109375 9.234375 16.796875 8.0625 
Q 21.484375 6.890625 26.703125 6.890625 
Q 35.15625 6.890625 40.078125 11.328125 
Q 45.015625 15.765625 45.015625 23.390625 
Q 45.015625 31 40.078125 35.4375 
Q 35.15625 39.890625 26.703125 39.890625 
Q 22.75 39.890625 18.8125 39.015625 
Q 14.890625 38.140625 10.796875 36.28125 
z
" id="DejaVuSans-53"/>
       </defs>
       <use xlink:href="#DejaVuSans-48"/>
       <use x="63.623047" xlink:href="#DejaVuSans-46"/>
       <use x="95.410156" xlink:href="#DejaVuSans-53"/>
      </g>
     </g>
    </g>
    <g id="xtick_3">
     <g id="line2d_3">
      <g>
       <use style="stroke:#000000;stroke-width:0.8;" x="138.392857" xlink:href="#m735022546b" y="307.584"/>
      </g>
     </g>
     <g id="text_3">
      <!-- 1.0 -->
      <g transform="translate(130.441294 322.182437)scale(0.1 -0.1)">
       <defs>
        <path d="M 12.40625 8.296875 
L 28.515625 8.296875 
L 28.515625 63.921875 
L 10.984375 60.40625 
L 10.984375 69.390625 
L 28.421875 72.90625 
L 38.28125 72.90625 
L 38.28125 8.296875 
L 54.390625 8.296875 
L 54.390625 0 
L 12.40625 0 
z
" id="DejaVuSans-49"/>
       </defs>
       <use xlink:href="#DejaVuSans-49"/>
       <use x="63.623047" xlink:href="#DejaVuSans-46"/>
       <use x="95.410156" xlink:href="#DejaVuSans-48"/>
      </g>
     </g>
    </g>
    <g id="xtick_4">
     <g id="line2d_4">
      <g>
       <use style="stroke:#000000;stroke-width:0.8;" x="175.470809" xlink:href="#m735022546b" y="307.584"/>
      </g>
     </g>
     <g id="text_4">
      <!-- 1.5 -->
      <g transform="translate(167.519246 322.182437)scale(0.1 -0.1)">
       <use xlink:href="#DejaVuSans-49"/>
       <use x="63.623047" xlink:href="#DejaVuSans-46"/>
       <use x="95.410156" xlink:href="#DejaVuSans-53"/>
      </g>
     </g>
    </g>
    <g id="xtick_5">
     <g id="line2d_5">
      <g>
       <use style="stroke:#000000;stroke-width:0.8;" x="212.54876" xlink:href="#m735022546b" y="307.584"/>
      </g>
     </g>
     <g id="text_5">
      <!-- 2.0 -->
      <g transform="translate(204.597198 322.182437)scale(0.1 -0.1)">
       <defs>
        <path d="M 19.1875 8.296875 
L 53.609375 8.296875 
L 53.609375 0 
L 7.328125 0 
L 7.328125 8.296875 
Q 12.9375 14.109375 22.625 23.890625 
Q 32.328125 33.6875 34.8125 36.53125 
Q 39.546875 41.84375 41.421875 45.53125 
Q 43.3125 49.21875 43.3125 52.78125 
Q 43.3125 58.59375 39.234375 62.25 
Q 35.15625 65.921875 28.609375 65.921875 
Q 23.96875 65.921875 18.8125 64.3125 
Q 13.671875 62.703125 7.8125 59.421875 
L 7.8125 69.390625 
Q 13.765625 71.78125 18.9375 73 
Q 24.125 74.21875 28.421875 74.21875 
Q 39.75 74.21875 46.484375 68.546875 
Q 53.21875 62.890625 53.21875 53.421875 
Q 53.21875 48.921875 51.53125 44.890625 
Q 49.859375 40.875 45.40625 35.40625 
Q 44.1875 33.984375 37.640625 27.21875 
Q 31.109375 20.453125 19.1875 8.296875 
z
" id="DejaVuSans-50"/>
       </defs>
       <use xlink:href="#DejaVuSans-50"/>
       <use x="63.623047" xlink:href="#DejaVuSans-46"/>
       <use x="95.410156" xlink:href="#DejaVuSans-48"/>
      </g>
     </g>
    </g>
   </g>
   <g id="matplotlib.axis_2">
    <g id="ytick_1">
     <g id="line2d_6">
      <defs>
       <path d="M 0 0 
L -3.5 0 
" id="m1b0345376d" style="stroke:#000000;stroke-width:0.8;"/>
      </defs>
      <g>
       <use style="stroke:#000000;stroke-width:0.8;" x="57.6" xlink:href="#m1b0345376d" y="288.885673"/>
      </g>
     </g>
     <g id="text_6">
      <!-- 0 -->
      <g transform="translate(44.2375 292.684892)scale(0.1 -0.1)">
       <use xlink:href="#DejaVuSans-48"/>
      </g>
     </g>
    </g>
    <g id="ytick_2">
     <g id="line2d_7">
      <g>
       <use style="stroke:#000000;stroke-width:0.8;" x="57.6" xlink:href="#m1b0345376d" y="229.835922"/>
      </g>
     </g>
     <g id="text_7">
      <!-- 20 -->
      <g transform="translate(37.875 233.63514)scale(0.1 -0.1)">
       <use xlink:href="#DejaVuSans-50"/>
       <use x="63.623047" xlink:href="#DejaVuSans-48"/>
      </g>
     </g>
    </g>
    <g id="ytick_3">
     <g id="line2d_8">
      <g>
       <use style="stroke:#000000;stroke-width:0.8;" x="57.6" xlink:href="#m1b0345376d" y="170.78617"/>
      </g>
     </g>
     <g id="text_8">
      <!-- 40 -->
      <g transform="translate(37.875 174.585389)scale(0.1 -0.1)">
       <defs>
        <path d="M 37.796875 64.3125 
L 12.890625 25.390625 
L 37.796875 25.390625 
z
M 35.203125 72.90625 
L 47.609375 72.90625 
L 47.609375 25.390625 
L 58.015625 25.390625 
L 58.015625 17.1875 
L 47.609375 17.1875 
L 47.609375 0 
L 37.796875 0 
L 37.796875 17.1875 
L 4.890625 17.1875 
L 4.890625 26.703125 
z
" id="DejaVuSans-52"/>
       </defs>
       <use xlink:href="#DejaVuSans-52"/>
       <use x="63.623047" xlink:href="#DejaVuSans-48"/>
      </g>
     </g>
    </g>
    <g id="ytick_4">
     <g id="line2d_9">
      <g>
       <use style="stroke:#000000;stroke-width:0.8;" x="57.6" xlink:href="#m1b0345376d" y="111.736419"/>
      </g>
     </g>
     <g id="text_9">
      <!-- 60 -->
      <g transform="translate(37.875 115.535638)scale(0.1 -0.1)">
       <defs>
        <path d="M 33.015625 40.375 
Q 26.375 40.375 22.484375 35.828125 
Q 18.609375 31.296875 18.609375 23.390625 
Q 18.609375 15.53125 22.484375 10.953125 
Q 26.375 6.390625 33.015625 6.390625 
Q 39.65625 6.390625 43.53125 10.953125 
Q 47.40625 15.53125 47.40625 23.390625 
Q 47.40625 31.296875 43.53125 35.828125 
Q 39.65625 40.375 33.015625 40.375 
z
M 52.59375 71.296875 
L 52.59375 62.3125 
Q 48.875 64.0625 45.09375 64.984375 
Q 41.3125 65.921875 37.59375 65.921875 
Q 27.828125 65.921875 22.671875 59.328125 
Q 17.53125 52.734375 16.796875 39.40625 
Q 19.671875 43.65625 24.015625 45.921875 
Q 28.375 48.1875 33.59375 48.1875 
Q 44.578125 48.1875 50.953125 41.515625 
Q 57.328125 34.859375 57.328125 23.390625 
Q 57.328125 12.15625 50.6875 5.359375 
Q 44.046875 -1.421875 33.015625 -1.421875 
Q 20.359375 -1.421875 13.671875 8.265625 
Q 6.984375 17.96875 6.984375 36.375 
Q 6.984375 53.65625 15.1875 63.9375 
Q 23.390625 74.21875 37.203125 74.21875 
Q 40.921875 74.21875 44.703125 73.484375 
Q 48.484375 72.75 52.59375 71.296875 
z
" id="DejaVuSans-54"/>
       </defs>
       <use xlink:href="#DejaVuSans-54"/>
       <use x="63.623047" xlink:href="#DejaVuSans-48"/>
      </g>
     </g>
    </g>
    <g id="ytick_5">
     <g id="line2d_10">
      <g>
       <use style="stroke:#000000;stroke-width:0.8;" x="57.6" xlink:href="#m1b0345376d" y="52.686668"/>
      </g>
     </g>
     <g id="text_10">
      <!-- 80 -->
      <g transform="translate(37.875 56.485886)scale(0.1 -0.1)">
       <defs>
        <path d="M 31.78125 34.625 
Q 24.75 34.625 20.71875 30.859375 
Q 16.703125 27.09375 16.703125 20.515625 
Q 16.703125 13.921875 20.71875 10.15625 
Q 24.75 6.390625 31.78125 6.390625 
Q 38.8125 6.390625 42.859375 10.171875 
Q 46.921875 13.96875 46.921875 20.515625 
Q 46.921875 27.09375 42.890625 30.859375 
Q 38.875 34.625 31.78125 34.625 
z
M 21.921875 38.8125 
Q 15.578125 40.375 12.03125 44.71875 
Q 8.5 49.078125 8.5 55.328125 
Q 8.5 64.0625 14.71875 69.140625 
Q 20.953125 74.21875 31.78125 74.21875 
Q 42.671875 74.21875 48.875 69.140625 
Q 55.078125 64.0625 55.078125 55.328125 
Q 55.078125 49.078125 51.53125 44.71875 
Q 48 40.375 41.703125 38.8125 
Q 48.828125 37.15625 52.796875 32.3125 
Q 56.78125 27.484375 56.78125 20.515625 
Q 56.78125 9.90625 50.3125 4.234375 
Q 43.84375 -1.421875 31.78125 -1.421875 
Q 19.734375 -1.421875 13.25 4.234375 
Q 6.78125 9.90625 6.78125 20.515625 
Q 6.78125 27.484375 10.78125 32.3125 
Q 14.796875 37.15625 21.921875 38.8125 
z
M 18.3125 54.390625 
Q 18.3125 48.734375 21.84375 45.5625 
Q 25.390625 42.390625 31.78125 42.390625 
Q 38.140625 42.390625 41.71875 45.5625 
Q 45.3125 48.734375 45.3125 54.390625 
Q 45.3125 60.0625 41.71875 63.234375 
Q 38.140625 66.40625 31.78125 66.40625 
Q 25.390625 66.40625 21.84375 63.234375 
Q 18.3125 60.0625 18.3125 54.390625 
z
" id="DejaVuSans-56"/>
       </defs>
       <use xlink:href="#DejaVuSans-56"/>
       <use x="63.623047" xlink:href="#DejaVuSans-48"/>
      </g>
     </g>
    </g>
   </g>
   <g id="line2d_11">
    <path clip-path="url(#p9f7a8b14f2)" d="M 64.978512 53.568 
L 66.469121 55.313126 
L 67.95973 57.023523 
L 69.450338 58.699882 
L 70.940947 60.342882 
L 72.431555 61.953185 
L 73.922164 63.531443 
L 75.412772 65.078293 
L 76.903381 66.59436 
L 78.393989 68.080256 
L 79.884598 69.536583 
L 81.375207 70.963929 
L 82.865815 72.36287 
L 84.356424 73.733971 
L 85.847032 75.077787 
L 87.337641 76.394861 
L 88.828249 77.685725 
L 90.318858 78.9509 
L 91.809467 80.190897 
L 93.300075 81.406218 
L 94.790684 82.597354 
L 96.281292 83.764786 
L 97.771901 84.908986 
L 99.262509 86.030415 
L 100.753118 87.129528 
L 102.243727 88.206768 
L 103.734335 89.262571 
L 105.224944 90.297363 
L 106.715552 91.311562 
L 108.206161 92.305578 
L 109.696769 93.279813 
L 111.187378 94.234661 
L 112.677986 95.170506 
L 114.168595 96.087728 
L 115.659204 96.986697 
L 117.149812 97.867776 
L 118.640421 98.731322 
L 120.131029 99.577682 
L 121.621638 100.4072 
L 123.112246 101.22021 
L 124.602855 102.017041 
L 126.093464 102.798015 
L 127.584072 103.563447 
L 129.074681 104.313646 
L 130.565289 105.048917 
L 132.055898 105.769555 
L 133.546506 106.475852 
L 135.037115 107.168094 
L 136.527724 107.84656 
L 138.018332 108.511525 
L 139.508941 109.163256 
L 140.999549 109.802017 
L 142.490158 110.428067 
L 143.980766 111.041659 
L 145.471375 111.64304 
L 146.961983 112.232453 
L 148.452592 112.810136 
L 149.943201 113.376324 
L 151.433809 113.931244 
L 152.924418 114.475121 
L 154.415026 115.008175 
L 155.905635 115.530621 
L 157.396243 116.04267 
L 158.886852 116.544529 
L 160.377461 117.0364 
L 161.868069 117.518484 
L 163.358678 117.990974 
L 164.849286 118.454061 
L 166.339895 118.907932 
L 167.830503 119.352772 
L 169.321112 119.788759 
L 170.811721 120.216069 
L 172.302329 120.634876 
L 173.792938 121.045349 
L 175.283546 121.447653 
L 176.774155 121.841951 
L 178.264763 122.228402 
L 179.755372 122.607163 
L 181.24598 122.978386 
L 182.736589 123.342222 
L 184.227198 123.698818 
L 185.717806 124.048317 
L 187.208415 124.390861 
L 188.699023 124.726588 
L 190.189632 125.055634 
L 191.68024 125.378132 
L 193.170849 125.694212 
L 194.661458 126.004003 
L 196.152066 126.307628 
L 197.642675 126.605211 
L 199.133283 126.896872 
L 200.623892 127.182728 
L 202.1145 127.462897 
L 203.605109 127.737489 
L 205.095718 128.006617 
L 206.586326 128.27039 
L 208.076935 128.528913 
L 209.567543 128.782292 
L 211.058152 129.030628 
L 212.54876 129.274022 
" style="fill:none;stroke:#0000ff;stroke-linecap:square;stroke-width:1.5;"/>
   </g>
   <g id="line2d_12">
    <path clip-path="url(#p9f7a8b14f2)" d="M 64.978512 295.488 
L 66.469121 272.713056 
L 67.95973 262.141746 
L 69.450338 255.181795 
L 70.940947 249.984477 
L 72.431555 245.835034 
L 73.922164 242.381005 
L 75.412772 239.422415 
L 76.903381 236.834802 
L 78.393989 234.535412 
L 79.884598 232.466425 
L 81.375207 230.585844 
L 82.865815 228.862201 
L 84.356424 227.271307 
L 85.847032 225.79417 
L 87.337641 224.415601 
L 88.828249 223.123264 
L 90.318858 221.907003 
L 91.809467 220.758357 
L 93.300075 219.670204 
L 94.790684 218.636488 
L 96.281292 217.652021 
L 97.771901 216.712324 
L 99.262509 215.813501 
L 100.753118 214.952144 
L 102.243727 214.125254 
L 103.734335 213.330179 
L 105.224944 212.56456 
L 106.715552 211.826294 
L 108.206161 211.113492 
L 109.696769 210.424457 
L 111.187378 209.757654 
L 112.677986 209.111694 
L 114.168595 208.485313 
L 115.659204 207.877359 
L 117.149812 207.286779 
L 118.640421 206.712608 
L 120.131029 206.153957 
L 121.621638 205.61001 
L 123.112246 205.080013 
L 124.602855 204.563269 
L 126.093464 204.05913 
L 127.584072 203.566996 
L 129.074681 203.086308 
L 130.565289 202.616547 
L 132.055898 202.157227 
L 133.546506 201.707893 
L 135.037115 201.268121 
L 136.527724 200.837512 
L 138.018332 200.415691 
L 139.508941 200.002309 
L 140.999549 199.597032 
L 142.490158 199.199551 
L 143.980766 198.809569 
L 145.471375 198.426811 
L 146.961983 198.051012 
L 148.452592 197.681925 
L 149.943201 197.319313 
L 151.433809 196.962954 
L 152.924418 196.612636 
L 154.415026 196.268156 
L 155.905635 195.929325 
L 157.396243 195.595959 
L 158.886852 195.267885 
L 160.377461 194.944937 
L 161.868069 194.626958 
L 163.358678 194.313798 
L 164.849286 194.005312 
L 166.339895 193.701362 
L 167.830503 193.401818 
L 169.321112 193.106554 
L 170.811721 192.815449 
L 172.302329 192.528387 
L 173.792938 192.245257 
L 175.283546 191.965954 
L 176.774155 191.690375 
L 178.264763 191.418423 
L 179.755372 191.150002 
L 181.24598 190.885023 
L 182.736589 190.623399 
L 184.227198 190.365044 
L 185.717806 190.10988 
L 187.208415 189.857828 
L 188.699023 189.608812 
L 190.189632 189.362761 
L 191.68024 189.119605 
L 193.170849 188.879277 
L 194.661458 188.641711 
L 196.152066 188.406845 
L 197.642675 188.174617 
L 199.133283 187.944971 
L 200.623892 187.717848 
L 202.1145 187.493194 
L 203.605109 187.270955 
L 205.095718 187.051081 
L 206.586326 186.833522 
L 208.076935 186.618229 
L 209.567543 186.405155 
L 211.058152 186.194256 
L 212.54876 185.985487 
" style="fill:none;stroke:#ff0000;stroke-linecap:square;stroke-width:1.5;"/>
   </g>
   <g id="patch_3">
    <path d="M 57.6 307.584 
L 57.6 41.472 
" style="fill:none;stroke:#000000;stroke-linecap:square;stroke-linejoin:miter;stroke-width:0.8;"/>
   </g>
   <g id="patch_4">
    <path d="M 219.927273 307.584 
L 219.927273 41.472 
" style="fill:none;stroke:#000000;stroke-linecap:square;stroke-linejoin:miter;stroke-width:0.8;"/>
   </g>
   <g id="patch_5">
    <path d="M 57.6 307.584 
L 219.927273 307.584 
" style="fill:none;stroke:#000000;stroke-linecap:square;stroke-linejoin:miter;stroke-width:0.8;"/>
   </g>
   <g id="patch_6">
    <path d="M 57.6 41.472 
L 219.927273 41.472 
" style="fill:none;stroke:#000000;stroke-linecap:square;stroke-linejoin:miter;stroke-width:0.8;"/>
   </g>
  </g>
  <g id="axes_2">
   <g id="patch_7">
    <path d="M 252.392727 307.584 
L 414.72 307.584 
L 414.72 41.472 
L 252.392727 41.472 
z
" style="fill:#ffffff;"/>
   </g>
   <g id="matplotlib.axis_3">
    <g id="xtick_6">
     <g id="line2d_13">
      <g>
       <use style="stroke:#000000;stroke-width:0.8;" x="259.771141" xlink:href="#m735022546b" y="307.584"/>
      </g>
     </g>
     <g id="text_11">
      <!-- 0 -->
      <g transform="translate(256.589891 322.182437)scale(0.1 -0.1)">
       <use xlink:href="#DejaVuSans-48"/>
      </g>
     </g>
    </g>
    <g id="xtick_7">
     <g id="line2d_14">
      <g>
       <use style="stroke:#000000;stroke-width:0.8;" x="308.961257" xlink:href="#m735022546b" y="307.584"/>
      </g>
     </g>
     <g id="text_12">
      <!-- 5 -->
      <g transform="translate(305.780007 322.182437)scale(0.1 -0.1)">
       <use xlink:href="#DejaVuSans-53"/>
      </g>
     </g>
    </g>
    <g id="xtick_8">
     <g id="line2d_15">
      <g>
       <use style="stroke:#000000;stroke-width:0.8;" x="358.151372" xlink:href="#m735022546b" y="307.584"/>
      </g>
     </g>
     <g id="text_13">
      <!-- 10 -->
      <g transform="translate(351.788872 322.182437)scale(0.1 -0.1)">
       <use xlink:href="#DejaVuSans-49"/>
       <use x="63.623047" xlink:href="#DejaVuSans-48"/>
      </g>
     </g>
    </g>
    <g id="xtick_9">
     <g id="line2d_16">
      <g>
       <use style="stroke:#000000;stroke-width:0.8;" x="407.341488" xlink:href="#m735022546b" y="307.584"/>
      </g>
     </g>
     <g id="text_14">
      <!-- 15 -->
      <g transform="translate(400.978988 322.182437)scale(0.1 -0.1)">
       <use xlink:href="#DejaVuSans-49"/>
       <use x="63.623047" xlink:href="#DejaVuSans-53"/>
      </g>
     </g>
    </g>
   </g>
   <g id="matplotlib.axis_4">
    <g id="ytick_6">
     <g id="line2d_17">
      <g>
       <use style="stroke:#000000;stroke-width:0.8;" x="252.392727" xlink:href="#m1b0345376d" y="307.584"/>
      </g>
     </g>
     <g id="text_15">
      <!-- 0 -->
      <g transform="translate(239.030227 311.383219)scale(0.1 -0.1)">
       <use xlink:href="#DejaVuSans-48"/>
      </g>
     </g>
    </g>
    <g id="ytick_7">
     <g id="line2d_18">
      <g>
       <use style="stroke:#000000;stroke-width:0.8;" x="252.392727" xlink:href="#m1b0345376d" y="274.32"/>
      </g>
     </g>
     <g id="text_16">
      <!-- 10 -->
      <g transform="translate(232.667727 278.119219)scale(0.1 -0.1)">
       <use xlink:href="#DejaVuSans-49"/>
       <use x="63.623047" xlink:href="#DejaVuSans-48"/>
      </g>
     </g>
    </g>
    <g id="ytick_8">
     <g id="line2d_19">
      <g>
       <use style="stroke:#000000;stroke-width:0.8;" x="252.392727" xlink:href="#m1b0345376d" y="241.056"/>
      </g>
     </g>
     <g id="text_17">
      <!-- 20 -->
      <g transform="translate(232.667727 244.855219)scale(0.1 -0.1)">
       <use xlink:href="#DejaVuSans-50"/>
       <use x="63.623047" xlink:href="#DejaVuSans-48"/>
      </g>
     </g>
    </g>
    <g id="ytick_9">
     <g id="line2d_20">
      <g>
       <use style="stroke:#000000;stroke-width:0.8;" x="252.392727" xlink:href="#m1b0345376d" y="207.792"/>
      </g>
     </g>
     <g id="text_18">
      <!-- 30 -->
      <g transform="translate(232.667727 211.591219)scale(0.1 -0.1)">
       <defs>
        <path d="M 40.578125 39.3125 
Q 47.65625 37.796875 51.625 33 
Q 55.609375 28.21875 55.609375 21.1875 
Q 55.609375 10.40625 48.1875 4.484375 
Q 40.765625 -1.421875 27.09375 -1.421875 
Q 22.515625 -1.421875 17.65625 -0.515625 
Q 12.796875 0.390625 7.625 2.203125 
L 7.625 11.71875 
Q 11.71875 9.328125 16.59375 8.109375 
Q 21.484375 6.890625 26.8125 6.890625 
Q 36.078125 6.890625 40.9375 10.546875 
Q 45.796875 14.203125 45.796875 21.1875 
Q 45.796875 27.640625 41.28125 31.265625 
Q 36.765625 34.90625 28.71875 34.90625 
L 20.21875 34.90625 
L 20.21875 43.015625 
L 29.109375 43.015625 
Q 36.375 43.015625 40.234375 45.921875 
Q 44.09375 48.828125 44.09375 54.296875 
Q 44.09375 59.90625 40.109375 62.90625 
Q 36.140625 65.921875 28.71875 65.921875 
Q 24.65625 65.921875 20.015625 65.03125 
Q 15.375 64.15625 9.8125 62.3125 
L 9.8125 71.09375 
Q 15.4375 72.65625 20.34375 73.4375 
Q 25.25 74.21875 29.59375 74.21875 
Q 40.828125 74.21875 47.359375 69.109375 
Q 53.90625 64.015625 53.90625 55.328125 
Q 53.90625 49.265625 50.4375 45.09375 
Q 46.96875 40.921875 40.578125 39.3125 
z
" id="DejaVuSans-51"/>
       </defs>
       <use xlink:href="#DejaVuSans-51"/>
       <use x="63.623047" xlink:href="#DejaVuSans-48"/>
      </g>
     </g>
    </g>
    <g id="ytick_10">
     <g id="line2d_21">
      <g>
       <use style="stroke:#000000;stroke-width:0.8;" x="252.392727" xlink:href="#m1b0345376d" y="174.528"/>
      </g>
     </g>
     <g id="text_19">
      <!-- 40 -->
      <g transform="translate(232.667727 178.327219)scale(0.1 -0.1)">
       <use xlink:href="#DejaVuSans-52"/>
       <use x="63.623047" xlink:href="#DejaVuSans-48"/>
      </g>
     </g>
    </g>
    <g id="ytick_11">
     <g id="line2d_22">
      <g>
       <use style="stroke:#000000;stroke-width:0.8;" x="252.392727" xlink:href="#m1b0345376d" y="141.264"/>
      </g>
     </g>
     <g id="text_20">
      <!-- 50 -->
      <g transform="translate(232.667727 145.063219)scale(0.1 -0.1)">
       <use xlink:href="#DejaVuSans-53"/>
       <use x="63.623047" xlink:href="#DejaVuSans-48"/>
      </g>
     </g>
    </g>
    <g id="ytick_12">
     <g id="line2d_23">
      <g>
       <use style="stroke:#000000;stroke-width:0.8;" x="252.392727" xlink:href="#m1b0345376d" y="108"/>
      </g>
     </g>
     <g id="text_21">
      <!-- 60 -->
      <g transform="translate(232.667727 111.799219)scale(0.1 -0.1)">
       <use xlink:href="#DejaVuSans-54"/>
       <use x="63.623047" xlink:href="#DejaVuSans-48"/>
      </g>
     </g>
    </g>
    <g id="ytick_13">
     <g id="line2d_24">
      <g>
       <use style="stroke:#000000;stroke-width:0.8;" x="252.392727" xlink:href="#m1b0345376d" y="74.736"/>
      </g>
     </g>
     <g id="text_22">
      <!-- 70 -->
      <g transform="translate(232.667727 78.535219)scale(0.1 -0.1)">
       <defs>
        <path d="M 8.203125 72.90625 
L 55.078125 72.90625 
L 55.078125 68.703125 
L 28.609375 0 
L 18.3125 0 
L 43.21875 64.59375 
L 8.203125 64.59375 
z
" id="DejaVuSans-55"/>
       </defs>
       <use xlink:href="#DejaVuSans-55"/>
       <use x="63.623047" xlink:href="#DejaVuSans-48"/>
      </g>
     </g>
    </g>
    <g id="ytick_14">
     <g id="line2d_25">
      <g>
       <use style="stroke:#000000;stroke-width:0.8;" x="252.392727" xlink:href="#m1b0345376d" y="41.472"/>
      </g>
     </g>
     <g id="text_23">
      <!-- 80 -->
      <g transform="translate(232.667727 45.271219)scale(0.1 -0.1)">
       <use xlink:href="#DejaVuSans-56"/>
       <use x="63.623047" xlink:href="#DejaVuSans-48"/>
      </g>
     </g>
    </g>
   </g>
   <g id="line2d_26">
    <path clip-path="url(#p6d4e726a4d)" d="M 259.77124 41.472998 
L 261.261848 55.503119 
L 262.752457 67.560675 
L 264.243065 77.922997 
L 265.733674 86.828429 
L 267.224282 94.481801 
L 268.714891 101.059147 
L 270.2055 106.71175 
L 271.696108 111.569626 
L 273.186717 115.744508 
L 274.677325 119.332422 
L 276.167934 122.415893 
L 277.658542 125.065844 
L 279.149151 127.343225 
L 280.63976 129.300417 
L 282.130368 130.982437 
L 283.620977 132.427974 
L 285.111585 133.670276 
L 286.602194 134.737916 
L 288.092802 135.655451 
L 289.583411 136.443985 
L 291.07402 137.121655 
L 292.564628 137.704049 
L 294.055237 138.20456 
L 295.545845 138.634702 
L 297.036454 139.004368 
L 298.527062 139.322061 
L 300.017671 139.595088 
L 301.508279 139.829729 
L 302.998888 140.031381 
L 304.489497 140.204681 
L 305.980105 140.353616 
L 307.470714 140.481611 
L 308.961322 140.591611 
L 310.451931 140.686146 
L 311.942539 140.767389 
L 313.433148 140.83721 
L 314.923757 140.897215 
L 316.414365 140.948783 
L 317.904974 140.993101 
L 319.395582 141.031188 
L 320.886191 141.06392 
L 322.376799 141.09205 
L 323.867408 141.116226 
L 325.358017 141.137002 
L 326.848625 141.154857 
L 328.339234 141.170202 
L 329.829842 141.18339 
L 331.320451 141.194723 
L 332.811059 141.204463 
L 334.301668 141.212834 
L 335.792276 141.220027 
L 337.282885 141.22621 
L 338.773494 141.231523 
L 340.264102 141.236089 
L 341.754711 141.240013 
L 343.245319 141.243386 
L 344.735928 141.246284 
L 346.226536 141.248775 
L 347.717145 141.250915 
L 349.207754 141.252755 
L 350.698362 141.254336 
L 352.188971 141.255695 
L 353.679579 141.256862 
L 355.170188 141.257866 
L 356.660796 141.258728 
L 358.151405 141.259469 
L 359.642014 141.260106 
L 361.132622 141.260654 
L 362.623231 141.261124 
L 364.113839 141.261529 
L 365.604448 141.261876 
L 367.095056 141.262175 
L 368.585665 141.262431 
L 370.076273 141.262652 
L 371.566882 141.262841 
L 373.057491 141.263004 
L 374.548099 141.263144 
L 376.038708 141.263265 
L 377.529316 141.263368 
L 379.019925 141.263457 
L 380.510533 141.263533 
L 382.001142 141.263599 
L 383.491751 141.263655 
L 384.982359 141.263704 
L 386.472968 141.263745 
L 387.963576 141.263781 
L 389.454185 141.263812 
L 390.944793 141.263838 
L 392.435402 141.263861 
L 393.926011 141.263881 
L 395.416619 141.263897 
L 396.907228 141.263912 
L 398.397836 141.263924 
L 399.888445 141.263935 
L 401.379053 141.263944 
L 402.869662 141.263952 
L 404.36027 141.263959 
L 405.850879 141.263964 
L 407.341488 141.263969 
" style="fill:none;stroke:#0000ff;stroke-linecap:square;stroke-width:1.5;"/>
   </g>
   <g id="line2d_27">
    <path clip-path="url(#p6d4e726a4d)" d="M 260.630927 346.6 
L 261.261848 251.730518 
L 262.752457 235.591493 
L 264.243065 226.150575 
L 265.733674 219.452084 
L 267.224282 214.256308 
L 268.714891 210.011038 
L 270.2055 206.421707 
L 271.696108 203.312482 
L 273.186717 200.569949 
L 274.677325 198.116668 
L 276.167934 195.897403 
L 277.658542 193.871372 
L 279.149151 192.007604 
L 280.63976 190.282023 
L 282.130368 188.675545 
L 283.620977 187.172785 
L 285.111585 185.761158 
L 286.602194 184.430241 
L 288.092802 183.171301 
L 289.583411 181.976951 
L 291.07402 180.840886 
L 292.564628 179.75768 
L 294.055237 178.722632 
L 295.545845 177.731643 
L 297.036454 176.781114 
L 298.527062 175.86787 
L 300.017671 174.989096 
L 301.508279 174.142284 
L 302.998888 173.325192 
L 304.489497 172.535803 
L 305.980105 171.7723 
L 307.470714 171.03304 
L 308.961322 170.316529 
L 310.451931 169.62141 
L 311.942539 168.946442 
L 313.433148 168.29049 
L 314.923757 167.652512 
L 316.414365 167.031548 
L 317.904974 166.426715 
L 319.395582 165.837196 
L 320.886191 165.262235 
L 322.376799 164.701129 
L 323.867408 164.153227 
L 325.358017 163.617921 
L 326.848625 163.094646 
L 328.339234 162.582872 
L 329.829842 162.082105 
L 331.320451 161.591882 
L 332.811059 161.111766 
L 334.301668 160.641351 
L 335.792276 160.180251 
L 337.282885 159.728106 
L 338.773494 159.284573 
L 340.264102 158.849331 
L 341.754711 158.422075 
L 343.245319 158.002518 
L 344.735928 157.590388 
L 346.226536 157.185425 
L 347.717145 156.787385 
L 349.207754 156.396035 
L 350.698362 156.011154 
L 352.188971 155.632531 
L 353.679579 155.259967 
L 355.170188 154.89327 
L 356.660796 154.532259 
L 358.151405 154.176759 
L 359.642014 153.826605 
L 361.132622 153.481639 
L 362.623231 153.141709 
L 364.113839 152.806671 
L 365.604448 152.476385 
L 367.095056 152.150718 
L 368.585665 151.829544 
L 370.076273 151.512739 
L 371.566882 151.200187 
L 373.057491 150.891775 
L 374.548099 150.587394 
L 376.038708 150.286941 
L 377.529316 149.990316 
L 379.019925 149.697422 
L 380.510533 149.408166 
L 382.001142 149.12246 
L 383.491751 148.840217 
L 384.982359 148.561354 
L 386.472968 148.285791 
L 387.963576 148.013451 
L 389.454185 147.74426 
L 390.944793 147.478145 
L 392.435402 147.215037 
L 393.926011 146.95487 
L 395.416619 146.697577 
L 396.907228 146.443096 
L 398.397836 146.191366 
L 399.888445 145.942328 
L 401.379053 145.695926 
L 402.869662 145.452104 
L 404.36027 145.210809 
L 405.850879 144.971988 
L 407.341488 144.735593 
" style="fill:none;stroke:#ff0000;stroke-linecap:square;stroke-width:1.5;"/>
   </g>
   <g id="patch_8">
    <path d="M 252.392727 307.584 
L 252.392727 41.472 
" style="fill:none;stroke:#000000;stroke-linecap:square;stroke-linejoin:miter;stroke-width:0.8;"/>
   </g>
   <g id="patch_9">
    <path d="M 414.72 307.584 
L 414.72 41.472 
" style="fill:none;stroke:#000000;stroke-linecap:square;stroke-linejoin:miter;stroke-width:0.8;"/>
   </g>
   <g id="patch_10">
    <path d="M 252.392727 307.584 
L 414.72 307.584 
" style="fill:none;stroke:#000000;stroke-linecap:square;stroke-linejoin:miter;stroke-width:0.8;"/>
   </g>
   <g id="patch_11">
    <path d="M 252.392727 41.472 
L 414.72 41.472 
" style="fill:none;stroke:#000000;stroke-linecap:square;stroke-linejoin:miter;stroke-width:0.8;"/>
   </g>
  </g>
  <g id="legend_1">
   <g id="patch_12">
    <path d="M 316.082812 37.35625 
L 453.8 37.35625 
Q 455.8 37.35625 455.8 35.35625 
L 455.8 7 
Q 455.8 5 453.8 5 
L 316.082812 5 
Q 314.082812 5 314.082812 7 
L 314.082812 35.35625 
Q 314.082812 37.35625 316.082812 37.35625 
z
" style="fill:#ffffff;opacity:0.8;stroke:#cccccc;stroke-linejoin:miter;"/>
   </g>
   <g id="line2d_28">
    <path d="M 318.082812 13.098437 
L 338.082812 13.098437 
" style="fill:none;stroke:#0000ff;stroke-linecap:square;stroke-width:1.5;"/>
   </g>
   <g id="line2d_29"/>
   <g id="text_24">
    <!-- cross validation error -->
    <g transform="translate(346.082812 16.598437)scale(0.1 -0.1)">
     <defs>
      <path d="M 48.78125 52.59375 
L 48.78125 44.1875 
Q 44.96875 46.296875 41.140625 47.34375 
Q 37.3125 48.390625 33.40625 48.390625 
Q 24.65625 48.390625 19.8125 42.84375 
Q 14.984375 37.3125 14.984375 27.296875 
Q 14.984375 17.28125 19.8125 11.734375 
Q 24.65625 6.203125 33.40625 6.203125 
Q 37.3125 6.203125 41.140625 7.25 
Q 44.96875 8.296875 48.78125 10.40625 
L 48.78125 2.09375 
Q 45.015625 0.34375 40.984375 -0.53125 
Q 36.96875 -1.421875 32.421875 -1.421875 
Q 20.0625 -1.421875 12.78125 6.34375 
Q 5.515625 14.109375 5.515625 27.296875 
Q 5.515625 40.671875 12.859375 48.328125 
Q 20.21875 56 33.015625 56 
Q 37.15625 56 41.109375 55.140625 
Q 45.0625 54.296875 48.78125 52.59375 
z
" id="DejaVuSans-99"/>
      <path d="M 41.109375 46.296875 
Q 39.59375 47.171875 37.8125 47.578125 
Q 36.03125 48 33.890625 48 
Q 26.265625 48 22.1875 43.046875 
Q 18.109375 38.09375 18.109375 28.8125 
L 18.109375 0 
L 9.078125 0 
L 9.078125 54.6875 
L 18.109375 54.6875 
L 18.109375 46.1875 
Q 20.953125 51.171875 25.484375 53.578125 
Q 30.03125 56 36.53125 56 
Q 37.453125 56 38.578125 55.875 
Q 39.703125 55.765625 41.0625 55.515625 
z
" id="DejaVuSans-114"/>
      <path d="M 30.609375 48.390625 
Q 23.390625 48.390625 19.1875 42.75 
Q 14.984375 37.109375 14.984375 27.296875 
Q 14.984375 17.484375 19.15625 11.84375 
Q 23.34375 6.203125 30.609375 6.203125 
Q 37.796875 6.203125 41.984375 11.859375 
Q 46.1875 17.53125 46.1875 27.296875 
Q 46.1875 37.015625 41.984375 42.703125 
Q 37.796875 48.390625 30.609375 48.390625 
z
M 30.609375 56 
Q 42.328125 56 49.015625 48.375 
Q 55.71875 40.765625 55.71875 27.296875 
Q 55.71875 13.875 49.015625 6.21875 
Q 42.328125 -1.421875 30.609375 -1.421875 
Q 18.84375 -1.421875 12.171875 6.21875 
Q 5.515625 13.875 5.515625 27.296875 
Q 5.515625 40.765625 12.171875 48.375 
Q 18.84375 56 30.609375 56 
z
" id="DejaVuSans-111"/>
      <path d="M 44.28125 53.078125 
L 44.28125 44.578125 
Q 40.484375 46.53125 36.375 47.5 
Q 32.28125 48.484375 27.875 48.484375 
Q 21.1875 48.484375 17.84375 46.4375 
Q 14.5 44.390625 14.5 40.28125 
Q 14.5 37.15625 16.890625 35.375 
Q 19.28125 33.59375 26.515625 31.984375 
L 29.59375 31.296875 
Q 39.15625 29.25 43.1875 25.515625 
Q 47.21875 21.78125 47.21875 15.09375 
Q 47.21875 7.46875 41.1875 3.015625 
Q 35.15625 -1.421875 24.609375 -1.421875 
Q 20.21875 -1.421875 15.453125 -0.5625 
Q 10.6875 0.296875 5.421875 2 
L 5.421875 11.28125 
Q 10.40625 8.6875 15.234375 7.390625 
Q 20.0625 6.109375 24.8125 6.109375 
Q 31.15625 6.109375 34.5625 8.28125 
Q 37.984375 10.453125 37.984375 14.40625 
Q 37.984375 18.0625 35.515625 20.015625 
Q 33.0625 21.96875 24.703125 23.78125 
L 21.578125 24.515625 
Q 13.234375 26.265625 9.515625 29.90625 
Q 5.8125 33.546875 5.8125 39.890625 
Q 5.8125 47.609375 11.28125 51.796875 
Q 16.75 56 26.8125 56 
Q 31.78125 56 36.171875 55.265625 
Q 40.578125 54.546875 44.28125 53.078125 
z
" id="DejaVuSans-115"/>
      <path id="DejaVuSans-32"/>
      <path d="M 2.984375 54.6875 
L 12.5 54.6875 
L 29.59375 8.796875 
L 46.6875 54.6875 
L 56.203125 54.6875 
L 35.6875 0 
L 23.484375 0 
z
" id="DejaVuSans-118"/>
      <path d="M 34.28125 27.484375 
Q 23.390625 27.484375 19.1875 25 
Q 14.984375 22.515625 14.984375 16.5 
Q 14.984375 11.71875 18.140625 8.90625 
Q 21.296875 6.109375 26.703125 6.109375 
Q 34.1875 6.109375 38.703125 11.40625 
Q 43.21875 16.703125 43.21875 25.484375 
L 43.21875 27.484375 
z
M 52.203125 31.203125 
L 52.203125 0 
L 43.21875 0 
L 43.21875 8.296875 
Q 40.140625 3.328125 35.546875 0.953125 
Q 30.953125 -1.421875 24.3125 -1.421875 
Q 15.921875 -1.421875 10.953125 3.296875 
Q 6 8.015625 6 15.921875 
Q 6 25.140625 12.171875 29.828125 
Q 18.359375 34.515625 30.609375 34.515625 
L 43.21875 34.515625 
L 43.21875 35.40625 
Q 43.21875 41.609375 39.140625 45 
Q 35.0625 48.390625 27.6875 48.390625 
Q 23 48.390625 18.546875 47.265625 
Q 14.109375 46.140625 10.015625 43.890625 
L 10.015625 52.203125 
Q 14.9375 54.109375 19.578125 55.046875 
Q 24.21875 56 28.609375 56 
Q 40.484375 56 46.34375 49.84375 
Q 52.203125 43.703125 52.203125 31.203125 
z
" id="DejaVuSans-97"/>
      <path d="M 9.421875 75.984375 
L 18.40625 75.984375 
L 18.40625 0 
L 9.421875 0 
z
" id="DejaVuSans-108"/>
      <path d="M 9.421875 54.6875 
L 18.40625 54.6875 
L 18.40625 0 
L 9.421875 0 
z
M 9.421875 75.984375 
L 18.40625 75.984375 
L 18.40625 64.59375 
L 9.421875 64.59375 
z
" id="DejaVuSans-105"/>
      <path d="M 45.40625 46.390625 
L 45.40625 75.984375 
L 54.390625 75.984375 
L 54.390625 0 
L 45.40625 0 
L 45.40625 8.203125 
Q 42.578125 3.328125 38.25 0.953125 
Q 33.9375 -1.421875 27.875 -1.421875 
Q 17.96875 -1.421875 11.734375 6.484375 
Q 5.515625 14.40625 5.515625 27.296875 
Q 5.515625 40.1875 11.734375 48.09375 
Q 17.96875 56 27.875 56 
Q 33.9375 56 38.25 53.625 
Q 42.578125 51.265625 45.40625 46.390625 
z
M 14.796875 27.296875 
Q 14.796875 17.390625 18.875 11.75 
Q 22.953125 6.109375 30.078125 6.109375 
Q 37.203125 6.109375 41.296875 11.75 
Q 45.40625 17.390625 45.40625 27.296875 
Q 45.40625 37.203125 41.296875 42.84375 
Q 37.203125 48.484375 30.078125 48.484375 
Q 22.953125 48.484375 18.875 42.84375 
Q 14.796875 37.203125 14.796875 27.296875 
z
" id="DejaVuSans-100"/>
      <path d="M 18.3125 70.21875 
L 18.3125 54.6875 
L 36.8125 54.6875 
L 36.8125 47.703125 
L 18.3125 47.703125 
L 18.3125 18.015625 
Q 18.3125 11.328125 20.140625 9.421875 
Q 21.96875 7.515625 27.59375 7.515625 
L 36.8125 7.515625 
L 36.8125 0 
L 27.59375 0 
Q 17.1875 0 13.234375 3.875 
Q 9.28125 7.765625 9.28125 18.015625 
L 9.28125 47.703125 
L 2.6875 47.703125 
L 2.6875 54.6875 
L 9.28125 54.6875 
L 9.28125 70.21875 
z
" id="DejaVuSans-116"/>
      <path d="M 54.890625 33.015625 
L 54.890625 0 
L 45.90625 0 
L 45.90625 32.71875 
Q 45.90625 40.484375 42.875 44.328125 
Q 39.84375 48.1875 33.796875 48.1875 
Q 26.515625 48.1875 22.3125 43.546875 
Q 18.109375 38.921875 18.109375 30.90625 
L 18.109375 0 
L 9.078125 0 
L 9.078125 54.6875 
L 18.109375 54.6875 
L 18.109375 46.1875 
Q 21.34375 51.125 25.703125 53.5625 
Q 30.078125 56 35.796875 56 
Q 45.21875 56 50.046875 50.171875 
Q 54.890625 44.34375 54.890625 33.015625 
z
" id="DejaVuSans-110"/>
      <path d="M 56.203125 29.59375 
L 56.203125 25.203125 
L 14.890625 25.203125 
Q 15.484375 15.921875 20.484375 11.0625 
Q 25.484375 6.203125 34.421875 6.203125 
Q 39.59375 6.203125 44.453125 7.46875 
Q 49.3125 8.734375 54.109375 11.28125 
L 54.109375 2.78125 
Q 49.265625 0.734375 44.1875 -0.34375 
Q 39.109375 -1.421875 33.890625 -1.421875 
Q 20.796875 -1.421875 13.15625 6.1875 
Q 5.515625 13.8125 5.515625 26.8125 
Q 5.515625 40.234375 12.765625 48.109375 
Q 20.015625 56 32.328125 56 
Q 43.359375 56 49.78125 48.890625 
Q 56.203125 41.796875 56.203125 29.59375 
z
M 47.21875 32.234375 
Q 47.125 39.59375 43.09375 43.984375 
Q 39.0625 48.390625 32.421875 48.390625 
Q 24.90625 48.390625 20.390625 44.140625 
Q 15.875 39.890625 15.1875 32.171875 
z
" id="DejaVuSans-101"/>
     </defs>
     <use xlink:href="#DejaVuSans-99"/>
     <use x="54.980469" xlink:href="#DejaVuSans-114"/>
     <use x="93.84375" xlink:href="#DejaVuSans-111"/>
     <use x="155.025391" xlink:href="#DejaVuSans-115"/>
     <use x="207.125" xlink:href="#DejaVuSans-115"/>
     <use x="259.224609" xlink:href="#DejaVuSans-32"/>
     <use x="291.011719" xlink:href="#DejaVuSans-118"/>
     <use x="350.191406" xlink:href="#DejaVuSans-97"/>
     <use x="411.470703" xlink:href="#DejaVuSans-108"/>
     <use x="439.253906" xlink:href="#DejaVuSans-105"/>
     <use x="467.037109" xlink:href="#DejaVuSans-100"/>
     <use x="530.513672" xlink:href="#DejaVuSans-97"/>
     <use x="591.792969" xlink:href="#DejaVuSans-116"/>
     <use x="631.001953" xlink:href="#DejaVuSans-105"/>
     <use x="658.785156" xlink:href="#DejaVuSans-111"/>
     <use x="719.966797" xlink:href="#DejaVuSans-110"/>
     <use x="783.345703" xlink:href="#DejaVuSans-32"/>
     <use x="815.132812" xlink:href="#DejaVuSans-101"/>
     <use x="876.65625" xlink:href="#DejaVuSans-114"/>
     <use x="916.019531" xlink:href="#DejaVuSans-114"/>
     <use x="954.882812" xlink:href="#DejaVuSans-111"/>
     <use x="1016.064453" xlink:href="#DejaVuSans-114"/>
    </g>
   </g>
   <g id="line2d_30">
    <path d="M 318.082812 27.776563 
L 338.082812 27.776563 
" style="fill:none;stroke:#ff0000;stroke-linecap:square;stroke-width:1.5;"/>
   </g>
   <g id="line2d_31"/>
   <g id="text_25">
    <!-- training error -->
    <g transform="translate(346.082812 31.276563)scale(0.1 -0.1)">
     <defs>
      <path d="M 45.40625 27.984375 
Q 45.40625 37.75 41.375 43.109375 
Q 37.359375 48.484375 30.078125 48.484375 
Q 22.859375 48.484375 18.828125 43.109375 
Q 14.796875 37.75 14.796875 27.984375 
Q 14.796875 18.265625 18.828125 12.890625 
Q 22.859375 7.515625 30.078125 7.515625 
Q 37.359375 7.515625 41.375 12.890625 
Q 45.40625 18.265625 45.40625 27.984375 
z
M 54.390625 6.78125 
Q 54.390625 -7.171875 48.1875 -13.984375 
Q 42 -20.796875 29.203125 -20.796875 
Q 24.46875 -20.796875 20.265625 -20.09375 
Q 16.0625 -19.390625 12.109375 -17.921875 
L 12.109375 -9.1875 
Q 16.0625 -11.328125 19.921875 -12.34375 
Q 23.78125 -13.375 27.78125 -13.375 
Q 36.625 -13.375 41.015625 -8.765625 
Q 45.40625 -4.15625 45.40625 5.171875 
L 45.40625 9.625 
Q 42.625 4.78125 38.28125 2.390625 
Q 33.9375 0 27.875 0 
Q 17.828125 0 11.671875 7.65625 
Q 5.515625 15.328125 5.515625 27.984375 
Q 5.515625 40.671875 11.671875 48.328125 
Q 17.828125 56 27.875 56 
Q 33.9375 56 38.28125 53.609375 
Q 42.625 51.21875 45.40625 46.390625 
L 45.40625 54.6875 
L 54.390625 54.6875 
z
" id="DejaVuSans-103"/>
     </defs>
     <use xlink:href="#DejaVuSans-116"/>
     <use x="39.208984" xlink:href="#DejaVuSans-114"/>
     <use x="80.322266" xlink:href="#DejaVuSans-97"/>
     <use x="141.601562" xlink:href="#DejaVuSans-105"/>
     <use x="169.384766" xlink:href="#DejaVuSans-110"/>
     <use x="232.763672" xlink:href="#DejaVuSans-105"/>
     <use x="260.546875" xlink:href="#DejaVuSans-110"/>
     <use x="323.925781" xlink:href="#DejaVuSans-103"/>
     <use x="387.402344" xlink:href="#DejaVuSans-32"/>
     <use x="419.189453" xlink:href="#DejaVuSans-101"/>
     <use x="480.712891" xlink:href="#DejaVuSans-114"/>
     <use x="520.076172" xlink:href="#DejaVuSans-114"/>
     <use x="558.939453" xlink:href="#DejaVuSans-111"/>
     <use x="620.121094" xlink:href="#DejaVuSans-114"/>
    </g>
   </g>
  </g>
 </g>
 <defs>
  <clipPath id="p9f7a8b14f2">
   <rect height="266.112" width="162.327273" x="57.6" y="41.472"/>
  </clipPath>
  <clipPath id="p6d4e726a4d">
   <rect height="266.112" width="162.327273" x="252.392727" y="41.472"/>
  </clipPath>
 </defs>
</svg>
