<?xml version="1.0" encoding="utf-8" standalone="no"?>
<!DOCTYPE svg PUBLIC "-//W3C//DTD SVG 1.1//EN"
  "http://www.w3.org/Graphics/SVG/1.1/DTD/svg11.dtd">
<!-- Created with matplotlib (https://matplotlib.org/) -->
<svg height="345.6pt" version="1.1" viewBox="0 0 460.8 345.6" width="460.8pt" xmlns="http://www.w3.org/2000/svg" xmlns:xlink="http://www.w3.org/1999/xlink">
 <metadata>
  <rdf:RDF xmlns:cc="http://creativecommons.org/ns#" xmlns:dc="http://purl.org/dc/elements/1.1/" xmlns:rdf="http://www.w3.org/1999/02/22-rdf-syntax-ns#">
   <cc:Work>
    <dc:type rdf:resource="http://purl.org/dc/dcmitype/StillImage"/>
    <dc:date>2021-01-26T00:21:53.314722</dc:date>
    <dc:format>image/svg+xml</dc:format>
    <dc:creator>
     <cc:Agent>
      <dc:title>Matplotlib v3.3.2, https://matplotlib.org/</dc:title>
     </cc:Agent>
    </dc:creator>
   </cc:Work>
  </rdf:RDF>
 </metadata>
 <defs>
  <style type="text/css">*{stroke-linecap:butt;stroke-linejoin:round;}</style>
 </defs>
 <g id="figure_1">
  <g id="patch_1">
   <path d="M 0 345.6 
L 460.8 345.6 
L 460.8 0 
L 0 0 
z
" style="fill:#ffffff;"/>
  </g>
  <g id="axes_1">
   <g id="patch_2">
    <path d="M 57.6 307.584 
L 414.72 307.584 
L 414.72 41.472 
L 57.6 41.472 
z
" style="fill:#e5e5e5;"/>
   </g>
   <g id="matplotlib.axis_1">
    <g id="xtick_1">
     <g id="line2d_1">
      <path clip-path="url(#p001c7518a6)" d="M 93.312 307.584 
L 93.312 41.472 
" style="fill:none;stroke:#ffffff;stroke-linecap:square;stroke-width:0.8;"/>
     </g>
     <g id="line2d_2">
      <defs>
       <path d="M 0 0 
L 0 3.5 
" id="mfd174a78d1" style="stroke:#555555;stroke-width:0.8;"/>
      </defs>
      <g>
       <use style="fill:#555555;stroke:#555555;stroke-width:0.8;" x="93.312" xlink:href="#mfd174a78d1" y="307.584"/>
      </g>
     </g>
     <g id="text_1">
      <!-- −4 -->
      <g style="fill:#555555;" transform="translate(85.940906 322.182437)scale(0.1 -0.1)">
       <defs>
        <path d="M 10.59375 35.5 
L 73.1875 35.5 
L 73.1875 27.203125 
L 10.59375 27.203125 
z
" id="DejaVuSans-8722"/>
        <path d="M 37.796875 64.3125 
L 12.890625 25.390625 
L 37.796875 25.390625 
z
M 35.203125 72.90625 
L 47.609375 72.90625 
L 47.609375 25.390625 
L 58.015625 25.390625 
L 58.015625 17.1875 
L 47.609375 17.1875 
L 47.609375 0 
L 37.796875 0 
L 37.796875 17.1875 
L 4.890625 17.1875 
L 4.890625 26.703125 
z
" id="DejaVuSans-52"/>
       </defs>
       <use xlink:href="#DejaVuSans-8722"/>
       <use x="83.789062" xlink:href="#DejaVuSans-52"/>
      </g>
     </g>
    </g>
    <g id="xtick_2">
     <g id="line2d_3">
      <path clip-path="url(#p001c7518a6)" d="M 164.736 307.584 
L 164.736 41.472 
" style="fill:none;stroke:#ffffff;stroke-linecap:square;stroke-width:0.8;"/>
     </g>
     <g id="line2d_4">
      <g>
       <use style="fill:#555555;stroke:#555555;stroke-width:0.8;" x="164.736" xlink:href="#mfd174a78d1" y="307.584"/>
      </g>
     </g>
     <g id="text_2">
      <!-- −2 -->
      <g style="fill:#555555;" transform="translate(157.364906 322.182437)scale(0.1 -0.1)">
       <defs>
        <path d="M 19.1875 8.296875 
L 53.609375 8.296875 
L 53.609375 0 
L 7.328125 0 
L 7.328125 8.296875 
Q 12.9375 14.109375 22.625 23.890625 
Q 32.328125 33.6875 34.8125 36.53125 
Q 39.546875 41.84375 41.421875 45.53125 
Q 43.3125 49.21875 43.3125 52.78125 
Q 43.3125 58.59375 39.234375 62.25 
Q 35.15625 65.921875 28.609375 65.921875 
Q 23.96875 65.921875 18.8125 64.3125 
Q 13.671875 62.703125 7.8125 59.421875 
L 7.8125 69.390625 
Q 13.765625 71.78125 18.9375 73 
Q 24.125 74.21875 28.421875 74.21875 
Q 39.75 74.21875 46.484375 68.546875 
Q 53.21875 62.890625 53.21875 53.421875 
Q 53.21875 48.921875 51.53125 44.890625 
Q 49.859375 40.875 45.40625 35.40625 
Q 44.1875 33.984375 37.640625 27.21875 
Q 31.109375 20.453125 19.1875 8.296875 
z
" id="DejaVuSans-50"/>
       </defs>
       <use xlink:href="#DejaVuSans-8722"/>
       <use x="83.789062" xlink:href="#DejaVuSans-50"/>
      </g>
     </g>
    </g>
    <g id="xtick_3">
     <g id="line2d_5">
      <path clip-path="url(#p001c7518a6)" d="M 236.16 307.584 
L 236.16 41.472 
" style="fill:none;stroke:#ffffff;stroke-linecap:square;stroke-width:0.8;"/>
     </g>
     <g id="line2d_6">
      <g>
       <use style="fill:#555555;stroke:#555555;stroke-width:0.8;" x="236.16" xlink:href="#mfd174a78d1" y="307.584"/>
      </g>
     </g>
     <g id="text_3">
      <!-- 0 -->
      <g style="fill:#555555;" transform="translate(232.97875 322.182437)scale(0.1 -0.1)">
       <defs>
        <path d="M 31.78125 66.40625 
Q 24.171875 66.40625 20.328125 58.90625 
Q 16.5 51.421875 16.5 36.375 
Q 16.5 21.390625 20.328125 13.890625 
Q 24.171875 6.390625 31.78125 6.390625 
Q 39.453125 6.390625 43.28125 13.890625 
Q 47.125 21.390625 47.125 36.375 
Q 47.125 51.421875 43.28125 58.90625 
Q 39.453125 66.40625 31.78125 66.40625 
z
M 31.78125 74.21875 
Q 44.046875 74.21875 50.515625 64.515625 
Q 56.984375 54.828125 56.984375 36.375 
Q 56.984375 17.96875 50.515625 8.265625 
Q 44.046875 -1.421875 31.78125 -1.421875 
Q 19.53125 -1.421875 13.0625 8.265625 
Q 6.59375 17.96875 6.59375 36.375 
Q 6.59375 54.828125 13.0625 64.515625 
Q 19.53125 74.21875 31.78125 74.21875 
z
" id="DejaVuSans-48"/>
       </defs>
       <use xlink:href="#DejaVuSans-48"/>
      </g>
     </g>
    </g>
    <g id="xtick_4">
     <g id="line2d_7">
      <path clip-path="url(#p001c7518a6)" d="M 307.584 307.584 
L 307.584 41.472 
" style="fill:none;stroke:#ffffff;stroke-linecap:square;stroke-width:0.8;"/>
     </g>
     <g id="line2d_8">
      <g>
       <use style="fill:#555555;stroke:#555555;stroke-width:0.8;" x="307.584" xlink:href="#mfd174a78d1" y="307.584"/>
      </g>
     </g>
     <g id="text_4">
      <!-- 2 -->
      <g style="fill:#555555;" transform="translate(304.40275 322.182437)scale(0.1 -0.1)">
       <use xlink:href="#DejaVuSans-50"/>
      </g>
     </g>
    </g>
    <g id="xtick_5">
     <g id="line2d_9">
      <path clip-path="url(#p001c7518a6)" d="M 379.008 307.584 
L 379.008 41.472 
" style="fill:none;stroke:#ffffff;stroke-linecap:square;stroke-width:0.8;"/>
     </g>
     <g id="line2d_10">
      <g>
       <use style="fill:#555555;stroke:#555555;stroke-width:0.8;" x="379.008" xlink:href="#mfd174a78d1" y="307.584"/>
      </g>
     </g>
     <g id="text_5">
      <!-- 4 -->
      <g style="fill:#555555;" transform="translate(375.82675 322.182437)scale(0.1 -0.1)">
       <use xlink:href="#DejaVuSans-52"/>
      </g>
     </g>
    </g>
    <g id="text_6">
     <!-- x -->
     <g style="fill:#555555;" transform="translate(232.60875 337.38025)scale(0.12 -0.12)">
      <defs>
       <path d="M 54.890625 54.6875 
L 35.109375 28.078125 
L 55.90625 0 
L 45.3125 0 
L 29.390625 21.484375 
L 13.484375 0 
L 2.875 0 
L 24.125 28.609375 
L 4.6875 54.6875 
L 15.28125 54.6875 
L 29.78125 35.203125 
L 44.28125 54.6875 
z
" id="DejaVuSans-120"/>
      </defs>
      <use xlink:href="#DejaVuSans-120"/>
     </g>
    </g>
   </g>
   <g id="matplotlib.axis_2">
    <g id="ytick_1">
     <g id="line2d_11">
      <path clip-path="url(#p001c7518a6)" d="M 57.6 280.9728 
L 414.72 280.9728 
" style="fill:none;stroke:#ffffff;stroke-linecap:square;stroke-width:0.8;"/>
     </g>
     <g id="line2d_12">
      <defs>
       <path d="M 0 0 
L -3.5 0 
" id="m6a3637796d" style="stroke:#555555;stroke-width:0.8;"/>
      </defs>
      <g>
       <use style="fill:#555555;stroke:#555555;stroke-width:0.8;" x="57.6" xlink:href="#m6a3637796d" y="280.9728"/>
      </g>
     </g>
     <g id="text_7">
      <!-- −4 -->
      <g style="fill:#555555;" transform="translate(35.857813 284.772019)scale(0.1 -0.1)">
       <use xlink:href="#DejaVuSans-8722"/>
       <use x="83.789062" xlink:href="#DejaVuSans-52"/>
      </g>
     </g>
    </g>
    <g id="ytick_2">
     <g id="line2d_13">
      <path clip-path="url(#p001c7518a6)" d="M 57.6 227.7504 
L 414.72 227.7504 
" style="fill:none;stroke:#ffffff;stroke-linecap:square;stroke-width:0.8;"/>
     </g>
     <g id="line2d_14">
      <g>
       <use style="fill:#555555;stroke:#555555;stroke-width:0.8;" x="57.6" xlink:href="#m6a3637796d" y="227.7504"/>
      </g>
     </g>
     <g id="text_8">
      <!-- −2 -->
      <g style="fill:#555555;" transform="translate(35.857813 231.549619)scale(0.1 -0.1)">
       <use xlink:href="#DejaVuSans-8722"/>
       <use x="83.789062" xlink:href="#DejaVuSans-50"/>
      </g>
     </g>
    </g>
    <g id="ytick_3">
     <g id="line2d_15">
      <path clip-path="url(#p001c7518a6)" d="M 57.6 174.528 
L 414.72 174.528 
" style="fill:none;stroke:#ffffff;stroke-linecap:square;stroke-width:0.8;"/>
     </g>
     <g id="line2d_16">
      <g>
       <use style="fill:#555555;stroke:#555555;stroke-width:0.8;" x="57.6" xlink:href="#m6a3637796d" y="174.528"/>
      </g>
     </g>
     <g id="text_9">
      <!-- 0 -->
      <g style="fill:#555555;" transform="translate(44.2375 178.327219)scale(0.1 -0.1)">
       <use xlink:href="#DejaVuSans-48"/>
      </g>
     </g>
    </g>
    <g id="ytick_4">
     <g id="line2d_17">
      <path clip-path="url(#p001c7518a6)" d="M 57.6 121.3056 
L 414.72 121.3056 
" style="fill:none;stroke:#ffffff;stroke-linecap:square;stroke-width:0.8;"/>
     </g>
     <g id="line2d_18">
      <g>
       <use style="fill:#555555;stroke:#555555;stroke-width:0.8;" x="57.6" xlink:href="#m6a3637796d" y="121.3056"/>
      </g>
     </g>
     <g id="text_10">
      <!-- 2 -->
      <g style="fill:#555555;" transform="translate(44.2375 125.104819)scale(0.1 -0.1)">
       <use xlink:href="#DejaVuSans-50"/>
      </g>
     </g>
    </g>
    <g id="ytick_5">
     <g id="line2d_19">
      <path clip-path="url(#p001c7518a6)" d="M 57.6 68.0832 
L 414.72 68.0832 
" style="fill:none;stroke:#ffffff;stroke-linecap:square;stroke-width:0.8;"/>
     </g>
     <g id="line2d_20">
      <g>
       <use style="fill:#555555;stroke:#555555;stroke-width:0.8;" x="57.6" xlink:href="#m6a3637796d" y="68.0832"/>
      </g>
     </g>
     <g id="text_11">
      <!-- 4 -->
      <g style="fill:#555555;" transform="translate(44.2375 71.882419)scale(0.1 -0.1)">
       <use xlink:href="#DejaVuSans-52"/>
      </g>
     </g>
    </g>
    <g id="text_12">
     <!-- y -->
     <g style="fill:#555555;" transform="translate(29.362188 178.07925)rotate(-90)scale(0.12 -0.12)">
      <defs>
       <path d="M 32.171875 -5.078125 
Q 28.375 -14.84375 24.75 -17.8125 
Q 21.140625 -20.796875 15.09375 -20.796875 
L 7.90625 -20.796875 
L 7.90625 -13.28125 
L 13.1875 -13.28125 
Q 16.890625 -13.28125 18.9375 -11.515625 
Q 21 -9.765625 23.484375 -3.21875 
L 25.09375 0.875 
L 2.984375 54.6875 
L 12.5 54.6875 
L 29.59375 11.921875 
L 46.6875 54.6875 
L 56.203125 54.6875 
z
" id="DejaVuSans-121"/>
      </defs>
      <use xlink:href="#DejaVuSans-121"/>
     </g>
    </g>
   </g>
   <g id="line2d_21">
    <path clip-path="url(#p001c7518a6)" d="M 57.6 307.584 
L 414.72 41.472 
L 414.72 41.472 
" style="fill:none;stroke:#e24a33;stroke-linecap:square;stroke-width:1.5;"/>
   </g>
   <g id="line2d_22">
    <path clip-path="url(#p001c7518a6)" d="M 93.673796 -1 
L 96.932365 15.461935 
L 100.508035 32.530745 
L 104.083705 48.586197 
L 107.659374 63.655003 
L 111.235044 77.763873 
L 114.810713 90.939519 
L 118.386383 103.208653 
L 121.962053 114.597985 
L 125.090763 123.862937 
L 128.219474 132.492636 
L 131.348185 140.504977 
L 134.476896 147.917854 
L 137.605607 154.749161 
L 140.734318 161.016793 
L 143.863029 166.738645 
L 146.544781 171.222257 
L 149.226533 175.329303 
L 151.908285 179.071052 
L 154.590038 182.458772 
L 157.27179 185.503733 
L 159.953542 188.217204 
L 162.635294 190.610452 
L 165.317046 192.694748 
L 167.998798 194.481359 
L 170.680551 195.981555 
L 173.362303 197.206604 
L 176.044055 198.167775 
L 178.725807 198.876337 
L 181.407559 199.343559 
L 184.089312 199.580709 
L 186.771064 199.599057 
L 189.452816 199.409871 
L 192.581527 198.941888 
L 195.710238 198.224661 
L 198.838949 197.276084 
L 201.96766 196.114053 
L 205.543329 194.547598 
L 209.565957 192.51328 
L 213.588586 190.227527 
L 218.058173 187.439167 
L 223.421677 183.818822 
L 230.126058 179.002867 
L 250.686158 164.002155 
L 256.049662 160.473213 
L 260.519249 157.783976 
L 264.541877 155.605277 
L 268.117547 153.892745 
L 271.693217 152.418944 
L 274.821927 151.346202 
L 277.950638 150.494584 
L 281.079349 149.881985 
L 283.761101 149.560703 
L 286.442854 149.439443 
L 289.124606 149.529473 
L 291.806358 149.842062 
L 294.48811 150.388478 
L 297.169862 151.179991 
L 299.851615 152.22787 
L 302.533367 153.543382 
L 305.215119 155.137798 
L 307.896871 157.022385 
L 310.578623 159.208413 
L 313.260375 161.70715 
L 315.942128 164.529865 
L 318.62388 167.687827 
L 321.305632 171.192305 
L 323.987384 175.054567 
L 326.669136 179.285883 
L 329.350889 183.897521 
L 332.032641 188.90075 
L 335.161352 195.247812 
L 338.290063 202.161105 
L 341.418773 209.658524 
L 344.547484 217.757963 
L 347.676195 226.477317 
L 350.804906 235.83448 
L 353.933617 245.847347 
L 357.062328 256.533812 
L 360.637997 269.594683 
L 364.213667 283.58544 
L 367.789337 298.532793 
L 371.365006 314.463453 
L 374.940676 331.404133 
L 377.976262 346.6 
L 377.976262 346.6 
" style="fill:none;stroke:#348abd;stroke-linecap:square;stroke-width:1.5;"/>
   </g>
   <g id="line2d_23">
    <path clip-path="url(#p001c7518a6)" d="M 68.460843 346.6 
L 71.008761 327.996846 
L 73.690513 310.156025 
L 76.372265 293.987846 
L 79.054018 279.388869 
L 81.288811 268.349744 
L 83.523605 258.27538 
L 85.758398 249.111857 
L 87.993191 240.806995 
L 90.227985 233.310335 
L 92.462778 226.573111 
L 94.697572 220.548225 
L 96.932365 215.190219 
L 99.167159 210.455254 
L 101.401952 206.301081 
L 103.636746 202.687016 
L 105.871539 199.573915 
L 107.659374 197.418791 
L 109.447209 195.541595 
L 111.235044 193.924347 
L 113.022879 192.549665 
L 114.810713 191.400748 
L 117.045507 190.257423 
L 119.2803 189.411109 
L 121.515094 188.832725 
L 123.749887 188.494529 
L 125.984681 188.370087 
L 128.666433 188.467591 
L 131.348185 188.795682 
L 134.476896 189.41864 
L 138.052566 190.378028 
L 142.522153 191.835442 
L 149.673492 194.451703 
L 157.27179 197.168414 
L 162.188335 198.688837 
L 166.210964 199.716045 
L 170.233592 200.505484 
L 173.809262 200.982481 
L 177.384931 201.230727 
L 180.960601 201.238489 
L 184.53627 200.998436 
L 188.11194 200.50737 
L 191.68761 199.765961 
L 195.263279 198.778476 
L 198.838949 197.552512 
L 202.414618 196.098731 
L 206.437247 194.207768 
L 210.459875 192.068529 
L 214.929462 189.432776 
L 219.846008 186.266151 
L 225.656471 182.242468 
L 233.701727 176.358363 
L 247.557447 166.178506 
L 253.36791 162.195769 
L 258.284456 159.076075 
L 262.754043 156.491935 
L 266.776671 154.405695 
L 270.799299 152.573156 
L 274.374969 151.175173 
L 277.950638 150.007945 
L 281.526308 149.081392 
L 285.101977 148.402304 
L 288.677647 147.974075 
L 292.253317 147.796432 
L 295.828986 147.86517 
L 299.404656 148.171882 
L 302.980325 148.703692 
L 307.002954 149.548923 
L 311.025582 150.623944 
L 315.942128 152.189147 
L 322.199549 154.438152 
L 332.032641 157.977453 
L 336.055269 159.186052 
L 339.630939 160.021937 
L 342.75965 160.502712 
L 345.441402 160.681514 
L 347.676195 160.635461 
L 349.910989 160.385866 
L 352.145782 159.906813 
L 354.380576 159.171085 
L 356.615369 158.150141 
L 358.403204 157.107987 
L 360.191039 155.848251 
L 361.978874 154.354422 
L 363.766708 152.60941 
L 365.554543 150.595535 
L 367.342378 148.294519 
L 369.130213 145.687479 
L 370.918048 142.754919 
L 373.152841 138.600746 
L 375.387635 133.865781 
L 377.622428 128.507775 
L 379.857222 122.482889 
L 382.092015 115.745665 
L 384.326809 108.249005 
L 386.561602 99.944143 
L 388.796395 90.78062 
L 391.031189 80.706256 
L 393.265982 69.667131 
L 395.500776 57.607551 
L 397.735569 44.47003 
L 399.970363 30.195259 
L 402.652115 11.478128 
L 404.30881 -1 
L 404.30881 -1 
" style="fill:none;stroke:#988ed5;stroke-linecap:square;stroke-width:1.5;"/>
   </g>
   <g id="line2d_24">
    <path clip-path="url(#p001c7518a6)" d="M 57.6 33.684 
L 59.834793 45.090585 
L 62.069587 55.52449 
L 64.30438 65.071214 
L 66.986133 75.467895 
L 69.667885 84.828313 
L 72.349637 93.268416 
L 75.031389 100.893802 
L 77.713141 107.800338 
L 80.394894 114.074748 
L 83.076646 119.795191 
L 85.758398 125.03181 
L 88.887109 130.612899 
L 92.01582 135.70802 
L 95.144531 140.392874 
L 98.7202 145.327342 
L 102.29587 149.891363 
L 106.318498 154.664628 
L 110.788085 159.604686 
L 115.704631 164.680717 
L 120.621176 169.443919 
L 125.984681 174.324984 
L 131.348185 178.891779 
L 136.264731 182.794578 
L 141.181277 186.405912 
L 145.650864 189.412362 
L 149.673492 191.871979 
L 153.69612 194.078824 
L 157.718748 196.014249 
L 161.294418 197.492527 
L 164.870088 198.731292 
L 168.445757 199.72088 
L 172.021427 200.453413 
L 175.150138 200.878858 
L 178.278849 201.100443 
L 181.407559 201.117001 
L 184.53627 200.928792 
L 187.664981 200.537534 
L 190.793692 199.94642 
L 194.369362 199.032189 
L 197.945031 197.872344 
L 201.520701 196.478579 
L 205.543329 194.648508 
L 209.565957 192.563394 
L 214.035544 189.97974 
L 218.95209 186.860199 
L 224.315594 183.193068 
L 231.466934 178.015034 
L 249.345282 164.924545 
L 255.155745 161.031209 
L 260.07229 158.011436 
L 264.541877 155.536024 
L 268.564506 153.561182 
L 272.587134 151.852121 
L 276.162804 150.573707 
L 279.738473 149.535356 
L 283.314143 148.747566 
L 286.442854 148.270179 
L 289.571564 147.994653 
L 292.700275 147.923337 
L 295.828986 148.057114 
L 298.957697 148.395423 
L 302.086408 148.936306 
L 305.662078 149.79823 
L 309.237747 150.913508 
L 312.813417 152.273339 
L 316.389086 153.867273 
L 320.411715 155.92558 
L 324.434343 158.247104 
L 328.456971 160.812988 
L 332.926558 163.927929 
L 337.843104 167.648168 
L 342.75965 171.651436 
L 348.123154 176.322927 
L 353.486658 181.310784 
L 358.403204 186.182187 
L 362.872791 190.897729 
L 367.342378 195.944552 
L 371.365006 200.837228 
L 374.940676 205.531667 
L 378.516345 210.62508 
L 381.645056 215.477212 
L 384.773767 220.770667 
L 387.455519 225.719988 
L 390.137272 231.11056 
L 392.819024 237.007481 
L 395.500776 243.483504 
L 398.182528 250.619581 
L 400.86428 258.505419 
L 403.099074 265.720846 
L 405.333867 273.588105 
L 407.568661 282.174796 
L 409.803454 291.553821 
L 412.038248 301.803643 
L 414.273041 313.00856 
L 414.72 315.372 
L 414.72 315.372 
" style="fill:none;stroke:#777777;stroke-linecap:square;stroke-width:1.5;"/>
   </g>
   <g id="line2d_25">
    <path clip-path="url(#p001c7518a6)" d="M 57.6 176.913167 
L 59.834793 172.970836 
L 62.069587 169.535704 
L 64.30438 166.566883 
L 66.539174 164.026962 
L 68.773967 161.881694 
L 71.008761 160.099707 
L 73.243554 158.652233 
L 75.478348 157.512863 
L 77.713141 156.657312 
L 79.947935 156.063212 
L 82.182728 155.709914 
L 84.417522 155.57831 
L 86.652315 155.65067 
L 89.334068 155.983577 
L 92.01582 156.560028 
L 94.697572 157.355529 
L 97.826283 158.530148 
L 100.954994 159.938265 
L 104.530663 161.793263 
L 108.553292 164.141269 
L 113.022879 167.006289 
L 118.833342 171.015189 
L 128.666433 178.135099 
L 137.158648 184.182763 
L 142.969111 188.05299 
L 147.885657 191.061525 
L 152.355244 193.530728 
L 156.377872 195.502034 
L 160.400501 197.208812 
L 163.97617 198.485911 
L 167.55184 199.52345 
L 171.127509 200.310884 
L 174.25622 200.78838 
L 177.384931 201.064527 
L 180.513642 201.137174 
L 183.642353 201.005747 
L 186.771064 200.67124 
L 189.899775 200.136212 
L 193.475444 199.284542 
L 197.051114 198.184898 
L 200.626783 196.848293 
L 204.202453 195.288112 
L 208.225081 193.285209 
L 212.24771 191.044566 
L 216.717297 188.310767 
L 222.080801 184.749606 
L 228.338223 180.309997 
L 239.065232 172.365521 
L 248.004406 165.862932 
L 253.814869 161.901641 
L 258.731414 158.806317 
L 263.201001 156.249122 
L 267.22363 154.191082 
L 271.246258 152.390803 
L 274.821927 151.025471 
L 278.397597 149.895554 
L 281.973267 149.01237 
L 285.548936 148.38476 
L 288.677647 148.050253 
L 291.806358 147.918826 
L 294.935069 147.991473 
L 298.06378 148.26762 
L 301.192491 148.745116 
L 304.76816 149.53255 
L 308.34383 150.570089 
L 311.919499 151.847188 
L 315.495169 153.350824 
L 319.517797 155.293945 
L 323.540426 157.478909 
L 328.010013 160.15526 
L 332.926558 163.350496 
L 339.18398 167.697893 
L 361.084956 183.223484 
L 365.554543 185.988881 
L 369.577171 188.22043 
L 373.152841 189.949086 
L 376.281552 191.227758 
L 379.410263 192.253986 
L 382.092015 192.906085 
L 384.773767 193.323011 
L 387.008561 193.472271 
L 389.243354 193.424308 
L 391.478148 193.1619 
L 393.712941 192.666509 
L 395.947735 191.918123 
L 398.182528 190.895082 
L 400.417322 189.573895 
L 402.652115 187.929028 
L 404.43995 186.361488 
L 406.227785 184.553679 
L 408.01562 182.489117 
L 410.250413 179.520296 
L 412.485207 176.085164 
L 414.72 172.142833 
L 414.72 172.142833 
" style="fill:none;stroke:#fbc15e;stroke-linecap:square;stroke-width:1.5;"/>
   </g>
   <g id="line2d_26">
    <path clip-path="url(#p001c7518a6)" d="M 57.6 149.009874 
L 61.17567 148.383136 
L 64.30438 148.049417 
L 67.433091 147.918802 
L 70.561802 147.992294 
L 73.690513 148.269328 
L 76.819224 148.74778 
L 80.394894 149.536438 
L 83.970563 150.575429 
L 87.546233 151.854345 
L 91.121902 153.360375 
L 95.144531 155.307266 
L 99.167159 157.49777 
L 103.636746 160.183521 
L 108.553292 163.395303 
L 114.363755 167.457647 
L 122.85597 173.699907 
L 134.923855 182.564817 
L 140.734318 186.568043 
L 145.650864 189.711003 
L 150.120451 192.320378 
L 154.143079 194.431912 
L 158.165707 196.291173 
L 161.741377 197.712937 
L 165.317046 198.902465 
L 168.892716 199.847842 
L 172.468385 200.539599 
L 175.597096 200.931327 
L 178.725807 201.120527 
L 181.854518 201.105749 
L 184.983229 200.887106 
L 188.11194 200.466275 
L 191.68761 199.741959 
L 195.263279 198.765083 
L 198.838949 197.545432 
L 202.414618 196.095223 
L 206.437247 194.206321 
L 210.459875 192.068005 
L 214.929462 189.432638 
L 219.846008 186.26613 
L 225.656471 182.242467 
L 233.701727 176.358363 
L 247.557447 166.178507 
L 253.36791 162.195801 
L 258.284456 159.076259 
L 262.754043 156.492601 
L 266.776671 154.407474 
L 270.799299 152.577366 
L 274.374969 151.183523 
L 277.950638 150.023513 
L 281.526308 149.108957 
L 285.101977 148.449016 
L 288.230688 148.085691 
L 291.359399 147.925192 
L 294.48811 147.96875 
L 297.616821 148.216032 
L 300.745532 148.66514 
L 304.321202 149.421052 
L 307.896871 150.428452 
L 311.472541 151.677249 
L 315.04821 153.154935 
L 319.070839 155.072411 
L 323.093467 157.236477 
L 327.563054 159.89675 
L 332.479599 163.085701 
L 338.290063 167.128643 
L 346.335319 173.025632 
L 359.74408 182.873301 
L 365.554543 186.856287 
L 370.471089 189.976147 
L 374.940676 192.560154 
L 378.963304 194.645637 
L 382.985932 196.476138 
L 386.561602 197.870358 
L 390.137272 199.030765 
L 393.712941 199.945736 
L 397.288611 200.606106 
L 400.417322 200.969813 
L 403.546033 201.130697 
L 406.674743 201.087525 
L 409.803454 200.840628 
L 412.932165 200.391899 
L 414.72 200.046126 
L 414.72 200.046126 
" style="fill:none;stroke:#8eba42;stroke-linecap:square;stroke-width:1.5;"/>
   </g>
   <g id="patch_3">
    <path d="M 57.6 307.584 
L 57.6 41.472 
" style="fill:none;stroke:#ffffff;stroke-linecap:square;stroke-linejoin:miter;"/>
   </g>
   <g id="patch_4">
    <path d="M 414.72 307.584 
L 414.72 41.472 
" style="fill:none;stroke:#ffffff;stroke-linecap:square;stroke-linejoin:miter;"/>
   </g>
   <g id="patch_5">
    <path d="M 57.6 307.584 
L 414.72 307.584 
" style="fill:none;stroke:#ffffff;stroke-linecap:square;stroke-linejoin:miter;"/>
   </g>
   <g id="patch_6">
    <path d="M 57.6 41.472 
L 414.72 41.472 
" style="fill:none;stroke:#ffffff;stroke-linecap:square;stroke-linejoin:miter;"/>
   </g>
   <g id="text_13">
    <!-- Taylor series approximation -->
    <g transform="translate(137.001375 35.472)scale(0.144 -0.144)">
     <defs>
      <path d="M -0.296875 72.90625 
L 61.375 72.90625 
L 61.375 64.59375 
L 35.5 64.59375 
L 35.5 0 
L 25.59375 0 
L 25.59375 64.59375 
L -0.296875 64.59375 
z
" id="DejaVuSans-84"/>
      <path d="M 34.28125 27.484375 
Q 23.390625 27.484375 19.1875 25 
Q 14.984375 22.515625 14.984375 16.5 
Q 14.984375 11.71875 18.140625 8.90625 
Q 21.296875 6.109375 26.703125 6.109375 
Q 34.1875 6.109375 38.703125 11.40625 
Q 43.21875 16.703125 43.21875 25.484375 
L 43.21875 27.484375 
z
M 52.203125 31.203125 
L 52.203125 0 
L 43.21875 0 
L 43.21875 8.296875 
Q 40.140625 3.328125 35.546875 0.953125 
Q 30.953125 -1.421875 24.3125 -1.421875 
Q 15.921875 -1.421875 10.953125 3.296875 
Q 6 8.015625 6 15.921875 
Q 6 25.140625 12.171875 29.828125 
Q 18.359375 34.515625 30.609375 34.515625 
L 43.21875 34.515625 
L 43.21875 35.40625 
Q 43.21875 41.609375 39.140625 45 
Q 35.0625 48.390625 27.6875 48.390625 
Q 23 48.390625 18.546875 47.265625 
Q 14.109375 46.140625 10.015625 43.890625 
L 10.015625 52.203125 
Q 14.9375 54.109375 19.578125 55.046875 
Q 24.21875 56 28.609375 56 
Q 40.484375 56 46.34375 49.84375 
Q 52.203125 43.703125 52.203125 31.203125 
z
" id="DejaVuSans-97"/>
      <path d="M 9.421875 75.984375 
L 18.40625 75.984375 
L 18.40625 0 
L 9.421875 0 
z
" id="DejaVuSans-108"/>
      <path d="M 30.609375 48.390625 
Q 23.390625 48.390625 19.1875 42.75 
Q 14.984375 37.109375 14.984375 27.296875 
Q 14.984375 17.484375 19.15625 11.84375 
Q 23.34375 6.203125 30.609375 6.203125 
Q 37.796875 6.203125 41.984375 11.859375 
Q 46.1875 17.53125 46.1875 27.296875 
Q 46.1875 37.015625 41.984375 42.703125 
Q 37.796875 48.390625 30.609375 48.390625 
z
M 30.609375 56 
Q 42.328125 56 49.015625 48.375 
Q 55.71875 40.765625 55.71875 27.296875 
Q 55.71875 13.875 49.015625 6.21875 
Q 42.328125 -1.421875 30.609375 -1.421875 
Q 18.84375 -1.421875 12.171875 6.21875 
Q 5.515625 13.875 5.515625 27.296875 
Q 5.515625 40.765625 12.171875 48.375 
Q 18.84375 56 30.609375 56 
z
" id="DejaVuSans-111"/>
      <path d="M 41.109375 46.296875 
Q 39.59375 47.171875 37.8125 47.578125 
Q 36.03125 48 33.890625 48 
Q 26.265625 48 22.1875 43.046875 
Q 18.109375 38.09375 18.109375 28.8125 
L 18.109375 0 
L 9.078125 0 
L 9.078125 54.6875 
L 18.109375 54.6875 
L 18.109375 46.1875 
Q 20.953125 51.171875 25.484375 53.578125 
Q 30.03125 56 36.53125 56 
Q 37.453125 56 38.578125 55.875 
Q 39.703125 55.765625 41.0625 55.515625 
z
" id="DejaVuSans-114"/>
      <path id="DejaVuSans-32"/>
      <path d="M 44.28125 53.078125 
L 44.28125 44.578125 
Q 40.484375 46.53125 36.375 47.5 
Q 32.28125 48.484375 27.875 48.484375 
Q 21.1875 48.484375 17.84375 46.4375 
Q 14.5 44.390625 14.5 40.28125 
Q 14.5 37.15625 16.890625 35.375 
Q 19.28125 33.59375 26.515625 31.984375 
L 29.59375 31.296875 
Q 39.15625 29.25 43.1875 25.515625 
Q 47.21875 21.78125 47.21875 15.09375 
Q 47.21875 7.46875 41.1875 3.015625 
Q 35.15625 -1.421875 24.609375 -1.421875 
Q 20.21875 -1.421875 15.453125 -0.5625 
Q 10.6875 0.296875 5.421875 2 
L 5.421875 11.28125 
Q 10.40625 8.6875 15.234375 7.390625 
Q 20.0625 6.109375 24.8125 6.109375 
Q 31.15625 6.109375 34.5625 8.28125 
Q 37.984375 10.453125 37.984375 14.40625 
Q 37.984375 18.0625 35.515625 20.015625 
Q 33.0625 21.96875 24.703125 23.78125 
L 21.578125 24.515625 
Q 13.234375 26.265625 9.515625 29.90625 
Q 5.8125 33.546875 5.8125 39.890625 
Q 5.8125 47.609375 11.28125 51.796875 
Q 16.75 56 26.8125 56 
Q 31.78125 56 36.171875 55.265625 
Q 40.578125 54.546875 44.28125 53.078125 
z
" id="DejaVuSans-115"/>
      <path d="M 56.203125 29.59375 
L 56.203125 25.203125 
L 14.890625 25.203125 
Q 15.484375 15.921875 20.484375 11.0625 
Q 25.484375 6.203125 34.421875 6.203125 
Q 39.59375 6.203125 44.453125 7.46875 
Q 49.3125 8.734375 54.109375 11.28125 
L 54.109375 2.78125 
Q 49.265625 0.734375 44.1875 -0.34375 
Q 39.109375 -1.421875 33.890625 -1.421875 
Q 20.796875 -1.421875 13.15625 6.1875 
Q 5.515625 13.8125 5.515625 26.8125 
Q 5.515625 40.234375 12.765625 48.109375 
Q 20.015625 56 32.328125 56 
Q 43.359375 56 49.78125 48.890625 
Q 56.203125 41.796875 56.203125 29.59375 
z
M 47.21875 32.234375 
Q 47.125 39.59375 43.09375 43.984375 
Q 39.0625 48.390625 32.421875 48.390625 
Q 24.90625 48.390625 20.390625 44.140625 
Q 15.875 39.890625 15.1875 32.171875 
z
" id="DejaVuSans-101"/>
      <path d="M 9.421875 54.6875 
L 18.40625 54.6875 
L 18.40625 0 
L 9.421875 0 
z
M 9.421875 75.984375 
L 18.40625 75.984375 
L 18.40625 64.59375 
L 9.421875 64.59375 
z
" id="DejaVuSans-105"/>
      <path d="M 18.109375 8.203125 
L 18.109375 -20.796875 
L 9.078125 -20.796875 
L 9.078125 54.6875 
L 18.109375 54.6875 
L 18.109375 46.390625 
Q 20.953125 51.265625 25.265625 53.625 
Q 29.59375 56 35.59375 56 
Q 45.5625 56 51.78125 48.09375 
Q 58.015625 40.1875 58.015625 27.296875 
Q 58.015625 14.40625 51.78125 6.484375 
Q 45.5625 -1.421875 35.59375 -1.421875 
Q 29.59375 -1.421875 25.265625 0.953125 
Q 20.953125 3.328125 18.109375 8.203125 
z
M 48.6875 27.296875 
Q 48.6875 37.203125 44.609375 42.84375 
Q 40.53125 48.484375 33.40625 48.484375 
Q 26.265625 48.484375 22.1875 42.84375 
Q 18.109375 37.203125 18.109375 27.296875 
Q 18.109375 17.390625 22.1875 11.75 
Q 26.265625 6.109375 33.40625 6.109375 
Q 40.53125 6.109375 44.609375 11.75 
Q 48.6875 17.390625 48.6875 27.296875 
z
" id="DejaVuSans-112"/>
      <path d="M 52 44.1875 
Q 55.375 50.25 60.0625 53.125 
Q 64.75 56 71.09375 56 
Q 79.640625 56 84.28125 50.015625 
Q 88.921875 44.046875 88.921875 33.015625 
L 88.921875 0 
L 79.890625 0 
L 79.890625 32.71875 
Q 79.890625 40.578125 77.09375 44.375 
Q 74.3125 48.1875 68.609375 48.1875 
Q 61.625 48.1875 57.5625 43.546875 
Q 53.515625 38.921875 53.515625 30.90625 
L 53.515625 0 
L 44.484375 0 
L 44.484375 32.71875 
Q 44.484375 40.625 41.703125 44.40625 
Q 38.921875 48.1875 33.109375 48.1875 
Q 26.21875 48.1875 22.15625 43.53125 
Q 18.109375 38.875 18.109375 30.90625 
L 18.109375 0 
L 9.078125 0 
L 9.078125 54.6875 
L 18.109375 54.6875 
L 18.109375 46.1875 
Q 21.1875 51.21875 25.484375 53.609375 
Q 29.78125 56 35.6875 56 
Q 41.65625 56 45.828125 52.96875 
Q 50 49.953125 52 44.1875 
z
" id="DejaVuSans-109"/>
      <path d="M 18.3125 70.21875 
L 18.3125 54.6875 
L 36.8125 54.6875 
L 36.8125 47.703125 
L 18.3125 47.703125 
L 18.3125 18.015625 
Q 18.3125 11.328125 20.140625 9.421875 
Q 21.96875 7.515625 27.59375 7.515625 
L 36.8125 7.515625 
L 36.8125 0 
L 27.59375 0 
Q 17.1875 0 13.234375 3.875 
Q 9.28125 7.765625 9.28125 18.015625 
L 9.28125 47.703125 
L 2.6875 47.703125 
L 2.6875 54.6875 
L 9.28125 54.6875 
L 9.28125 70.21875 
z
" id="DejaVuSans-116"/>
      <path d="M 54.890625 33.015625 
L 54.890625 0 
L 45.90625 0 
L 45.90625 32.71875 
Q 45.90625 40.484375 42.875 44.328125 
Q 39.84375 48.1875 33.796875 48.1875 
Q 26.515625 48.1875 22.3125 43.546875 
Q 18.109375 38.921875 18.109375 30.90625 
L 18.109375 0 
L 9.078125 0 
L 9.078125 54.6875 
L 18.109375 54.6875 
L 18.109375 46.1875 
Q 21.34375 51.125 25.703125 53.5625 
Q 30.078125 56 35.796875 56 
Q 45.21875 56 50.046875 50.171875 
Q 54.890625 44.34375 54.890625 33.015625 
z
" id="DejaVuSans-110"/>
     </defs>
     <use xlink:href="#DejaVuSans-84"/>
     <use x="44.583984" xlink:href="#DejaVuSans-97"/>
     <use x="105.863281" xlink:href="#DejaVuSans-121"/>
     <use x="165.042969" xlink:href="#DejaVuSans-108"/>
     <use x="192.826172" xlink:href="#DejaVuSans-111"/>
     <use x="254.007812" xlink:href="#DejaVuSans-114"/>
     <use x="295.121094" xlink:href="#DejaVuSans-32"/>
     <use x="326.908203" xlink:href="#DejaVuSans-115"/>
     <use x="379.007812" xlink:href="#DejaVuSans-101"/>
     <use x="440.53125" xlink:href="#DejaVuSans-114"/>
     <use x="481.644531" xlink:href="#DejaVuSans-105"/>
     <use x="509.427734" xlink:href="#DejaVuSans-101"/>
     <use x="570.951172" xlink:href="#DejaVuSans-115"/>
     <use x="623.050781" xlink:href="#DejaVuSans-32"/>
     <use x="654.837891" xlink:href="#DejaVuSans-97"/>
     <use x="716.117188" xlink:href="#DejaVuSans-112"/>
     <use x="779.59375" xlink:href="#DejaVuSans-112"/>
     <use x="843.070312" xlink:href="#DejaVuSans-114"/>
     <use x="881.933594" xlink:href="#DejaVuSans-111"/>
     <use x="939.990234" xlink:href="#DejaVuSans-120"/>
     <use x="999.169922" xlink:href="#DejaVuSans-105"/>
     <use x="1026.953125" xlink:href="#DejaVuSans-109"/>
     <use x="1124.365234" xlink:href="#DejaVuSans-97"/>
     <use x="1185.644531" xlink:href="#DejaVuSans-116"/>
     <use x="1224.853516" xlink:href="#DejaVuSans-105"/>
     <use x="1252.636719" xlink:href="#DejaVuSans-111"/>
     <use x="1313.818359" xlink:href="#DejaVuSans-110"/>
    </g>
   </g>
   <g id="legend_1">
    <g id="patch_7">
     <path d="M 187.938125 302.584 
L 284.381875 302.584 
Q 286.381875 302.584 286.381875 300.584 
L 286.381875 213.51525 
Q 286.381875 211.51525 284.381875 211.51525 
L 187.938125 211.51525 
Q 185.938125 211.51525 185.938125 213.51525 
L 185.938125 300.584 
Q 185.938125 302.584 187.938125 302.584 
z
" style="fill:#e5e5e5;opacity:0.8;stroke:#cccccc;stroke-linejoin:miter;stroke-width:0.5;"/>
    </g>
    <g id="line2d_27">
     <path d="M 189.938125 219.613687 
L 209.938125 219.613687 
" style="fill:none;stroke:#e24a33;stroke-linecap:square;stroke-width:1.5;"/>
    </g>
    <g id="line2d_28"/>
    <g id="text_14">
     <!-- Order 1 -->
     <g transform="translate(217.938125 223.113687)scale(0.1 -0.1)">
      <defs>
       <path d="M 39.40625 66.21875 
Q 28.65625 66.21875 22.328125 58.203125 
Q 16.015625 50.203125 16.015625 36.375 
Q 16.015625 22.609375 22.328125 14.59375 
Q 28.65625 6.59375 39.40625 6.59375 
Q 50.140625 6.59375 56.421875 14.59375 
Q 62.703125 22.609375 62.703125 36.375 
Q 62.703125 50.203125 56.421875 58.203125 
Q 50.140625 66.21875 39.40625 66.21875 
z
M 39.40625 74.21875 
Q 54.734375 74.21875 63.90625 63.9375 
Q 73.09375 53.65625 73.09375 36.375 
Q 73.09375 19.140625 63.90625 8.859375 
Q 54.734375 -1.421875 39.40625 -1.421875 
Q 24.03125 -1.421875 14.8125 8.828125 
Q 5.609375 19.09375 5.609375 36.375 
Q 5.609375 53.65625 14.8125 63.9375 
Q 24.03125 74.21875 39.40625 74.21875 
z
" id="DejaVuSans-79"/>
       <path d="M 45.40625 46.390625 
L 45.40625 75.984375 
L 54.390625 75.984375 
L 54.390625 0 
L 45.40625 0 
L 45.40625 8.203125 
Q 42.578125 3.328125 38.25 0.953125 
Q 33.9375 -1.421875 27.875 -1.421875 
Q 17.96875 -1.421875 11.734375 6.484375 
Q 5.515625 14.40625 5.515625 27.296875 
Q 5.515625 40.1875 11.734375 48.09375 
Q 17.96875 56 27.875 56 
Q 33.9375 56 38.25 53.625 
Q 42.578125 51.265625 45.40625 46.390625 
z
M 14.796875 27.296875 
Q 14.796875 17.390625 18.875 11.75 
Q 22.953125 6.109375 30.078125 6.109375 
Q 37.203125 6.109375 41.296875 11.75 
Q 45.40625 17.390625 45.40625 27.296875 
Q 45.40625 37.203125 41.296875 42.84375 
Q 37.203125 48.484375 30.078125 48.484375 
Q 22.953125 48.484375 18.875 42.84375 
Q 14.796875 37.203125 14.796875 27.296875 
z
" id="DejaVuSans-100"/>
       <path d="M 12.40625 8.296875 
L 28.515625 8.296875 
L 28.515625 63.921875 
L 10.984375 60.40625 
L 10.984375 69.390625 
L 28.421875 72.90625 
L 38.28125 72.90625 
L 38.28125 8.296875 
L 54.390625 8.296875 
L 54.390625 0 
L 12.40625 0 
z
" id="DejaVuSans-49"/>
      </defs>
      <use xlink:href="#DejaVuSans-79"/>
      <use x="78.710938" xlink:href="#DejaVuSans-114"/>
      <use x="118.074219" xlink:href="#DejaVuSans-100"/>
      <use x="181.550781" xlink:href="#DejaVuSans-101"/>
      <use x="243.074219" xlink:href="#DejaVuSans-114"/>
      <use x="284.1875" xlink:href="#DejaVuSans-32"/>
      <use x="315.974609" xlink:href="#DejaVuSans-49"/>
     </g>
    </g>
    <g id="line2d_29">
     <path d="M 189.938125 234.291812 
L 209.938125 234.291812 
" style="fill:none;stroke:#348abd;stroke-linecap:square;stroke-width:1.5;"/>
    </g>
    <g id="line2d_30"/>
    <g id="text_15">
     <!-- Order 3 -->
     <g transform="translate(217.938125 237.791812)scale(0.1 -0.1)">
      <defs>
       <path d="M 40.578125 39.3125 
Q 47.65625 37.796875 51.625 33 
Q 55.609375 28.21875 55.609375 21.1875 
Q 55.609375 10.40625 48.1875 4.484375 
Q 40.765625 -1.421875 27.09375 -1.421875 
Q 22.515625 -1.421875 17.65625 -0.515625 
Q 12.796875 0.390625 7.625 2.203125 
L 7.625 11.71875 
Q 11.71875 9.328125 16.59375 8.109375 
Q 21.484375 6.890625 26.8125 6.890625 
Q 36.078125 6.890625 40.9375 10.546875 
Q 45.796875 14.203125 45.796875 21.1875 
Q 45.796875 27.640625 41.28125 31.265625 
Q 36.765625 34.90625 28.71875 34.90625 
L 20.21875 34.90625 
L 20.21875 43.015625 
L 29.109375 43.015625 
Q 36.375 43.015625 40.234375 45.921875 
Q 44.09375 48.828125 44.09375 54.296875 
Q 44.09375 59.90625 40.109375 62.90625 
Q 36.140625 65.921875 28.71875 65.921875 
Q 24.65625 65.921875 20.015625 65.03125 
Q 15.375 64.15625 9.8125 62.3125 
L 9.8125 71.09375 
Q 15.4375 72.65625 20.34375 73.4375 
Q 25.25 74.21875 29.59375 74.21875 
Q 40.828125 74.21875 47.359375 69.109375 
Q 53.90625 64.015625 53.90625 55.328125 
Q 53.90625 49.265625 50.4375 45.09375 
Q 46.96875 40.921875 40.578125 39.3125 
z
" id="DejaVuSans-51"/>
      </defs>
      <use xlink:href="#DejaVuSans-79"/>
      <use x="78.710938" xlink:href="#DejaVuSans-114"/>
      <use x="118.074219" xlink:href="#DejaVuSans-100"/>
      <use x="181.550781" xlink:href="#DejaVuSans-101"/>
      <use x="243.074219" xlink:href="#DejaVuSans-114"/>
      <use x="284.1875" xlink:href="#DejaVuSans-32"/>
      <use x="315.974609" xlink:href="#DejaVuSans-51"/>
     </g>
    </g>
    <g id="line2d_31">
     <path d="M 189.938125 248.969937 
L 209.938125 248.969937 
" style="fill:none;stroke:#988ed5;stroke-linecap:square;stroke-width:1.5;"/>
    </g>
    <g id="line2d_32"/>
    <g id="text_16">
     <!-- Order 5 -->
     <g transform="translate(217.938125 252.469937)scale(0.1 -0.1)">
      <defs>
       <path d="M 10.796875 72.90625 
L 49.515625 72.90625 
L 49.515625 64.59375 
L 19.828125 64.59375 
L 19.828125 46.734375 
Q 21.96875 47.46875 24.109375 47.828125 
Q 26.265625 48.1875 28.421875 48.1875 
Q 40.625 48.1875 47.75 41.5 
Q 54.890625 34.8125 54.890625 23.390625 
Q 54.890625 11.625 47.5625 5.09375 
Q 40.234375 -1.421875 26.90625 -1.421875 
Q 22.3125 -1.421875 17.546875 -0.640625 
Q 12.796875 0.140625 7.71875 1.703125 
L 7.71875 11.625 
Q 12.109375 9.234375 16.796875 8.0625 
Q 21.484375 6.890625 26.703125 6.890625 
Q 35.15625 6.890625 40.078125 11.328125 
Q 45.015625 15.765625 45.015625 23.390625 
Q 45.015625 31 40.078125 35.4375 
Q 35.15625 39.890625 26.703125 39.890625 
Q 22.75 39.890625 18.8125 39.015625 
Q 14.890625 38.140625 10.796875 36.28125 
z
" id="DejaVuSans-53"/>
      </defs>
      <use xlink:href="#DejaVuSans-79"/>
      <use x="78.710938" xlink:href="#DejaVuSans-114"/>
      <use x="118.074219" xlink:href="#DejaVuSans-100"/>
      <use x="181.550781" xlink:href="#DejaVuSans-101"/>
      <use x="243.074219" xlink:href="#DejaVuSans-114"/>
      <use x="284.1875" xlink:href="#DejaVuSans-32"/>
      <use x="315.974609" xlink:href="#DejaVuSans-53"/>
     </g>
    </g>
    <g id="line2d_33">
     <path d="M 189.938125 263.648062 
L 209.938125 263.648062 
" style="fill:none;stroke:#777777;stroke-linecap:square;stroke-width:1.5;"/>
    </g>
    <g id="line2d_34"/>
    <g id="text_17">
     <!-- Order 7 -->
     <g transform="translate(217.938125 267.148062)scale(0.1 -0.1)">
      <defs>
       <path d="M 8.203125 72.90625 
L 55.078125 72.90625 
L 55.078125 68.703125 
L 28.609375 0 
L 18.3125 0 
L 43.21875 64.59375 
L 8.203125 64.59375 
z
" id="DejaVuSans-55"/>
      </defs>
      <use xlink:href="#DejaVuSans-79"/>
      <use x="78.710938" xlink:href="#DejaVuSans-114"/>
      <use x="118.074219" xlink:href="#DejaVuSans-100"/>
      <use x="181.550781" xlink:href="#DejaVuSans-101"/>
      <use x="243.074219" xlink:href="#DejaVuSans-114"/>
      <use x="284.1875" xlink:href="#DejaVuSans-32"/>
      <use x="315.974609" xlink:href="#DejaVuSans-55"/>
     </g>
    </g>
    <g id="line2d_35">
     <path d="M 189.938125 278.326188 
L 209.938125 278.326188 
" style="fill:none;stroke:#fbc15e;stroke-linecap:square;stroke-width:1.5;"/>
    </g>
    <g id="line2d_36"/>
    <g id="text_18">
     <!-- Order 9 -->
     <g transform="translate(217.938125 281.826188)scale(0.1 -0.1)">
      <defs>
       <path d="M 10.984375 1.515625 
L 10.984375 10.5 
Q 14.703125 8.734375 18.5 7.8125 
Q 22.3125 6.890625 25.984375 6.890625 
Q 35.75 6.890625 40.890625 13.453125 
Q 46.046875 20.015625 46.78125 33.40625 
Q 43.953125 29.203125 39.59375 26.953125 
Q 35.25 24.703125 29.984375 24.703125 
Q 19.046875 24.703125 12.671875 31.3125 
Q 6.296875 37.9375 6.296875 49.421875 
Q 6.296875 60.640625 12.9375 67.421875 
Q 19.578125 74.21875 30.609375 74.21875 
Q 43.265625 74.21875 49.921875 64.515625 
Q 56.59375 54.828125 56.59375 36.375 
Q 56.59375 19.140625 48.40625 8.859375 
Q 40.234375 -1.421875 26.421875 -1.421875 
Q 22.703125 -1.421875 18.890625 -0.6875 
Q 15.09375 0.046875 10.984375 1.515625 
z
M 30.609375 32.421875 
Q 37.25 32.421875 41.125 36.953125 
Q 45.015625 41.5 45.015625 49.421875 
Q 45.015625 57.28125 41.125 61.84375 
Q 37.25 66.40625 30.609375 66.40625 
Q 23.96875 66.40625 20.09375 61.84375 
Q 16.21875 57.28125 16.21875 49.421875 
Q 16.21875 41.5 20.09375 36.953125 
Q 23.96875 32.421875 30.609375 32.421875 
z
" id="DejaVuSans-57"/>
      </defs>
      <use xlink:href="#DejaVuSans-79"/>
      <use x="78.710938" xlink:href="#DejaVuSans-114"/>
      <use x="118.074219" xlink:href="#DejaVuSans-100"/>
      <use x="181.550781" xlink:href="#DejaVuSans-101"/>
      <use x="243.074219" xlink:href="#DejaVuSans-114"/>
      <use x="284.1875" xlink:href="#DejaVuSans-32"/>
      <use x="315.974609" xlink:href="#DejaVuSans-57"/>
     </g>
    </g>
    <g id="line2d_37">
     <path d="M 189.938125 293.004312 
L 209.938125 293.004312 
" style="fill:none;stroke:#8eba42;stroke-linecap:square;stroke-width:1.5;"/>
    </g>
    <g id="line2d_38"/>
    <g id="text_19">
     <!-- Function of x -->
     <g transform="translate(217.938125 296.504312)scale(0.1 -0.1)">
      <defs>
       <path d="M 9.8125 72.90625 
L 51.703125 72.90625 
L 51.703125 64.59375 
L 19.671875 64.59375 
L 19.671875 43.109375 
L 48.578125 43.109375 
L 48.578125 34.8125 
L 19.671875 34.8125 
L 19.671875 0 
L 9.8125 0 
z
" id="DejaVuSans-70"/>
       <path d="M 8.5 21.578125 
L 8.5 54.6875 
L 17.484375 54.6875 
L 17.484375 21.921875 
Q 17.484375 14.15625 20.5 10.265625 
Q 23.53125 6.390625 29.59375 6.390625 
Q 36.859375 6.390625 41.078125 11.03125 
Q 45.3125 15.671875 45.3125 23.6875 
L 45.3125 54.6875 
L 54.296875 54.6875 
L 54.296875 0 
L 45.3125 0 
L 45.3125 8.40625 
Q 42.046875 3.421875 37.71875 1 
Q 33.40625 -1.421875 27.6875 -1.421875 
Q 18.265625 -1.421875 13.375 4.4375 
Q 8.5 10.296875 8.5 21.578125 
z
M 31.109375 56 
z
" id="DejaVuSans-117"/>
       <path d="M 48.78125 52.59375 
L 48.78125 44.1875 
Q 44.96875 46.296875 41.140625 47.34375 
Q 37.3125 48.390625 33.40625 48.390625 
Q 24.65625 48.390625 19.8125 42.84375 
Q 14.984375 37.3125 14.984375 27.296875 
Q 14.984375 17.28125 19.8125 11.734375 
Q 24.65625 6.203125 33.40625 6.203125 
Q 37.3125 6.203125 41.140625 7.25 
Q 44.96875 8.296875 48.78125 10.40625 
L 48.78125 2.09375 
Q 45.015625 0.34375 40.984375 -0.53125 
Q 36.96875 -1.421875 32.421875 -1.421875 
Q 20.0625 -1.421875 12.78125 6.34375 
Q 5.515625 14.109375 5.515625 27.296875 
Q 5.515625 40.671875 12.859375 48.328125 
Q 20.21875 56 33.015625 56 
Q 37.15625 56 41.109375 55.140625 
Q 45.0625 54.296875 48.78125 52.59375 
z
" id="DejaVuSans-99"/>
       <path d="M 37.109375 75.984375 
L 37.109375 68.5 
L 28.515625 68.5 
Q 23.6875 68.5 21.796875 66.546875 
Q 19.921875 64.59375 19.921875 59.515625 
L 19.921875 54.6875 
L 34.71875 54.6875 
L 34.71875 47.703125 
L 19.921875 47.703125 
L 19.921875 0 
L 10.890625 0 
L 10.890625 47.703125 
L 2.296875 47.703125 
L 2.296875 54.6875 
L 10.890625 54.6875 
L 10.890625 58.5 
Q 10.890625 67.625 15.140625 71.796875 
Q 19.390625 75.984375 28.609375 75.984375 
z
" id="DejaVuSans-102"/>
      </defs>
      <use xlink:href="#DejaVuSans-70"/>
      <use x="52.019531" xlink:href="#DejaVuSans-117"/>
      <use x="115.398438" xlink:href="#DejaVuSans-110"/>
      <use x="178.777344" xlink:href="#DejaVuSans-99"/>
      <use x="233.757812" xlink:href="#DejaVuSans-116"/>
      <use x="272.966797" xlink:href="#DejaVuSans-105"/>
      <use x="300.75" xlink:href="#DejaVuSans-111"/>
      <use x="361.931641" xlink:href="#DejaVuSans-110"/>
      <use x="425.310547" xlink:href="#DejaVuSans-32"/>
      <use x="457.097656" xlink:href="#DejaVuSans-111"/>
      <use x="518.279297" xlink:href="#DejaVuSans-102"/>
      <use x="553.484375" xlink:href="#DejaVuSans-32"/>
      <use x="585.271484" xlink:href="#DejaVuSans-120"/>
     </g>
    </g>
   </g>
  </g>
 </g>
 <defs>
  <clipPath id="p001c7518a6">
   <rect height="266.112" width="357.12" x="57.6" y="41.472"/>
  </clipPath>
 </defs>
</svg>
