<?xml version="1.0" encoding="utf-8" standalone="no"?>
<!DOCTYPE svg PUBLIC "-//W3C//DTD SVG 1.1//EN"
  "http://www.w3.org/Graphics/SVG/1.1/DTD/svg11.dtd">
<!-- Created with matplotlib (https://matplotlib.org/) -->
<svg height="352.8pt" version="1.1" viewBox="0 0 667.44 352.8" width="667.44pt" xmlns="http://www.w3.org/2000/svg" xmlns:xlink="http://www.w3.org/1999/xlink">
 <metadata>
  <rdf:RDF xmlns:cc="http://creativecommons.org/ns#" xmlns:dc="http://purl.org/dc/elements/1.1/" xmlns:rdf="http://www.w3.org/1999/02/22-rdf-syntax-ns#">
   <cc:Work>
    <dc:type rdf:resource="http://purl.org/dc/dcmitype/StillImage"/>
    <dc:date>2021-01-21T15:03:35.958101</dc:date>
    <dc:format>image/svg+xml</dc:format>
    <dc:creator>
     <cc:Agent>
      <dc:title>Matplotlib v3.3.2, https://matplotlib.org/</dc:title>
     </cc:Agent>
    </dc:creator>
   </cc:Work>
  </rdf:RDF>
 </metadata>
 <defs>
  <style type="text/css">*{stroke-linecap:butt;stroke-linejoin:round;}</style>
 </defs>
 <g id="figure_1">
  <g id="patch_1">
   <path d="M 0 352.8 
L 667.44 352.8 
L 667.44 0 
L 0 0 
z
" style="fill:#ffffff;"/>
  </g>
  <g id="axes_1">
   <g id="patch_2">
    <path d="M 83.43 313.992 
L 600.696 313.992 
L 600.696 42.336 
L 83.43 42.336 
z
" style="fill:#ffffff;"/>
   </g>
   <g id="PathCollection_1">
    <defs>
     <path d="M 0 3 
C 0.795609 3 1.55874 2.683901 2.12132 2.12132 
C 2.683901 1.55874 3 0.795609 3 0 
C 3 -0.795609 2.683901 -1.55874 2.12132 -2.12132 
C 1.55874 -2.683901 0.795609 -3 0 -3 
C -0.795609 -3 -1.55874 -2.683901 -2.12132 -2.12132 
C -2.683901 -1.55874 -3 -0.795609 -3 0 
C -3 0.795609 -2.683901 1.55874 -2.12132 2.12132 
C -1.55874 2.683901 -0.795609 3 0 3 
z
" id="m7cc7d8f9ac" style="stroke:#1f77b4;"/>
    </defs>
    <g clip-path="url(#pe47f3a0e24)">
     <use style="fill:#1f77b4;stroke:#1f77b4;" x="106.942091" xlink:href="#m7cc7d8f9ac" y="242.666566"/>
     <use style="fill:#1f77b4;stroke:#1f77b4;" x="111.692008" xlink:href="#m7cc7d8f9ac" y="300.497288"/>
     <use style="fill:#1f77b4;stroke:#1f77b4;" x="116.441926" xlink:href="#m7cc7d8f9ac" y="291.861721"/>
     <use style="fill:#1f77b4;stroke:#1f77b4;" x="121.191843" xlink:href="#m7cc7d8f9ac" y="256.611503"/>
     <use style="fill:#1f77b4;stroke:#1f77b4;" x="125.94176" xlink:href="#m7cc7d8f9ac" y="228.197012"/>
     <use style="fill:#1f77b4;stroke:#1f77b4;" x="130.691678" xlink:href="#m7cc7d8f9ac" y="229.008856"/>
     <use style="fill:#1f77b4;stroke:#1f77b4;" x="135.441595" xlink:href="#m7cc7d8f9ac" y="213.438512"/>
     <use style="fill:#1f77b4;stroke:#1f77b4;" x="140.191512" xlink:href="#m7cc7d8f9ac" y="266.493321"/>
     <use style="fill:#1f77b4;stroke:#1f77b4;" x="144.94143" xlink:href="#m7cc7d8f9ac" y="268.738469"/>
     <use style="fill:#1f77b4;stroke:#1f77b4;" x="149.691347" xlink:href="#m7cc7d8f9ac" y="295.770113"/>
     <use style="fill:#1f77b4;stroke:#1f77b4;" x="154.441264" xlink:href="#m7cc7d8f9ac" y="233.165948"/>
     <use style="fill:#1f77b4;stroke:#1f77b4;" x="159.191182" xlink:href="#m7cc7d8f9ac" y="272.385869"/>
     <use style="fill:#1f77b4;stroke:#1f77b4;" x="163.941099" xlink:href="#m7cc7d8f9ac" y="204.157911"/>
     <use style="fill:#1f77b4;stroke:#1f77b4;" x="168.691017" xlink:href="#m7cc7d8f9ac" y="260.334619"/>
     <use style="fill:#1f77b4;stroke:#1f77b4;" x="173.440934" xlink:href="#m7cc7d8f9ac" y="195.140238"/>
     <use style="fill:#1f77b4;stroke:#1f77b4;" x="178.190851" xlink:href="#m7cc7d8f9ac" y="279.429559"/>
     <use style="fill:#1f77b4;stroke:#1f77b4;" x="182.940769" xlink:href="#m7cc7d8f9ac" y="276.88763"/>
     <use style="fill:#1f77b4;stroke:#1f77b4;" x="187.690686" xlink:href="#m7cc7d8f9ac" y="208.81723"/>
     <use style="fill:#1f77b4;stroke:#1f77b4;" x="192.440603" xlink:href="#m7cc7d8f9ac" y="234.874543"/>
     <use style="fill:#1f77b4;stroke:#1f77b4;" x="197.190521" xlink:href="#m7cc7d8f9ac" y="265.757574"/>
     <use style="fill:#1f77b4;stroke:#1f77b4;" x="201.940438" xlink:href="#m7cc7d8f9ac" y="232.750238"/>
     <use style="fill:#1f77b4;stroke:#1f77b4;" x="206.690355" xlink:href="#m7cc7d8f9ac" y="242.877431"/>
     <use style="fill:#1f77b4;stroke:#1f77b4;" x="211.440273" xlink:href="#m7cc7d8f9ac" y="223.537424"/>
     <use style="fill:#1f77b4;stroke:#1f77b4;" x="216.19019" xlink:href="#m7cc7d8f9ac" y="253.370451"/>
     <use style="fill:#1f77b4;stroke:#1f77b4;" x="220.940107" xlink:href="#m7cc7d8f9ac" y="211.32617"/>
     <use style="fill:#1f77b4;stroke:#1f77b4;" x="225.690025" xlink:href="#m7cc7d8f9ac" y="301.644"/>
     <use style="fill:#1f77b4;stroke:#1f77b4;" x="230.439942" xlink:href="#m7cc7d8f9ac" y="208.956345"/>
     <use style="fill:#1f77b4;stroke:#1f77b4;" x="235.18986" xlink:href="#m7cc7d8f9ac" y="262.488806"/>
     <use style="fill:#1f77b4;stroke:#1f77b4;" x="239.939777" xlink:href="#m7cc7d8f9ac" y="251.418436"/>
     <use style="fill:#1f77b4;stroke:#1f77b4;" x="244.689694" xlink:href="#m7cc7d8f9ac" y="234.680523"/>
     <use style="fill:#1f77b4;stroke:#1f77b4;" x="249.439612" xlink:href="#m7cc7d8f9ac" y="194.432239"/>
     <use style="fill:#1f77b4;stroke:#1f77b4;" x="254.189529" xlink:href="#m7cc7d8f9ac" y="129.162268"/>
     <use style="fill:#1f77b4;stroke:#1f77b4;" x="258.939446" xlink:href="#m7cc7d8f9ac" y="178.62365"/>
     <use style="fill:#1f77b4;stroke:#1f77b4;" x="263.689364" xlink:href="#m7cc7d8f9ac" y="262.539023"/>
     <use style="fill:#1f77b4;stroke:#1f77b4;" x="268.439281" xlink:href="#m7cc7d8f9ac" y="260.796183"/>
     <use style="fill:#1f77b4;stroke:#1f77b4;" x="273.189198" xlink:href="#m7cc7d8f9ac" y="170.547141"/>
     <use style="fill:#1f77b4;stroke:#1f77b4;" x="277.939116" xlink:href="#m7cc7d8f9ac" y="201.778261"/>
     <use style="fill:#1f77b4;stroke:#1f77b4;" x="282.689033" xlink:href="#m7cc7d8f9ac" y="278.443931"/>
     <use style="fill:#1f77b4;stroke:#1f77b4;" x="287.43895" xlink:href="#m7cc7d8f9ac" y="158.313722"/>
     <use style="fill:#1f77b4;stroke:#1f77b4;" x="292.188868" xlink:href="#m7cc7d8f9ac" y="173.332154"/>
     <use style="fill:#1f77b4;stroke:#1f77b4;" x="296.938785" xlink:href="#m7cc7d8f9ac" y="221.749104"/>
     <use style="fill:#1f77b4;stroke:#1f77b4;" x="301.688702" xlink:href="#m7cc7d8f9ac" y="198.804528"/>
     <use style="fill:#1f77b4;stroke:#1f77b4;" x="306.43862" xlink:href="#m7cc7d8f9ac" y="186.405642"/>
     <use style="fill:#1f77b4;stroke:#1f77b4;" x="311.188537" xlink:href="#m7cc7d8f9ac" y="239.505255"/>
     <use style="fill:#1f77b4;stroke:#1f77b4;" x="315.938455" xlink:href="#m7cc7d8f9ac" y="205.472518"/>
     <use style="fill:#1f77b4;stroke:#1f77b4;" x="320.688372" xlink:href="#m7cc7d8f9ac" y="190.979637"/>
     <use style="fill:#1f77b4;stroke:#1f77b4;" x="325.438289" xlink:href="#m7cc7d8f9ac" y="224.532876"/>
     <use style="fill:#1f77b4;stroke:#1f77b4;" x="330.188207" xlink:href="#m7cc7d8f9ac" y="190.101492"/>
     <use style="fill:#1f77b4;stroke:#1f77b4;" x="334.938124" xlink:href="#m7cc7d8f9ac" y="185.479429"/>
     <use style="fill:#1f77b4;stroke:#1f77b4;" x="339.688041" xlink:href="#m7cc7d8f9ac" y="177.773352"/>
     <use style="fill:#1f77b4;stroke:#1f77b4;" x="344.437959" xlink:href="#m7cc7d8f9ac" y="211.947622"/>
     <use style="fill:#1f77b4;stroke:#1f77b4;" x="349.187876" xlink:href="#m7cc7d8f9ac" y="146.336224"/>
     <use style="fill:#1f77b4;stroke:#1f77b4;" x="353.937793" xlink:href="#m7cc7d8f9ac" y="223.518005"/>
     <use style="fill:#1f77b4;stroke:#1f77b4;" x="358.687711" xlink:href="#m7cc7d8f9ac" y="183.420707"/>
     <use style="fill:#1f77b4;stroke:#1f77b4;" x="363.437628" xlink:href="#m7cc7d8f9ac" y="251.557394"/>
     <use style="fill:#1f77b4;stroke:#1f77b4;" x="368.187545" xlink:href="#m7cc7d8f9ac" y="209.689445"/>
     <use style="fill:#1f77b4;stroke:#1f77b4;" x="372.937463" xlink:href="#m7cc7d8f9ac" y="166.866492"/>
     <use style="fill:#1f77b4;stroke:#1f77b4;" x="377.68738" xlink:href="#m7cc7d8f9ac" y="131.645418"/>
     <use style="fill:#1f77b4;stroke:#1f77b4;" x="382.437298" xlink:href="#m7cc7d8f9ac" y="233.928698"/>
     <use style="fill:#1f77b4;stroke:#1f77b4;" x="387.187215" xlink:href="#m7cc7d8f9ac" y="191.306667"/>
     <use style="fill:#1f77b4;stroke:#1f77b4;" x="391.937132" xlink:href="#m7cc7d8f9ac" y="170.164342"/>
     <use style="fill:#1f77b4;stroke:#1f77b4;" x="396.68705" xlink:href="#m7cc7d8f9ac" y="143.343769"/>
     <use style="fill:#1f77b4;stroke:#1f77b4;" x="401.436967" xlink:href="#m7cc7d8f9ac" y="163.349409"/>
     <use style="fill:#1f77b4;stroke:#1f77b4;" x="406.186884" xlink:href="#m7cc7d8f9ac" y="177.832822"/>
     <use style="fill:#1f77b4;stroke:#1f77b4;" x="410.936802" xlink:href="#m7cc7d8f9ac" y="160.45313"/>
     <use style="fill:#1f77b4;stroke:#1f77b4;" x="415.686719" xlink:href="#m7cc7d8f9ac" y="151.446232"/>
     <use style="fill:#1f77b4;stroke:#1f77b4;" x="420.436636" xlink:href="#m7cc7d8f9ac" y="235.200806"/>
     <use style="fill:#1f77b4;stroke:#1f77b4;" x="425.186554" xlink:href="#m7cc7d8f9ac" y="191.630072"/>
     <use style="fill:#1f77b4;stroke:#1f77b4;" x="429.936471" xlink:href="#m7cc7d8f9ac" y="160.227105"/>
     <use style="fill:#1f77b4;stroke:#1f77b4;" x="434.686388" xlink:href="#m7cc7d8f9ac" y="208.957164"/>
     <use style="fill:#1f77b4;stroke:#1f77b4;" x="439.436306" xlink:href="#m7cc7d8f9ac" y="138.874055"/>
     <use style="fill:#1f77b4;stroke:#1f77b4;" x="444.186223" xlink:href="#m7cc7d8f9ac" y="148.053423"/>
     <use style="fill:#1f77b4;stroke:#1f77b4;" x="448.93614" xlink:href="#m7cc7d8f9ac" y="153.317765"/>
     <use style="fill:#1f77b4;stroke:#1f77b4;" x="453.686058" xlink:href="#m7cc7d8f9ac" y="145.758157"/>
     <use style="fill:#1f77b4;stroke:#1f77b4;" x="458.435975" xlink:href="#m7cc7d8f9ac" y="166.548869"/>
     <use style="fill:#1f77b4;stroke:#1f77b4;" x="463.185893" xlink:href="#m7cc7d8f9ac" y="121.750029"/>
     <use style="fill:#1f77b4;stroke:#1f77b4;" x="467.93581" xlink:href="#m7cc7d8f9ac" y="127.155046"/>
     <use style="fill:#1f77b4;stroke:#1f77b4;" x="472.685727" xlink:href="#m7cc7d8f9ac" y="191.282934"/>
     <use style="fill:#1f77b4;stroke:#1f77b4;" x="477.435645" xlink:href="#m7cc7d8f9ac" y="180.368306"/>
     <use style="fill:#1f77b4;stroke:#1f77b4;" x="482.185562" xlink:href="#m7cc7d8f9ac" y="151.518148"/>
     <use style="fill:#1f77b4;stroke:#1f77b4;" x="486.935479" xlink:href="#m7cc7d8f9ac" y="190.195093"/>
     <use style="fill:#1f77b4;stroke:#1f77b4;" x="491.685397" xlink:href="#m7cc7d8f9ac" y="96.074903"/>
     <use style="fill:#1f77b4;stroke:#1f77b4;" x="496.435314" xlink:href="#m7cc7d8f9ac" y="98.556162"/>
     <use style="fill:#1f77b4;stroke:#1f77b4;" x="501.185231" xlink:href="#m7cc7d8f9ac" y="175.467648"/>
     <use style="fill:#1f77b4;stroke:#1f77b4;" x="505.935149" xlink:href="#m7cc7d8f9ac" y="136.930521"/>
     <use style="fill:#1f77b4;stroke:#1f77b4;" x="510.685066" xlink:href="#m7cc7d8f9ac" y="165.918812"/>
     <use style="fill:#1f77b4;stroke:#1f77b4;" x="515.434983" xlink:href="#m7cc7d8f9ac" y="184.599492"/>
     <use style="fill:#1f77b4;stroke:#1f77b4;" x="520.184901" xlink:href="#m7cc7d8f9ac" y="168.518907"/>
     <use style="fill:#1f77b4;stroke:#1f77b4;" x="524.934818" xlink:href="#m7cc7d8f9ac" y="145.917461"/>
     <use style="fill:#1f77b4;stroke:#1f77b4;" x="529.684736" xlink:href="#m7cc7d8f9ac" y="190.784786"/>
     <use style="fill:#1f77b4;stroke:#1f77b4;" x="534.434653" xlink:href="#m7cc7d8f9ac" y="124.519501"/>
     <use style="fill:#1f77b4;stroke:#1f77b4;" x="539.18457" xlink:href="#m7cc7d8f9ac" y="167.210475"/>
     <use style="fill:#1f77b4;stroke:#1f77b4;" x="543.934488" xlink:href="#m7cc7d8f9ac" y="153.114756"/>
     <use style="fill:#1f77b4;stroke:#1f77b4;" x="548.684405" xlink:href="#m7cc7d8f9ac" y="162.865375"/>
     <use style="fill:#1f77b4;stroke:#1f77b4;" x="553.434322" xlink:href="#m7cc7d8f9ac" y="91.448979"/>
     <use style="fill:#1f77b4;stroke:#1f77b4;" x="558.18424" xlink:href="#m7cc7d8f9ac" y="54.684"/>
     <use style="fill:#1f77b4;stroke:#1f77b4;" x="562.934157" xlink:href="#m7cc7d8f9ac" y="148.264125"/>
     <use style="fill:#1f77b4;stroke:#1f77b4;" x="567.684074" xlink:href="#m7cc7d8f9ac" y="95.565029"/>
     <use style="fill:#1f77b4;stroke:#1f77b4;" x="572.433992" xlink:href="#m7cc7d8f9ac" y="71.320158"/>
     <use style="fill:#1f77b4;stroke:#1f77b4;" x="577.183909" xlink:href="#m7cc7d8f9ac" y="138.075236"/>
    </g>
   </g>
   <g id="matplotlib.axis_1">
    <g id="xtick_1">
     <g id="line2d_1">
      <defs>
       <path d="M 0 0 
L 0 3.5 
" id="mbddc2e4895" style="stroke:#000000;stroke-width:0.8;"/>
      </defs>
      <g>
       <use style="stroke:#000000;stroke-width:0.8;" x="153.966273" xlink:href="#mbddc2e4895" y="313.992"/>
      </g>
     </g>
     <g id="text_1">
      <!-- −4 -->
      <g transform="translate(146.595179 328.590438)scale(0.1 -0.1)">
       <defs>
        <path d="M 10.59375 35.5 
L 73.1875 35.5 
L 73.1875 27.203125 
L 10.59375 27.203125 
z
" id="DejaVuSans-8722"/>
        <path d="M 37.796875 64.3125 
L 12.890625 25.390625 
L 37.796875 25.390625 
z
M 35.203125 72.90625 
L 47.609375 72.90625 
L 47.609375 25.390625 
L 58.015625 25.390625 
L 58.015625 17.1875 
L 47.609375 17.1875 
L 47.609375 0 
L 37.796875 0 
L 37.796875 17.1875 
L 4.890625 17.1875 
L 4.890625 26.703125 
z
" id="DejaVuSans-52"/>
       </defs>
       <use xlink:href="#DejaVuSans-8722"/>
       <use x="83.789062" xlink:href="#DejaVuSans-52"/>
      </g>
     </g>
    </g>
    <g id="xtick_2">
     <g id="line2d_2">
      <g>
       <use style="stroke:#000000;stroke-width:0.8;" x="248.014636" xlink:href="#mbddc2e4895" y="313.992"/>
      </g>
     </g>
     <g id="text_2">
      <!-- −2 -->
      <g transform="translate(240.643543 328.590438)scale(0.1 -0.1)">
       <defs>
        <path d="M 19.1875 8.296875 
L 53.609375 8.296875 
L 53.609375 0 
L 7.328125 0 
L 7.328125 8.296875 
Q 12.9375 14.109375 22.625 23.890625 
Q 32.328125 33.6875 34.8125 36.53125 
Q 39.546875 41.84375 41.421875 45.53125 
Q 43.3125 49.21875 43.3125 52.78125 
Q 43.3125 58.59375 39.234375 62.25 
Q 35.15625 65.921875 28.609375 65.921875 
Q 23.96875 65.921875 18.8125 64.3125 
Q 13.671875 62.703125 7.8125 59.421875 
L 7.8125 69.390625 
Q 13.765625 71.78125 18.9375 73 
Q 24.125 74.21875 28.421875 74.21875 
Q 39.75 74.21875 46.484375 68.546875 
Q 53.21875 62.890625 53.21875 53.421875 
Q 53.21875 48.921875 51.53125 44.890625 
Q 49.859375 40.875 45.40625 35.40625 
Q 44.1875 33.984375 37.640625 27.21875 
Q 31.109375 20.453125 19.1875 8.296875 
z
" id="DejaVuSans-50"/>
       </defs>
       <use xlink:href="#DejaVuSans-8722"/>
       <use x="83.789062" xlink:href="#DejaVuSans-50"/>
      </g>
     </g>
    </g>
    <g id="xtick_3">
     <g id="line2d_3">
      <g>
       <use style="stroke:#000000;stroke-width:0.8;" x="342.063" xlink:href="#mbddc2e4895" y="313.992"/>
      </g>
     </g>
     <g id="text_3">
      <!-- 0 -->
      <g transform="translate(338.88175 328.590438)scale(0.1 -0.1)">
       <defs>
        <path d="M 31.78125 66.40625 
Q 24.171875 66.40625 20.328125 58.90625 
Q 16.5 51.421875 16.5 36.375 
Q 16.5 21.390625 20.328125 13.890625 
Q 24.171875 6.390625 31.78125 6.390625 
Q 39.453125 6.390625 43.28125 13.890625 
Q 47.125 21.390625 47.125 36.375 
Q 47.125 51.421875 43.28125 58.90625 
Q 39.453125 66.40625 31.78125 66.40625 
z
M 31.78125 74.21875 
Q 44.046875 74.21875 50.515625 64.515625 
Q 56.984375 54.828125 56.984375 36.375 
Q 56.984375 17.96875 50.515625 8.265625 
Q 44.046875 -1.421875 31.78125 -1.421875 
Q 19.53125 -1.421875 13.0625 8.265625 
Q 6.59375 17.96875 6.59375 36.375 
Q 6.59375 54.828125 13.0625 64.515625 
Q 19.53125 74.21875 31.78125 74.21875 
z
" id="DejaVuSans-48"/>
       </defs>
       <use xlink:href="#DejaVuSans-48"/>
      </g>
     </g>
    </g>
    <g id="xtick_4">
     <g id="line2d_4">
      <g>
       <use style="stroke:#000000;stroke-width:0.8;" x="436.111364" xlink:href="#mbddc2e4895" y="313.992"/>
      </g>
     </g>
     <g id="text_4">
      <!-- 2 -->
      <g transform="translate(432.930114 328.590438)scale(0.1 -0.1)">
       <use xlink:href="#DejaVuSans-50"/>
      </g>
     </g>
    </g>
    <g id="xtick_5">
     <g id="line2d_5">
      <g>
       <use style="stroke:#000000;stroke-width:0.8;" x="530.159727" xlink:href="#mbddc2e4895" y="313.992"/>
      </g>
     </g>
     <g id="text_5">
      <!-- 4 -->
      <g transform="translate(526.978477 328.590438)scale(0.1 -0.1)">
       <use xlink:href="#DejaVuSans-52"/>
      </g>
     </g>
    </g>
   </g>
   <g id="matplotlib.axis_2">
    <g id="ytick_1">
     <g id="line2d_6">
      <defs>
       <path d="M 0 0 
L -3.5 0 
" id="mcf172bfa13" style="stroke:#000000;stroke-width:0.8;"/>
      </defs>
      <g>
       <use style="stroke:#000000;stroke-width:0.8;" x="83.43" xlink:href="#mcf172bfa13" y="289.157229"/>
      </g>
     </g>
     <g id="text_6">
      <!-- −20 -->
      <g transform="translate(55.325312 292.956448)scale(0.1 -0.1)">
       <use xlink:href="#DejaVuSans-8722"/>
       <use x="83.789062" xlink:href="#DejaVuSans-50"/>
       <use x="147.412109" xlink:href="#DejaVuSans-48"/>
      </g>
     </g>
    </g>
    <g id="ytick_2">
     <g id="line2d_7">
      <g>
       <use style="stroke:#000000;stroke-width:0.8;" x="83.43" xlink:href="#mcf172bfa13" y="244.887322"/>
      </g>
     </g>
     <g id="text_7">
      <!-- −10 -->
      <g transform="translate(55.325312 248.686541)scale(0.1 -0.1)">
       <defs>
        <path d="M 12.40625 8.296875 
L 28.515625 8.296875 
L 28.515625 63.921875 
L 10.984375 60.40625 
L 10.984375 69.390625 
L 28.421875 72.90625 
L 38.28125 72.90625 
L 38.28125 8.296875 
L 54.390625 8.296875 
L 54.390625 0 
L 12.40625 0 
z
" id="DejaVuSans-49"/>
       </defs>
       <use xlink:href="#DejaVuSans-8722"/>
       <use x="83.789062" xlink:href="#DejaVuSans-49"/>
       <use x="147.412109" xlink:href="#DejaVuSans-48"/>
      </g>
     </g>
    </g>
    <g id="ytick_3">
     <g id="line2d_8">
      <g>
       <use style="stroke:#000000;stroke-width:0.8;" x="83.43" xlink:href="#mcf172bfa13" y="200.617415"/>
      </g>
     </g>
     <g id="text_8">
      <!-- 0 -->
      <g transform="translate(70.0675 204.416634)scale(0.1 -0.1)">
       <use xlink:href="#DejaVuSans-48"/>
      </g>
     </g>
    </g>
    <g id="ytick_4">
     <g id="line2d_9">
      <g>
       <use style="stroke:#000000;stroke-width:0.8;" x="83.43" xlink:href="#mcf172bfa13" y="156.347508"/>
      </g>
     </g>
     <g id="text_9">
      <!-- 10 -->
      <g transform="translate(63.705 160.146727)scale(0.1 -0.1)">
       <use xlink:href="#DejaVuSans-49"/>
       <use x="63.623047" xlink:href="#DejaVuSans-48"/>
      </g>
     </g>
    </g>
    <g id="ytick_5">
     <g id="line2d_10">
      <g>
       <use style="stroke:#000000;stroke-width:0.8;" x="83.43" xlink:href="#mcf172bfa13" y="112.077601"/>
      </g>
     </g>
     <g id="text_10">
      <!-- 20 -->
      <g transform="translate(63.705 115.87682)scale(0.1 -0.1)">
       <use xlink:href="#DejaVuSans-50"/>
       <use x="63.623047" xlink:href="#DejaVuSans-48"/>
      </g>
     </g>
    </g>
    <g id="ytick_6">
     <g id="line2d_11">
      <g>
       <use style="stroke:#000000;stroke-width:0.8;" x="83.43" xlink:href="#mcf172bfa13" y="67.807694"/>
      </g>
     </g>
     <g id="text_11">
      <!-- 30 -->
      <g transform="translate(63.705 71.606913)scale(0.1 -0.1)">
       <defs>
        <path d="M 40.578125 39.3125 
Q 47.65625 37.796875 51.625 33 
Q 55.609375 28.21875 55.609375 21.1875 
Q 55.609375 10.40625 48.1875 4.484375 
Q 40.765625 -1.421875 27.09375 -1.421875 
Q 22.515625 -1.421875 17.65625 -0.515625 
Q 12.796875 0.390625 7.625 2.203125 
L 7.625 11.71875 
Q 11.71875 9.328125 16.59375 8.109375 
Q 21.484375 6.890625 26.8125 6.890625 
Q 36.078125 6.890625 40.9375 10.546875 
Q 45.796875 14.203125 45.796875 21.1875 
Q 45.796875 27.640625 41.28125 31.265625 
Q 36.765625 34.90625 28.71875 34.90625 
L 20.21875 34.90625 
L 20.21875 43.015625 
L 29.109375 43.015625 
Q 36.375 43.015625 40.234375 45.921875 
Q 44.09375 48.828125 44.09375 54.296875 
Q 44.09375 59.90625 40.109375 62.90625 
Q 36.140625 65.921875 28.71875 65.921875 
Q 24.65625 65.921875 20.015625 65.03125 
Q 15.375 64.15625 9.8125 62.3125 
L 9.8125 71.09375 
Q 15.4375 72.65625 20.34375 73.4375 
Q 25.25 74.21875 29.59375 74.21875 
Q 40.828125 74.21875 47.359375 69.109375 
Q 53.90625 64.015625 53.90625 55.328125 
Q 53.90625 49.265625 50.4375 45.09375 
Q 46.96875 40.921875 40.578125 39.3125 
z
" id="DejaVuSans-51"/>
       </defs>
       <use xlink:href="#DejaVuSans-51"/>
       <use x="63.623047" xlink:href="#DejaVuSans-48"/>
      </g>
     </g>
    </g>
   </g>
   <g id="line2d_12">
    <path clip-path="url(#pe47f3a0e24)" d="M 106.942091 258.168294 
L 111.692008 256.826782 
L 116.441926 255.485269 
L 121.191843 254.143757 
L 125.94176 252.802245 
L 130.691678 251.460732 
L 135.441595 250.11922 
L 140.191512 248.777708 
L 144.94143 247.436195 
L 149.691347 246.094683 
L 154.441264 244.753171 
L 159.191182 243.411658 
L 163.941099 242.070146 
L 168.691017 240.728634 
L 173.440934 239.387121 
L 178.190851 238.045609 
L 182.940769 236.704097 
L 187.690686 235.362584 
L 192.440603 234.021072 
L 197.190521 232.67956 
L 201.940438 231.338048 
L 206.690355 229.996535 
L 211.440273 228.655023 
L 216.19019 227.313511 
L 220.940107 225.971998 
L 225.690025 224.630486 
L 230.439942 223.288974 
L 235.18986 221.947461 
L 239.939777 220.605949 
L 244.689694 219.264437 
L 249.439612 217.922924 
L 254.189529 216.581412 
L 258.939446 215.2399 
L 263.689364 213.898387 
L 268.439281 212.556875 
L 273.189198 211.215363 
L 277.939116 209.87385 
L 282.689033 208.532338 
L 287.43895 207.190826 
L 292.188868 205.849313 
L 296.938785 204.507801 
L 301.688702 203.166289 
L 306.43862 201.824776 
L 311.188537 200.483264 
L 315.938455 199.141752 
L 320.688372 197.800239 
L 325.438289 196.458727 
L 330.188207 195.117215 
L 334.938124 193.775702 
L 339.688041 192.43419 
L 344.437959 191.092678 
L 349.187876 189.751165 
L 353.937793 188.409653 
L 358.687711 187.068141 
L 363.437628 185.726628 
L 368.187545 184.385116 
L 372.937463 183.043604 
L 377.68738 181.702091 
L 382.437298 180.360579 
L 387.187215 179.019067 
L 391.937132 177.677554 
L 396.68705 176.336042 
L 401.436967 174.99453 
L 406.186884 173.653017 
L 410.936802 172.311505 
L 415.686719 170.969993 
L 420.436636 169.62848 
L 425.186554 168.286968 
L 429.936471 166.945456 
L 434.686388 165.603943 
L 439.436306 164.262431 
L 444.186223 162.920919 
L 448.93614 161.579406 
L 453.686058 160.237894 
L 458.435975 158.896382 
L 463.185893 157.554869 
L 467.93581 156.213357 
L 472.685727 154.871845 
L 477.435645 153.530332 
L 482.185562 152.18882 
L 486.935479 150.847308 
L 491.685397 149.505795 
L 496.435314 148.164283 
L 501.185231 146.822771 
L 505.935149 145.481258 
L 510.685066 144.139746 
L 515.434983 142.798234 
L 520.184901 141.456721 
L 524.934818 140.115209 
L 529.684736 138.773697 
L 534.434653 137.432184 
L 539.18457 136.090672 
L 543.934488 134.74916 
L 548.684405 133.407647 
L 553.434322 132.066135 
L 558.18424 130.724623 
L 562.934157 129.38311 
L 567.684074 128.041598 
L 572.433992 126.700086 
L 577.183909 125.358573 
" style="fill:none;stroke:#ff0000;stroke-linecap:square;stroke-width:1.5;"/>
   </g>
   <g id="line2d_13">
    <path clip-path="url(#pe47f3a0e24)" d="M 106.942091 274.374925 
L 111.692008 265.533453 
L 116.441926 259.61746 
L 121.191843 255.763511 
L 125.94176 253.320411 
L 130.691678 251.806337 
L 135.441595 250.872757 
L 140.191512 250.274333 
L 144.94143 249.844074 
L 149.691347 249.473063 
L 154.441264 249.09416 
L 159.191182 248.669104 
L 163.941099 248.178535 
L 168.691017 247.614459 
L 173.440934 246.974766 
L 178.190851 246.259436 
L 182.940769 245.468096 
L 187.690686 244.598669 
L 192.440603 243.646847 
L 197.190521 242.606185 
L 201.940438 241.468619 
L 206.690355 240.225273 
L 211.440273 238.867403 
L 216.19019 237.387382 
L 220.940107 235.779645 
L 225.690025 234.041518 
L 230.439942 232.173887 
L 235.18986 230.18168 
L 239.939777 228.074136 
L 244.689694 225.864854 
L 249.439612 223.571631 
L 254.189529 221.21609 
L 258.939446 218.823133 
L 263.689364 216.420227 
L 268.439281 214.036566 
L 273.189198 211.702131 
L 277.939116 209.446691 
L 282.689033 207.298773 
L 287.43895 205.284646 
L 292.188868 203.427342 
L 296.938785 201.745761 
L 301.688702 200.253873 
L 306.43862 198.960066 
L 311.188537 197.866643 
L 315.938455 196.9695 
L 320.688372 196.258 
L 325.438289 195.715039 
L 330.188207 195.317333 
L 334.938124 195.035903 
L 339.688041 194.836762 
L 344.437959 194.681794 
L 349.187876 194.529802 
L 353.937793 194.337711 
L 358.687711 194.061893 
L 363.437628 193.659583 
L 368.187545 193.090358 
L 372.937463 192.317622 
L 377.68738 191.310086 
L 382.437298 190.043159 
L 387.187215 188.500237 
L 391.937132 186.673829 
L 396.68705 184.566467 
L 401.436967 182.19137 
L 406.186884 179.572804 
L 410.936802 176.746108 
L 415.686719 173.757341 
L 420.436636 170.662533 
L 425.186554 167.526503 
L 429.936471 164.421243 
L 434.686388 161.423857 
L 439.436306 158.614072 
L 444.186223 156.071334 
L 448.93614 153.871538 
L 453.686058 152.083444 
L 458.435975 150.76485 
L 463.185893 149.958634 
L 467.93581 149.688771 
L 472.685727 149.95648 
L 477.435645 150.736681 
L 482.185562 151.974966 
L 486.935479 153.585314 
L 491.685397 155.448852 
L 496.435314 157.413947 
L 501.185231 159.298012 
L 505.935149 160.891404 
L 510.685066 161.963884 
L 515.434983 162.274116 
L 520.184901 161.582771 
L 524.934818 159.66984 
L 529.684736 156.356814 
L 534.434653 151.53448 
L 539.18457 145.197103 
L 543.934488 137.483893 
L 548.684405 128.72866 
L 553.434322 119.518707 
L 558.18424 110.764037 
L 562.934157 103.778065 
L 567.684074 100.371101 
L 572.433992 102.957975 
L 577.183909 114.681254 
" style="fill:none;stroke:#e9a5c1;stroke-linecap:square;stroke-width:1.5;"/>
   </g>
   <g id="line2d_14">
    <path clip-path="url(#pe47f3a0e24)" d="M 106.942091 283.919921 
L 111.692008 265.943516 
L 116.441926 254.883658 
L 121.191843 248.864564 
L 125.94176 246.376626 
L 130.691678 246.222479 
L 135.441595 247.469111 
L 140.191512 249.405523 
L 144.94143 251.505451 
L 149.691347 253.39471 
L 154.441264 254.822745 
L 159.191182 255.637981 
L 163.941099 255.766622 
L 168.691017 255.194544 
L 173.440934 253.95197 
L 178.190851 252.100624 
L 182.940769 249.723089 
L 187.690686 246.914121 
L 192.440603 243.773677 
L 197.190521 240.401436 
L 201.940438 236.89263 
L 206.690355 233.334981 
L 211.440273 229.8066 
L 216.19019 226.374682 
L 220.940107 223.094866 
L 225.690025 220.01114 
L 230.439942 217.156174 
L 235.18986 214.551994 
L 239.939777 212.210905 
L 244.689694 210.136577 
L 249.439612 208.325255 
L 254.189529 206.76701 
L 258.939446 205.446997 
L 263.689364 204.346677 
L 268.439281 203.444975 
L 273.189198 202.719339 
L 277.939116 202.146693 
L 282.689033 201.704256 
L 287.43895 201.370237 
L 292.188868 201.124379 
L 296.938785 200.948374 
L 301.688702 200.826137 
L 306.43862 200.743953 
L 311.188537 200.690505 
L 315.938455 200.656789 
L 320.688372 200.635943 
L 325.438289 200.622983 
L 330.188207 200.614483 
L 334.938124 200.608204 
L 339.688041 200.602687 
L 344.437959 200.59683 
L 349.187876 200.589469 
L 353.937793 200.578971 
L 358.687711 200.562856 
L 363.437628 200.537466 
L 368.187545 200.497683 
L 372.937463 200.436726 
L 377.68738 200.346009 
L 382.437298 200.215092 
L 387.187215 200.031715 
L 391.937132 199.781924 
L 396.68705 199.450293 
L 401.436967 199.020226 
L 406.186884 198.474357 
L 410.936802 197.79502 
L 415.686719 196.964795 
L 420.436636 195.967112 
L 425.186554 194.7869 
L 429.936471 193.411262 
L 434.686388 191.830166 
L 439.436306 190.037121 
L 444.186223 188.029813 
L 448.93614 185.810692 
L 453.686058 183.387456 
L 458.435975 180.773429 
L 463.185893 177.987784 
L 467.93581 175.055579 
L 472.685727 172.00758 
L 477.435645 168.879832 
L 482.185562 165.712935 
L 486.935479 162.550991 
L 491.685397 159.440194 
L 496.435314 156.427008 
L 501.185231 153.555909 
L 505.935149 150.866639 
L 510.685066 148.390962 
L 515.434983 146.14885 
L 520.184901 144.144097 
L 524.934818 142.359313 
L 529.684736 140.750275 
L 534.434653 139.239602 
L 539.18457 137.709741 
L 543.934488 135.995232 
L 548.684405 133.874251 
L 553.434322 131.059412 
L 558.18424 127.18782 
L 562.934157 121.810391 
L 567.684074 114.380427 
L 572.433992 104.241479 
L 577.183909 90.614509 
" style="fill:none;stroke:#00b5cc;stroke-linecap:square;stroke-width:1.5;"/>
   </g>
   <g id="line2d_15">
    <path clip-path="url(#pe47f3a0e24)" d="M 106.942091 274.374925 
L 111.692008 265.533453 
L 116.441926 259.61746 
L 121.191843 255.763511 
L 125.94176 253.320411 
L 130.691678 251.806337 
L 135.441595 250.872757 
L 140.191512 250.274333 
L 144.94143 249.844074 
L 149.691347 249.473063 
L 154.441264 249.09416 
L 159.191182 248.669104 
L 163.941099 248.178535 
L 168.691017 247.614459 
L 173.440934 246.974766 
L 178.190851 246.259436 
L 182.940769 245.468096 
L 187.690686 244.598669 
L 192.440603 243.646847 
L 197.190521 242.606185 
L 201.940438 241.468619 
L 206.690355 240.225273 
L 211.440273 238.867403 
L 216.19019 237.387382 
L 220.940107 235.779645 
L 225.690025 234.041518 
L 230.439942 232.173887 
L 235.18986 230.18168 
L 239.939777 228.074136 
L 244.689694 225.864854 
L 249.439612 223.571631 
L 254.189529 221.21609 
L 258.939446 218.823133 
L 263.689364 216.420227 
L 268.439281 214.036566 
L 273.189198 211.702131 
L 277.939116 209.446691 
L 282.689033 207.298773 
L 287.43895 205.284646 
L 292.188868 203.427342 
L 296.938785 201.745761 
L 301.688702 200.253873 
L 306.43862 198.960066 
L 311.188537 197.866643 
L 315.938455 196.9695 
L 320.688372 196.258 
L 325.438289 195.715039 
L 330.188207 195.317333 
L 334.938124 195.035903 
L 339.688041 194.836762 
L 344.437959 194.681794 
L 349.187876 194.529802 
L 353.937793 194.337711 
L 358.687711 194.061893 
L 363.437628 193.659583 
L 368.187545 193.090358 
L 372.937463 192.317622 
L 377.68738 191.310086 
L 382.437298 190.043159 
L 387.187215 188.500237 
L 391.937132 186.673829 
L 396.68705 184.566467 
L 401.436967 182.19137 
L 406.186884 179.572804 
L 410.936802 176.746108 
L 415.686719 173.757341 
L 420.436636 170.662533 
L 425.186554 167.526503 
L 429.936471 164.421243 
L 434.686388 161.423857 
L 439.436306 158.614072 
L 444.186223 156.071334 
L 448.93614 153.871538 
L 453.686058 152.083444 
L 458.435975 150.76485 
L 463.185893 149.958634 
L 467.93581 149.688771 
L 472.685727 149.95648 
L 477.435645 150.736681 
L 482.185562 151.974966 
L 486.935479 153.585314 
L 491.685397 155.448852 
L 496.435314 157.413947 
L 501.185231 159.298012 
L 505.935149 160.891404 
L 510.685066 161.963884 
L 515.434983 162.274116 
L 520.184901 161.582771 
L 524.934818 159.66984 
L 529.684736 156.356814 
L 534.434653 151.53448 
L 539.18457 145.197103 
L 543.934488 137.483893 
L 548.684405 128.72866 
L 553.434322 119.518707 
L 558.18424 110.764037 
L 562.934157 103.778065 
L 567.684074 100.371101 
L 572.433992 102.957975 
L 577.183909 114.681254 
" style="fill:none;stroke:#07d31c;stroke-linecap:square;stroke-width:1.5;"/>
   </g>
   <g id="line2d_16">
    <path clip-path="url(#pe47f3a0e24)" d="M 106.942091 271.881339 
L 111.692008 266.718613 
L 116.441926 261.653369 
L 121.191843 257.228176 
L 125.94176 253.713272 
L 130.691678 251.184216 
L 135.441595 249.584104 
L 140.191512 248.772611 
L 144.94143 248.563864 
L 149.691347 248.754928 
L 154.441264 249.14651 
L 159.191182 249.557253 
L 163.941099 249.832841 
L 168.691017 249.851002 
L 173.440934 249.52328 
L 178.190851 248.794405 
L 182.940769 247.639897 
L 187.690686 246.062469 
L 192.440603 244.0877 
L 197.190521 241.759339 
L 201.940438 239.134549 
L 206.690355 236.279325 
L 211.440273 233.264246 
L 216.19019 230.160708 
L 220.940107 227.037698 
L 225.690025 223.959153 
L 230.439942 220.981934 
L 235.18986 218.154386 
L 239.939777 215.51545 
L 244.689694 213.094294 
L 249.439612 210.910392 
L 254.189529 208.973983 
L 258.939446 207.286851 
L 263.689364 205.843338 
L 268.439281 204.631531 
L 273.189198 203.634546 
L 277.939116 202.831848 
L 282.689033 202.200551 
L 287.43895 201.716641 
L 292.188868 201.356092 
L 296.938785 201.095822 
L 301.688702 200.914481 
L 306.43862 200.79304 
L 311.188537 200.715191 
L 315.938455 200.667533 
L 320.688372 200.639572 
L 325.438289 200.623549 
L 330.188207 200.614097 
L 334.938124 200.607781 
L 339.688041 200.602526 
L 344.437959 200.596991 
L 349.187876 200.589893 
L 353.937793 200.579357 
L 358.687711 200.56229 
L 363.437628 200.533836 
L 368.187545 200.48694 
L 372.937463 200.41204 
L 377.68738 200.296922 
L 382.437298 200.126748 
L 387.187215 199.884266 
L 391.937132 199.550211 
L 396.68705 199.103889 
L 401.436967 198.523932 
L 406.186884 197.789202 
L 410.936802 196.879813 
L 415.686719 195.778239 
L 420.436636 194.470452 
L 425.186554 192.947046 
L 429.936471 191.204289 
L 434.686388 189.245029 
L 439.436306 187.079403 
L 444.186223 184.725268 
L 448.93614 182.2083 
L 453.686058 179.561695 
L 458.435975 176.825416 
L 463.185893 174.044952 
L 467.93581 171.269552 
L 472.685727 168.549934 
L 477.435645 165.935488 
L 482.185562 163.471015 
L 486.935479 161.193088 
L 491.685397 159.126171 
L 496.435314 157.278661 
L 501.185231 155.639101 
L 505.935149 154.172858 
L 510.685066 152.819653 
L 515.434983 151.492392 
L 520.184901 150.077877 
L 524.934818 148.440041 
L 529.684736 146.42651 
L 534.434653 143.879385 
L 539.18457 140.651328 
L 543.934488 136.628144 
L 548.684405 131.759259 
L 553.434322 126.097675 
L 558.18424 119.851175 
L 562.934157 113.446779 
L 567.684074 107.610716 
L 572.433992 103.466382 
L 577.183909 102.653091 
" style="fill:none;stroke:#b60bf5;stroke-linecap:square;stroke-width:1.5;"/>
   </g>
   <g id="line2d_17">
    <path clip-path="url(#pe47f3a0e24)" d="M 106.942091 274.374925 
L 111.692008 265.533453 
L 116.441926 259.61746 
L 121.191843 255.763511 
L 125.94176 253.320411 
L 130.691678 251.806337 
L 135.441595 250.872757 
L 140.191512 250.274333 
L 144.94143 249.844074 
L 149.691347 249.473063 
L 154.441264 249.09416 
L 159.191182 248.669104 
L 163.941099 248.178535 
L 168.691017 247.614459 
L 173.440934 246.974766 
L 178.190851 246.259436 
L 182.940769 245.468096 
L 187.690686 244.598669 
L 192.440603 243.646847 
L 197.190521 242.606185 
L 201.940438 241.468619 
L 206.690355 240.225273 
L 211.440273 238.867403 
L 216.19019 237.387382 
L 220.940107 235.779645 
L 225.690025 234.041518 
L 230.439942 232.173887 
L 235.18986 230.18168 
L 239.939777 228.074136 
L 244.689694 225.864854 
L 249.439612 223.571631 
L 254.189529 221.21609 
L 258.939446 218.823133 
L 263.689364 216.420227 
L 268.439281 214.036566 
L 273.189198 211.702131 
L 277.939116 209.446691 
L 282.689033 207.298773 
L 287.43895 205.284646 
L 292.188868 203.427342 
L 296.938785 201.745761 
L 301.688702 200.253873 
L 306.43862 198.960066 
L 311.188537 197.866643 
L 315.938455 196.9695 
L 320.688372 196.258 
L 325.438289 195.715039 
L 330.188207 195.317333 
L 334.938124 195.035903 
L 339.688041 194.836762 
L 344.437959 194.681794 
L 349.187876 194.529802 
L 353.937793 194.337711 
L 358.687711 194.061893 
L 363.437628 193.659583 
L 368.187545 193.090358 
L 372.937463 192.317622 
L 377.68738 191.310086 
L 382.437298 190.043159 
L 387.187215 188.500237 
L 391.937132 186.673829 
L 396.68705 184.566467 
L 401.436967 182.19137 
L 406.186884 179.572804 
L 410.936802 176.746108 
L 415.686719 173.757341 
L 420.436636 170.662533 
L 425.186554 167.526503 
L 429.936471 164.421243 
L 434.686388 161.423857 
L 439.436306 158.614072 
L 444.186223 156.071334 
L 448.93614 153.871538 
L 453.686058 152.083444 
L 458.435975 150.76485 
L 463.185893 149.958634 
L 467.93581 149.688771 
L 472.685727 149.95648 
L 477.435645 150.736681 
L 482.185562 151.974966 
L 486.935479 153.585314 
L 491.685397 155.448852 
L 496.435314 157.413947 
L 501.185231 159.298012 
L 505.935149 160.891404 
L 510.685066 161.963884 
L 515.434983 162.274116 
L 520.184901 161.582771 
L 524.934818 159.66984 
L 529.684736 156.356814 
L 534.434653 151.53448 
L 539.18457 145.197103 
L 543.934488 137.483893 
L 548.684405 128.72866 
L 553.434322 119.518707 
L 558.18424 110.764037 
L 562.934157 103.778065 
L 567.684074 100.371101 
L 572.433992 102.957975 
L 577.183909 114.681254 
" style="fill:none;stroke:#3569c2;stroke-linecap:square;stroke-width:1.5;"/>
   </g>
   <g id="line2d_18">
    <path clip-path="url(#pe47f3a0e24)" d="M 106.942091 281.876027 
L 111.692008 264.065755 
L 116.441926 254.312341 
L 121.191843 249.83539 
L 125.94176 248.615459 
L 130.691678 249.218832 
L 135.441595 250.656687 
L 140.191512 252.272985 
L 144.94143 253.65617 
L 149.691347 254.570458 
L 154.441264 254.903086 
L 159.191182 254.624464 
L 163.941099 253.75861 
L 168.691017 252.361696 
L 173.440934 250.506908 
L 178.190851 248.274112 
L 182.940769 245.743128 
L 187.690686 242.989631 
L 192.440603 240.082914 
L 197.190521 237.084918 
L 201.940438 234.050059 
L 206.690355 231.025544 
L 211.440273 228.051905 
L 216.19019 225.163612 
L 220.940107 222.389663 
L 225.690025 219.754078 
L 230.439942 217.276304 
L 235.18986 214.971508 
L 239.939777 212.850804 
L 244.689694 210.921412 
L 249.439612 209.186813 
L 254.189529 207.6469 
L 258.939446 206.298169 
L 263.689364 205.133967 
L 268.439281 204.1448 
L 273.189198 203.318718 
L 277.939116 202.641766 
L 282.689033 202.098491 
L 287.43895 201.672494 
L 292.188868 201.346996 
L 296.938785 201.105404 
L 301.688702 200.93184 
L 306.43862 200.81162 
L 311.188537 200.731637 
L 315.938455 200.680654 
L 320.688372 200.649458 
L 325.438289 200.630892 
L 330.188207 200.619734 
L 334.938124 200.61244 
L 339.688041 200.606758 
L 344.437959 200.601222 
L 349.187876 200.594552 
L 353.937793 200.584994 
L 358.687711 200.569634 
L 363.437628 200.543722 
L 368.187545 200.500061 
L 372.937463 200.428485 
L 377.68738 200.315501 
L 382.437298 200.144108 
L 387.187215 199.893848 
L 391.937132 199.541115 
L 396.68705 199.059742 
L 401.436967 198.421872 
L 406.186884 197.599119 
L 410.936802 196.563985 
L 415.686719 195.291508 
L 420.436636 193.761081 
L 425.186554 191.958365 
L 429.936471 189.877206 
L 434.686388 187.52145 
L 439.436306 184.906521 
L 444.186223 182.060621 
L 448.93614 179.025422 
L 453.686058 175.856064 
L 458.435975 172.620342 
L 463.185893 169.396918 
L 467.93581 166.272456 
L 472.685727 163.337593 
L 477.435645 160.681708 
L 482.185562 158.386525 
L 486.935479 156.518667 
L 491.685397 155.121386 
L 496.435314 154.205823 
L 501.185231 153.742332 
L 505.935149 153.652565 
L 510.685066 153.80328 
L 515.434983 154.003086 
L 520.184901 154.003645 
L 524.934818 153.507253 
L 529.684736 152.183085 
L 534.434653 149.694915 
L 539.18457 145.743635 
L 543.934488 140.128518 
L 548.684405 132.831842 
L 553.434322 124.132292 
L 558.18424 114.753361 
L 562.934157 106.053993 
L 567.684074 100.269688 
L 572.433992 100.813523 
L 577.183909 112.647779 
" style="fill:none;stroke:#34dc71;stroke-linecap:square;stroke-width:1.5;"/>
   </g>
   <g id="patch_3">
    <path d="M 83.43 313.992 
L 83.43 42.336 
" style="fill:none;stroke:#000000;stroke-linecap:square;stroke-linejoin:miter;stroke-width:0.8;"/>
   </g>
   <g id="patch_4">
    <path d="M 600.696 313.992 
L 600.696 42.336 
" style="fill:none;stroke:#000000;stroke-linecap:square;stroke-linejoin:miter;stroke-width:0.8;"/>
   </g>
   <g id="patch_5">
    <path d="M 83.43 313.992 
L 600.696 313.992 
" style="fill:none;stroke:#000000;stroke-linecap:square;stroke-linejoin:miter;stroke-width:0.8;"/>
   </g>
   <g id="patch_6">
    <path d="M 83.43 42.336 
L 600.696 42.336 
" style="fill:none;stroke:#000000;stroke-linecap:square;stroke-linejoin:miter;stroke-width:0.8;"/>
   </g>
   <g id="legend_1">
    <g id="patch_7">
     <path d="M 90.43 153.082875 
L 215.49875 153.082875 
Q 217.49875 153.082875 217.49875 151.082875 
L 217.49875 49.336 
Q 217.49875 47.336 215.49875 47.336 
L 90.43 47.336 
Q 88.43 47.336 88.43 49.336 
L 88.43 151.082875 
Q 88.43 153.082875 90.43 153.082875 
z
" style="fill:#ffffff;opacity:0.8;stroke:#cccccc;stroke-linejoin:miter;"/>
    </g>
    <g id="line2d_19">
     <path d="M 92.43 55.434438 
L 112.43 55.434438 
" style="fill:none;stroke:#ff0000;stroke-linecap:square;stroke-width:1.5;"/>
    </g>
    <g id="line2d_20"/>
    <g id="text_12">
     <!-- data without noise -->
     <g transform="translate(120.43 58.934438)scale(0.1 -0.1)">
      <defs>
       <path d="M 45.40625 46.390625 
L 45.40625 75.984375 
L 54.390625 75.984375 
L 54.390625 0 
L 45.40625 0 
L 45.40625 8.203125 
Q 42.578125 3.328125 38.25 0.953125 
Q 33.9375 -1.421875 27.875 -1.421875 
Q 17.96875 -1.421875 11.734375 6.484375 
Q 5.515625 14.40625 5.515625 27.296875 
Q 5.515625 40.1875 11.734375 48.09375 
Q 17.96875 56 27.875 56 
Q 33.9375 56 38.25 53.625 
Q 42.578125 51.265625 45.40625 46.390625 
z
M 14.796875 27.296875 
Q 14.796875 17.390625 18.875 11.75 
Q 22.953125 6.109375 30.078125 6.109375 
Q 37.203125 6.109375 41.296875 11.75 
Q 45.40625 17.390625 45.40625 27.296875 
Q 45.40625 37.203125 41.296875 42.84375 
Q 37.203125 48.484375 30.078125 48.484375 
Q 22.953125 48.484375 18.875 42.84375 
Q 14.796875 37.203125 14.796875 27.296875 
z
" id="DejaVuSans-100"/>
       <path d="M 34.28125 27.484375 
Q 23.390625 27.484375 19.1875 25 
Q 14.984375 22.515625 14.984375 16.5 
Q 14.984375 11.71875 18.140625 8.90625 
Q 21.296875 6.109375 26.703125 6.109375 
Q 34.1875 6.109375 38.703125 11.40625 
Q 43.21875 16.703125 43.21875 25.484375 
L 43.21875 27.484375 
z
M 52.203125 31.203125 
L 52.203125 0 
L 43.21875 0 
L 43.21875 8.296875 
Q 40.140625 3.328125 35.546875 0.953125 
Q 30.953125 -1.421875 24.3125 -1.421875 
Q 15.921875 -1.421875 10.953125 3.296875 
Q 6 8.015625 6 15.921875 
Q 6 25.140625 12.171875 29.828125 
Q 18.359375 34.515625 30.609375 34.515625 
L 43.21875 34.515625 
L 43.21875 35.40625 
Q 43.21875 41.609375 39.140625 45 
Q 35.0625 48.390625 27.6875 48.390625 
Q 23 48.390625 18.546875 47.265625 
Q 14.109375 46.140625 10.015625 43.890625 
L 10.015625 52.203125 
Q 14.9375 54.109375 19.578125 55.046875 
Q 24.21875 56 28.609375 56 
Q 40.484375 56 46.34375 49.84375 
Q 52.203125 43.703125 52.203125 31.203125 
z
" id="DejaVuSans-97"/>
       <path d="M 18.3125 70.21875 
L 18.3125 54.6875 
L 36.8125 54.6875 
L 36.8125 47.703125 
L 18.3125 47.703125 
L 18.3125 18.015625 
Q 18.3125 11.328125 20.140625 9.421875 
Q 21.96875 7.515625 27.59375 7.515625 
L 36.8125 7.515625 
L 36.8125 0 
L 27.59375 0 
Q 17.1875 0 13.234375 3.875 
Q 9.28125 7.765625 9.28125 18.015625 
L 9.28125 47.703125 
L 2.6875 47.703125 
L 2.6875 54.6875 
L 9.28125 54.6875 
L 9.28125 70.21875 
z
" id="DejaVuSans-116"/>
       <path id="DejaVuSans-32"/>
       <path d="M 4.203125 54.6875 
L 13.1875 54.6875 
L 24.421875 12.015625 
L 35.59375 54.6875 
L 46.1875 54.6875 
L 57.421875 12.015625 
L 68.609375 54.6875 
L 77.59375 54.6875 
L 63.28125 0 
L 52.6875 0 
L 40.921875 44.828125 
L 29.109375 0 
L 18.5 0 
z
" id="DejaVuSans-119"/>
       <path d="M 9.421875 54.6875 
L 18.40625 54.6875 
L 18.40625 0 
L 9.421875 0 
z
M 9.421875 75.984375 
L 18.40625 75.984375 
L 18.40625 64.59375 
L 9.421875 64.59375 
z
" id="DejaVuSans-105"/>
       <path d="M 54.890625 33.015625 
L 54.890625 0 
L 45.90625 0 
L 45.90625 32.71875 
Q 45.90625 40.484375 42.875 44.328125 
Q 39.84375 48.1875 33.796875 48.1875 
Q 26.515625 48.1875 22.3125 43.546875 
Q 18.109375 38.921875 18.109375 30.90625 
L 18.109375 0 
L 9.078125 0 
L 9.078125 75.984375 
L 18.109375 75.984375 
L 18.109375 46.1875 
Q 21.34375 51.125 25.703125 53.5625 
Q 30.078125 56 35.796875 56 
Q 45.21875 56 50.046875 50.171875 
Q 54.890625 44.34375 54.890625 33.015625 
z
" id="DejaVuSans-104"/>
       <path d="M 30.609375 48.390625 
Q 23.390625 48.390625 19.1875 42.75 
Q 14.984375 37.109375 14.984375 27.296875 
Q 14.984375 17.484375 19.15625 11.84375 
Q 23.34375 6.203125 30.609375 6.203125 
Q 37.796875 6.203125 41.984375 11.859375 
Q 46.1875 17.53125 46.1875 27.296875 
Q 46.1875 37.015625 41.984375 42.703125 
Q 37.796875 48.390625 30.609375 48.390625 
z
M 30.609375 56 
Q 42.328125 56 49.015625 48.375 
Q 55.71875 40.765625 55.71875 27.296875 
Q 55.71875 13.875 49.015625 6.21875 
Q 42.328125 -1.421875 30.609375 -1.421875 
Q 18.84375 -1.421875 12.171875 6.21875 
Q 5.515625 13.875 5.515625 27.296875 
Q 5.515625 40.765625 12.171875 48.375 
Q 18.84375 56 30.609375 56 
z
" id="DejaVuSans-111"/>
       <path d="M 8.5 21.578125 
L 8.5 54.6875 
L 17.484375 54.6875 
L 17.484375 21.921875 
Q 17.484375 14.15625 20.5 10.265625 
Q 23.53125 6.390625 29.59375 6.390625 
Q 36.859375 6.390625 41.078125 11.03125 
Q 45.3125 15.671875 45.3125 23.6875 
L 45.3125 54.6875 
L 54.296875 54.6875 
L 54.296875 0 
L 45.3125 0 
L 45.3125 8.40625 
Q 42.046875 3.421875 37.71875 1 
Q 33.40625 -1.421875 27.6875 -1.421875 
Q 18.265625 -1.421875 13.375 4.4375 
Q 8.5 10.296875 8.5 21.578125 
z
M 31.109375 56 
z
" id="DejaVuSans-117"/>
       <path d="M 54.890625 33.015625 
L 54.890625 0 
L 45.90625 0 
L 45.90625 32.71875 
Q 45.90625 40.484375 42.875 44.328125 
Q 39.84375 48.1875 33.796875 48.1875 
Q 26.515625 48.1875 22.3125 43.546875 
Q 18.109375 38.921875 18.109375 30.90625 
L 18.109375 0 
L 9.078125 0 
L 9.078125 54.6875 
L 18.109375 54.6875 
L 18.109375 46.1875 
Q 21.34375 51.125 25.703125 53.5625 
Q 30.078125 56 35.796875 56 
Q 45.21875 56 50.046875 50.171875 
Q 54.890625 44.34375 54.890625 33.015625 
z
" id="DejaVuSans-110"/>
       <path d="M 44.28125 53.078125 
L 44.28125 44.578125 
Q 40.484375 46.53125 36.375 47.5 
Q 32.28125 48.484375 27.875 48.484375 
Q 21.1875 48.484375 17.84375 46.4375 
Q 14.5 44.390625 14.5 40.28125 
Q 14.5 37.15625 16.890625 35.375 
Q 19.28125 33.59375 26.515625 31.984375 
L 29.59375 31.296875 
Q 39.15625 29.25 43.1875 25.515625 
Q 47.21875 21.78125 47.21875 15.09375 
Q 47.21875 7.46875 41.1875 3.015625 
Q 35.15625 -1.421875 24.609375 -1.421875 
Q 20.21875 -1.421875 15.453125 -0.5625 
Q 10.6875 0.296875 5.421875 2 
L 5.421875 11.28125 
Q 10.40625 8.6875 15.234375 7.390625 
Q 20.0625 6.109375 24.8125 6.109375 
Q 31.15625 6.109375 34.5625 8.28125 
Q 37.984375 10.453125 37.984375 14.40625 
Q 37.984375 18.0625 35.515625 20.015625 
Q 33.0625 21.96875 24.703125 23.78125 
L 21.578125 24.515625 
Q 13.234375 26.265625 9.515625 29.90625 
Q 5.8125 33.546875 5.8125 39.890625 
Q 5.8125 47.609375 11.28125 51.796875 
Q 16.75 56 26.8125 56 
Q 31.78125 56 36.171875 55.265625 
Q 40.578125 54.546875 44.28125 53.078125 
z
" id="DejaVuSans-115"/>
       <path d="M 56.203125 29.59375 
L 56.203125 25.203125 
L 14.890625 25.203125 
Q 15.484375 15.921875 20.484375 11.0625 
Q 25.484375 6.203125 34.421875 6.203125 
Q 39.59375 6.203125 44.453125 7.46875 
Q 49.3125 8.734375 54.109375 11.28125 
L 54.109375 2.78125 
Q 49.265625 0.734375 44.1875 -0.34375 
Q 39.109375 -1.421875 33.890625 -1.421875 
Q 20.796875 -1.421875 13.15625 6.1875 
Q 5.515625 13.8125 5.515625 26.8125 
Q 5.515625 40.234375 12.765625 48.109375 
Q 20.015625 56 32.328125 56 
Q 43.359375 56 49.78125 48.890625 
Q 56.203125 41.796875 56.203125 29.59375 
z
M 47.21875 32.234375 
Q 47.125 39.59375 43.09375 43.984375 
Q 39.0625 48.390625 32.421875 48.390625 
Q 24.90625 48.390625 20.390625 44.140625 
Q 15.875 39.890625 15.1875 32.171875 
z
" id="DejaVuSans-101"/>
      </defs>
      <use xlink:href="#DejaVuSans-100"/>
      <use x="63.476562" xlink:href="#DejaVuSans-97"/>
      <use x="124.755859" xlink:href="#DejaVuSans-116"/>
      <use x="163.964844" xlink:href="#DejaVuSans-97"/>
      <use x="225.244141" xlink:href="#DejaVuSans-32"/>
      <use x="257.03125" xlink:href="#DejaVuSans-119"/>
      <use x="338.818359" xlink:href="#DejaVuSans-105"/>
      <use x="366.601562" xlink:href="#DejaVuSans-116"/>
      <use x="405.810547" xlink:href="#DejaVuSans-104"/>
      <use x="469.189453" xlink:href="#DejaVuSans-111"/>
      <use x="530.371094" xlink:href="#DejaVuSans-117"/>
      <use x="593.75" xlink:href="#DejaVuSans-116"/>
      <use x="632.958984" xlink:href="#DejaVuSans-32"/>
      <use x="664.746094" xlink:href="#DejaVuSans-110"/>
      <use x="728.125" xlink:href="#DejaVuSans-111"/>
      <use x="789.306641" xlink:href="#DejaVuSans-105"/>
      <use x="817.089844" xlink:href="#DejaVuSans-115"/>
      <use x="869.189453" xlink:href="#DejaVuSans-101"/>
     </g>
    </g>
    <g id="line2d_21">
     <path d="M 92.43 70.112563 
L 112.43 70.112563 
" style="fill:none;stroke:#e9a5c1;stroke-linecap:square;stroke-width:1.5;"/>
    </g>
    <g id="line2d_22"/>
    <g id="text_13">
     <!-- 10 -->
     <g transform="translate(120.43 73.612563)scale(0.1 -0.1)">
      <use xlink:href="#DejaVuSans-49"/>
      <use x="63.623047" xlink:href="#DejaVuSans-48"/>
     </g>
    </g>
    <g id="line2d_23">
     <path d="M 92.43 84.790687 
L 112.43 84.790687 
" style="fill:none;stroke:#00b5cc;stroke-linecap:square;stroke-width:1.5;"/>
    </g>
    <g id="line2d_24"/>
    <g id="text_14">
     <!-- 10 regularized -->
     <g transform="translate(120.43 88.290687)scale(0.1 -0.1)">
      <defs>
       <path d="M 41.109375 46.296875 
Q 39.59375 47.171875 37.8125 47.578125 
Q 36.03125 48 33.890625 48 
Q 26.265625 48 22.1875 43.046875 
Q 18.109375 38.09375 18.109375 28.8125 
L 18.109375 0 
L 9.078125 0 
L 9.078125 54.6875 
L 18.109375 54.6875 
L 18.109375 46.1875 
Q 20.953125 51.171875 25.484375 53.578125 
Q 30.03125 56 36.53125 56 
Q 37.453125 56 38.578125 55.875 
Q 39.703125 55.765625 41.0625 55.515625 
z
" id="DejaVuSans-114"/>
       <path d="M 45.40625 27.984375 
Q 45.40625 37.75 41.375 43.109375 
Q 37.359375 48.484375 30.078125 48.484375 
Q 22.859375 48.484375 18.828125 43.109375 
Q 14.796875 37.75 14.796875 27.984375 
Q 14.796875 18.265625 18.828125 12.890625 
Q 22.859375 7.515625 30.078125 7.515625 
Q 37.359375 7.515625 41.375 12.890625 
Q 45.40625 18.265625 45.40625 27.984375 
z
M 54.390625 6.78125 
Q 54.390625 -7.171875 48.1875 -13.984375 
Q 42 -20.796875 29.203125 -20.796875 
Q 24.46875 -20.796875 20.265625 -20.09375 
Q 16.0625 -19.390625 12.109375 -17.921875 
L 12.109375 -9.1875 
Q 16.0625 -11.328125 19.921875 -12.34375 
Q 23.78125 -13.375 27.78125 -13.375 
Q 36.625 -13.375 41.015625 -8.765625 
Q 45.40625 -4.15625 45.40625 5.171875 
L 45.40625 9.625 
Q 42.625 4.78125 38.28125 2.390625 
Q 33.9375 0 27.875 0 
Q 17.828125 0 11.671875 7.65625 
Q 5.515625 15.328125 5.515625 27.984375 
Q 5.515625 40.671875 11.671875 48.328125 
Q 17.828125 56 27.875 56 
Q 33.9375 56 38.28125 53.609375 
Q 42.625 51.21875 45.40625 46.390625 
L 45.40625 54.6875 
L 54.390625 54.6875 
z
" id="DejaVuSans-103"/>
       <path d="M 9.421875 75.984375 
L 18.40625 75.984375 
L 18.40625 0 
L 9.421875 0 
z
" id="DejaVuSans-108"/>
       <path d="M 5.515625 54.6875 
L 48.1875 54.6875 
L 48.1875 46.484375 
L 14.40625 7.171875 
L 48.1875 7.171875 
L 48.1875 0 
L 4.296875 0 
L 4.296875 8.203125 
L 38.09375 47.515625 
L 5.515625 47.515625 
z
" id="DejaVuSans-122"/>
      </defs>
      <use xlink:href="#DejaVuSans-49"/>
      <use x="63.623047" xlink:href="#DejaVuSans-48"/>
      <use x="127.246094" xlink:href="#DejaVuSans-32"/>
      <use x="159.033203" xlink:href="#DejaVuSans-114"/>
      <use x="197.896484" xlink:href="#DejaVuSans-101"/>
      <use x="259.419922" xlink:href="#DejaVuSans-103"/>
      <use x="322.896484" xlink:href="#DejaVuSans-117"/>
      <use x="386.275391" xlink:href="#DejaVuSans-108"/>
      <use x="414.058594" xlink:href="#DejaVuSans-97"/>
      <use x="475.337891" xlink:href="#DejaVuSans-114"/>
      <use x="516.451172" xlink:href="#DejaVuSans-105"/>
      <use x="544.234375" xlink:href="#DejaVuSans-122"/>
      <use x="596.724609" xlink:href="#DejaVuSans-101"/>
      <use x="658.248047" xlink:href="#DejaVuSans-100"/>
     </g>
    </g>
    <g id="line2d_25">
     <path d="M 92.43 99.468813 
L 112.43 99.468813 
" style="fill:none;stroke:#07d31c;stroke-linecap:square;stroke-width:1.5;"/>
    </g>
    <g id="line2d_26"/>
    <g id="text_15">
     <!-- 11 -->
     <g transform="translate(120.43 102.968813)scale(0.1 -0.1)">
      <use xlink:href="#DejaVuSans-49"/>
      <use x="63.623047" xlink:href="#DejaVuSans-49"/>
     </g>
    </g>
    <g id="line2d_27">
     <path d="M 92.43 114.146938 
L 112.43 114.146938 
" style="fill:none;stroke:#b60bf5;stroke-linecap:square;stroke-width:1.5;"/>
    </g>
    <g id="line2d_28"/>
    <g id="text_16">
     <!-- 11 regularized -->
     <g transform="translate(120.43 117.646938)scale(0.1 -0.1)">
      <use xlink:href="#DejaVuSans-49"/>
      <use x="63.623047" xlink:href="#DejaVuSans-49"/>
      <use x="127.246094" xlink:href="#DejaVuSans-32"/>
      <use x="159.033203" xlink:href="#DejaVuSans-114"/>
      <use x="197.896484" xlink:href="#DejaVuSans-101"/>
      <use x="259.419922" xlink:href="#DejaVuSans-103"/>
      <use x="322.896484" xlink:href="#DejaVuSans-117"/>
      <use x="386.275391" xlink:href="#DejaVuSans-108"/>
      <use x="414.058594" xlink:href="#DejaVuSans-97"/>
      <use x="475.337891" xlink:href="#DejaVuSans-114"/>
      <use x="516.451172" xlink:href="#DejaVuSans-105"/>
      <use x="544.234375" xlink:href="#DejaVuSans-122"/>
      <use x="596.724609" xlink:href="#DejaVuSans-101"/>
      <use x="658.248047" xlink:href="#DejaVuSans-100"/>
     </g>
    </g>
    <g id="line2d_29">
     <path d="M 92.43 128.825063 
L 112.43 128.825063 
" style="fill:none;stroke:#3569c2;stroke-linecap:square;stroke-width:1.5;"/>
    </g>
    <g id="line2d_30"/>
    <g id="text_17">
     <!-- 12 -->
     <g transform="translate(120.43 132.325063)scale(0.1 -0.1)">
      <use xlink:href="#DejaVuSans-49"/>
      <use x="63.623047" xlink:href="#DejaVuSans-50"/>
     </g>
    </g>
    <g id="line2d_31">
     <path d="M 92.43 143.503187 
L 112.43 143.503187 
" style="fill:none;stroke:#34dc71;stroke-linecap:square;stroke-width:1.5;"/>
    </g>
    <g id="line2d_32"/>
    <g id="text_18">
     <!-- 12 regularized -->
     <g transform="translate(120.43 147.003187)scale(0.1 -0.1)">
      <use xlink:href="#DejaVuSans-49"/>
      <use x="63.623047" xlink:href="#DejaVuSans-50"/>
      <use x="127.246094" xlink:href="#DejaVuSans-32"/>
      <use x="159.033203" xlink:href="#DejaVuSans-114"/>
      <use x="197.896484" xlink:href="#DejaVuSans-101"/>
      <use x="259.419922" xlink:href="#DejaVuSans-103"/>
      <use x="322.896484" xlink:href="#DejaVuSans-117"/>
      <use x="386.275391" xlink:href="#DejaVuSans-108"/>
      <use x="414.058594" xlink:href="#DejaVuSans-97"/>
      <use x="475.337891" xlink:href="#DejaVuSans-114"/>
      <use x="516.451172" xlink:href="#DejaVuSans-105"/>
      <use x="544.234375" xlink:href="#DejaVuSans-122"/>
      <use x="596.724609" xlink:href="#DejaVuSans-101"/>
      <use x="658.248047" xlink:href="#DejaVuSans-100"/>
     </g>
    </g>
   </g>
  </g>
 </g>
 <defs>
  <clipPath id="pe47f3a0e24">
   <rect height="271.656" width="517.266" x="83.43" y="42.336"/>
  </clipPath>
 </defs>
</svg>
